<svg xmlns="http://www.w3.org/2000/svg" xmlns:xlink="http://www.w3.org/1999/xlink" id="Capa_1" x="0px" y="0px" viewBox="0 0 266.8 142.2" style="enable-background:new 0 0 266.8 142.2;" xml:space="preserve">
<style type="text/css">
	.st0{fill:#EA0029;}
	.st1{fill:#FDC833;}
	.st2{fill:#F39700;}
	.st3{fill:#7F2629;}
	.st4{fill:#FFFFFF;}
</style>
<g>
	<g>
		<path class="st0" d="M106.7,21.8c55.6-5,86.3-0.9,99.3,0.9c24,3.3,51.6,9.8,60.5,14.3c0,0,0,0,0,0s-11.3,55-11.3,55    c-0.2,0.4-2.2,5.2-2.3,5.5c-1.9-0.6-14.9-2.7-40.5-3.9c-45.2,1.5-65.4,5.5-98,13.5c-8.2,2.4-22,6.8-31.5,10.1    c0,0-17.5,6.1-26.1,9.8c-14,6.1-29,13.8-29,13.8s-1.8,1-2.2,1.2c-0.1-0.5-25.5-82.9-25.5-83c0-0.1,2.1-7.5,2.1-7.7    C4,50.3,49.8,27.3,106.7,21.8"></path>
		<path class="st1" d="M0,59l1.7-7.9c0,0,46.2-23.9,104.7-29.6c55.8-5,87-0.8,99.5,0.9c23.3,3.2,51.4,9.7,60.6,14.4    c4.6,2.3-32.4-12.1-100-13.7c-53.2,0.2-82.1,5.5-116.4,15C18.2,48,1,58.3,0,59"></path>
		<path class="st1" d="M253.1,97.8l2.4-5.9c-18.8-3.7-40.3-6.6-91.3-1.2c-32.2,5.6-49,10-80,21.2c-23.5,8.5-49,23.5-58.6,30    c-3,2,12.5-7.2,42.5-19.2c13.8-5.1,25.1-9.2,46.1-15.4c31.9-7.9,52.1-12,98-13.5C239.3,95,252.2,97.4,253.1,97.8"></path>
		<path class="st2" d="M61.2,81.5c0,0-0.1-0.1-0.1-0.1c0,0,0,0,0,0C61.1,81.5,61.1,81.5,61.2,81.5"></path>
		<path class="st3" d="M117.6,37.3c0,0,0.1,0,0.1,0c0,0,0,0,0,0L117.6,37.3z"></path>
		<path class="st3" d="M183.8,56.1L183.8,56.1C183.8,56.1,183.8,56.1,183.8,56.1L183.8,56.1z"></path>
		<path class="st3" d="M154.3,39.4L154.3,39.4C154.3,39.4,154.3,39.4,154.3,39.4L154.3,39.4z"></path>
		<path class="st3" d="M197.7,63.7C197.6,63.7,197.6,63.7,197.7,63.7c0-0.1,0-0.1-0.1-0.1L197.7,63.7z"></path>
		<path class="st3" d="M215.7,36.4C215.7,36.4,215.7,36.4,215.7,36.4c0,0.1,0,0.1,0,0.1L215.7,36.4z"></path>
		<path class="st3" d="M220.7,42.7c0.6,0.7,1.4,1.1,2.4,1.1c1,0,2.1-0.5,2.9-1.3c0.9-0.8,2-2.5,2.4-4.2c0.3-1.3,0.2-2.7-0.3-3.9    c-0.6-1.3-1.7-2.2-3.1-2.4c0,0-0.1,0-0.1,0v0h0c-0.1,0-0.1,0-0.2,0c-2.7-0.5-5.3,1.4-7.5,3.3c-0.5,0.5-1.1,0.9-1.6,1.5    c0-0.1,0-0.2,0-0.3c0.2-1.3,0-2.9-0.6-4c-0.7-1.3-1.8-1.8-2.5-2c-1.9-0.4-3.8,1.1-5.3,2.6l0.1-0.1c-1.4,1.3-2,2.9-2.7,5.5    c-1.4,5.1-4.8,16.2-6.5,19.6c-0.7,1.4-1.5,3.5-0.5,5.5c0.7,1.6,2,2.7,3.6,2.9c1.3,0.1,3.3-0.3,4.9-3.1l0,0l0,0    c4.4-8.3,8.3-14.2,12.2-18.3C218.8,44.5,219.9,43.3,220.7,42.7"></path>
		<path class="st3" d="M226,42.5C226,42.5,226,42.5,226,42.5C225.9,42.5,225.9,42.5,226,42.5L226,42.5z"></path>
		<path class="st3" d="M243.8,39.6C243.8,39.6,243.8,39.7,243.8,39.6C243.8,39.7,243.8,39.7,243.8,39.6L243.8,39.6z"></path>
		<path class="st3" d="M233.2,47.7c0.6-0.6,1.1-1.1,1.5-1.4c-0.1,0.2-0.1,0.4-0.2,0.5c-0.1,0.2-0.2,0.4-0.4,0.7l-0.1,0.1    c-0.7,1.1-1.9,3.1-2.6,3.9c-1.9,2.2-3.3,3.7-4.2,4.7C228.7,53.3,230.8,50.1,233.2,47.7 M252.8,54.3c0-0.1,0-0.2,0-0.3    c-0.2-0.9-0.7-1.7-1.5-2c-0.4-0.2-1.9-0.6-3.4,1l-0.1,0.1l-0.1,0.1c-4.2,5.3-7.6,8.3-9.2,9.2c0-0.6,0-1.8,0.3-4    c0.6-3.9,2.2-7.9,5.1-13.3l0,0.1c1.1-1.8,1-3.8-0.3-5.3c-0.5-0.7-1.2-1.1-1.9-1.2c-0.4-0.9-1.1-1.7-2-2.1c-0.1,0-0.1-0.1-0.2-0.1    c0,0,0,0-0.1,0v0c-0.1,0-0.2-0.1-0.3-0.1l0.2,0c-1.2-0.3-3.8-0.5-7.8,2.5c-4.5,3.2-8.8,8.7-11.2,12.5c-2.7,4-4.2,7.4-4.7,10    c-0.3,1.8-0.1,3.5,0.7,4.9c1,1.7,2.4,2.5,3.3,2.7c1.9,0.3,4-0.5,6.5-2.4c1-0.8,2.5-2.1,3.9-3.5c-0.2,4.4,1.7,8.1,4.5,8.6    c4.9,0.9,13.6-7.5,16.8-13.2l0,0l0,0C252.4,56.7,252.9,55.5,252.8,54.3"></path>
		<path class="st3" d="M76.4,47.5C76.4,47.5,76.4,47.5,76.4,47.5L76.4,47.5z"></path>
		<path class="st3" d="M76.4,47.5c-0.9,0.2-1.8,0.5-2.9,0.9L76.4,47.5z"></path>
	</g>
	<path class="st3" d="M133.4,71.1L133.4,71.1L133.4,71.1z"></path>
	<g>
		<polygon class="st3" points="108.4,37.1 108.4,37.1 108.3,37.1   "></polygon>
		<path class="st3" d="M186.6,54.5c-1,1.2-2,1.8-2.7,2.1c0-0.1-0.1-0.3-0.1-0.5l0,0c0,0,0,0,0,0l0,0c0,0,0-0.1,0-0.1    c0-4.9,4-12.8,6.7-16.3c0.6-0.9,1.1-1.4,1.4-1.8c0.2,0.5,0.5,1.5,0.5,3.6C192.3,44.9,189.1,51.7,186.6,54.5 M155,39.4L155,39.4    l0,0.2c-0.3,3-4,11.1-7.6,16.7c-1.5,2.3-2.7,3.8-3.7,4.7c0.2-2.1,1-5.6,3.2-10.6c3.1-7.3,6.4-10.8,7.5-11.1c0,0,0,0,0,0    c0,0,0,0,0.1,0l0,0c0,0,0,0,0,0l0,0C154.6,39.3,154.8,39.3,155,39.4C155,39.4,155,39.4,155,39.4 M109,52.6    c-0.1,0.3-0.1,0.8-0.2,1.4c-0.3,1.9-0.9,5.4-1.4,6.9c-2.1,5.8-3.9,10.2-5,12.3c0.2-4.8,1.2-11.3,3.9-17.4c1.2-2.7,2-4.2,2.6-5.1    C108.9,51.3,109,52,109,52.6 M197.6,30.3c0-1.3-0.4-2.5-1.1-3.3c-0.8-1-2.1-1.6-3.6-1.6c-1.9-0.1-3.6,0.8-4.8,2.4    c-1.6,0.1-2.9,0.6-3.9,1.7c-1.3,1.2-2,2.7-2.1,4.6l0,0.1l0,0.1c0,0.4-0.1,0.6-0.6,1.4c0,0,0,0.1-0.1,0.1c-0.2,0.3-0.5,0.8-0.9,1.4    c-1.1,0.1-2.4,0.7-3.5,2.8l0,0.1l0,0.1c-3,6.9-7.7,14.5-10.1,16.8c-0.2-0.6-0.4-1.5-0.5-2.9c-0.6-6.6,0-15.9,1.4-24.4    c1.2-7,2.7-13.1,3.6-17.2c0,0,0-0.2,0-0.2c0.4-1.5,0.6-2.7,0.8-3.4c0.5-2.6,0.1-4.4-1.4-6.2c-1.4-1.8-3-2.6-4.8-2.4    c-3.2,0.3-3.9,3.2-4.1,4.2c-0.5,1.8-1.4,6.4-2.6,12.3c0,0-1.7,8.3-2.5,12.3c-0.8-0.1-1.6,0-2.4,0.1l-0.2,0l0,0c0,0-0.1,0-0.1,0    l0,0c-5.3,0.9-11,5.4-15.5,12.5c-0.9,1.4-1.7,3-2.5,4.6c-0.6,0.5-1.1,1.2-1.4,2l0,0.1l0,0.1c-3.8,11.4-7.7,18.1-9.6,19.8    c-0.5-0.6-1.3-1.9-2.3-4.9c-1.7-5.1-2-11.1-0.9-20l0,0.1c0.5-3-1.1-5.1-4.3-5.9c-1.4-0.4-2.7-0.2-3.9,0.3    c-1.4-0.7-3.3-1.3-5.3-0.7l0.1,0l-0.1,0c-0.1,0-0.1,0-0.1,0l0,0l0,0c0,0-0.1,0-0.1,0l0,0l0,0l0,0c-0.1,0-2.4,0.9-2.3,1.1    c-2.1,1.2-4.8,3.6-7.6,8.1c-5,7.6-8,17.9-9.1,24.3c-1,5.1-1.3,9.2-0.9,12.3c0,0,0,0,0-0.1c-1.9-3.9-7.5-6.9-10.7-8.4    c-3-1.3-4.5-2.5-5.2-3.9c-0.1-0.3-0.5-1.4,0.5-3.6c1.6-3.5,5.3-7.1,8.8-8.6c4.4-1.8,6.4-4.9,5-7.8c-0.9-1.9-3.1-3.1-6-3.4l0,0l0,0    c-1.3-0.1-2.7,0-4.1,0.4l-2.9,1c0,0-0.1,0-0.1,0l0,0c0,0-0.1,0-0.1,0c0,0,0,0,0,0c-4.7,1.9-9.7,6.4-12.4,11.2    c-3,5.2-5.2,12.6-2.4,17.9c1,1.9,2.7,3.7,4.7,5L63,82.6c1.6,1.2,4.6,2.7,7.5,4.1c0,0,1,0.5,1,0.5c1.8,0.8,3.1,1.8,3.6,2.5    c-0.1,0.1-0.2,0.3-0.3,0.3l-0.1,0l-0.1,0c-0.6,0.4-0.9,0.5-1.8,0.6c-2.5,0.1-4.3,1.3-5.5,2.3L67.2,93l-0.1,0.1    c-0.9,0.9-1.6,1.9-2.3,3.1c-1.1-1-2.8-1.3-4.9-0.9l-0.1,0l-0.1,0c-1.7,0.5-3.7,1.4-5.4,2.5c-0.6,0.3-1.4,0.8-2.5,1.4    c-1.1,0.7-2.5,1.5-4,2.3c-2.1-8-3.9-27.2-4.6-43.1c0-0.1,0-0.2,0-0.2l5.5-2.5c0,0,4.8-2.2,6-5.3c0.4-1.1,0.4-2.2-0.2-3.2    c-1.1-1.8-3.6-2.5-6.3-1.9l0.2,0c-1.5,0.3-5.4,1.1-8.5,2c-2.4-1.7-6.2-2.6-9.6-1.4l-0.1,0l-0.6,0.3c0,0,0,0,0,0l-0.1,0l0,0    c-4,1.7-4.8,4.6-4.9,6.7c-2.2,1-6.4,3.1-8.5,4.3c-1.3,0.7-3.1,1.9-4.2,3.9c-1,1.6-1.2,3.4-0.5,4.9c0.6,1.3,1.8,2.4,3.4,3.1    c2,1,5.1,1.6,9-0.9c0.4-0.3,1-0.6,1.6-1c2.1,18.4,4,32.4,7.2,42.3c-3,1.8-6.4,4.4-7.8,7.9l0,0.1c0,0,0,0,0,0.1l0,0    c0,0,0,0.1,0,0.1c-0.7,1.5-0.7,3,0,4.2c0.8,1.4,2.5,2.4,4.6,2.6l-0.2,0c2,0.3,4.9,0.5,7.7-2.1c0.4-0.3,0.8-0.7,1.2-1.1    c0.6-0.6,1.4-1.3,2-1.8c1.3,0.2,3.6,0.4,5.9-0.9c0.6-0.3,1.5-0.9,2.5-1.9l0,0v0l0.1-0.1l0-0.1c0,0,0.1-0.1,0.1-0.1c0,0,0,0,0,0    l0,0c0.9-1,1.4-2,1.7-2.6c0-0.1,0.1-0.1,0.1-0.2c3.1-1.9,8.8-6,12.7-10.2c0.1,0.3,0.2,0.5,0.4,0.7c2.4,3.2,8.4,2.5,11.8,0.8    c1.7-0.8,3.6-2.3,5.2-4c2.5-2.4,5.7-6.4,7.1-8.9c0.9-1.6,1.5-3.9,1.4-6.1c1.2,3,3.5,4.2,5.3,4.8c2.1,0.6,4.7,0.6,6.5-0.1    c2.9-1.2,5.3-3.6,7.8-7.6c1.3-2.1,3.1-5.7,4.7-9.1c2.5,5.3,8.6,8.2,13.2,6.3c2.7-1.1,5.3-3.8,7.3-6.6c0.4,0.5,0.9,0.9,1.4,1.2    c1.5,0.9,3.3,1.2,5.2,0.7c3-0.8,7.7-4.9,10.9-8.4c1.2-1.4,3.1-4.3,5.2-7.5c0.4,3.7,1.8,6.7,3.8,8.1c1.5,1.1,3.3,1.4,5.2,1    c2.8-0.7,5.6-2.8,8.5-6.1c1.4,2.8,4,4.8,6.7,4.6c4.5-0.3,11.3-3.6,16.7-11.8c3.1-4.4,4.8-10.9,4.8-13.7    C202,35.5,199.5,32,197.6,30.3"></path>
		<path class="st4" d="M28.5,116.6c0,0,0-0.1,0-0.1c0,0,0,0,0,0C28.5,116.5,28.5,116.6,28.5,116.6"></path>
		<path class="st4" d="M61.2,96.2c-1.4,0.4-3,1.2-4.5,2.1c-0.5,0.3-1.4,0.8-2.5,1.4c-1.9,1.1-4.6,2.7-7.6,4.3c0,0,0,0,0,0    c0-0.1-0.1-0.3-0.2-0.6c-2.8-6.9-4.8-31.3-5.4-46.1c0-1.8,0.2-1.9,0.5-2c0,0,6.7-3,6.7-3c1-0.4,3.8-2.1,4.5-3.8    c0.3-0.7,0.1-1.2-0.1-1.5c-0.5-0.8-1.6-1.1-2.9-0.8c-1.8,0.3-6.9,1.5-9.7,2.4c-0.2,0.1-0.4,0.1-0.4,0.1c0,0-0.1-0.1-0.3-0.3    c-1.5-1.6-4.8-2.7-7.3-1.7L31.9,47c-3.1,1.3-3.2,3.6-3.3,5.6l0,0c-0.1,0.3-0.3,0.5-1.2,0.9c-1.8,0.8-6.4,3-8.5,4.3    c-1,0.6-2.4,1.4-3.1,2.8c-0.6,1-0.8,2.1-0.4,3.1c0.4,0.9,1.2,1.6,2.2,1.9c-0.1,0-0.1,0-0.2-0.1c2.1,1.1,3.8,0.4,5.2-0.5    c1.3-0.9,4-2.4,5.9-3.3c0.1-0.1,0.2-0.1,0.3-0.2c0,0.1,0,0.1,0,0.2c2.3,20.9,4.2,36.3,7.8,46.6c0.1,0.3,0.1,0.4,0.1,0.5    c0,0-0.1,0.1-0.2,0.1c-3.1,1.7-6.9,4.1-8.2,7.6c-0.5,1-0.5,1.9-0.1,2.7c0.5,0.8,1.5,1.4,2.7,1.5c1.9,0.3,3.1,0,4.3-1.1    c0.4-0.3,0.8-0.7,1.2-1.1c1.1-1,2.3-2.1,3.3-2.7c0.7-0.4,0.9-0.4,1.5-0.2c0,0,0.1,0,0.1,0c1,0.2,2.5,0.4,3.8-0.3    c0.5-0.3,1.1-0.6,1.6-1.3c0.7-0.7,1.1-1.6,1.5-2.2c0.2-0.4,0.5-1,0.7-1.1c3.4-2,9.6-6.5,13.2-10.6c0.9-1,1.9-2.5,1.2-3.5    C63.2,96.3,62.6,95.9,61.2,96.2"></path>
		<path class="st4" d="M47,114C47,114,47,114,47,114C47,114,47,114.1,47,114C47,114.1,47,114,47,114"></path>
		<path class="st4" d="M76.7,75c-3.5-1.6-5.3-3-6.3-4.9C69.8,68.9,70,67,71,64.9c1.9-4.2,6.2-8.3,10.4-10c2.9-1.2,4.3-3.1,3.5-4.7    c-0.6-1.2-2-1.9-4-2.1c-1.6-0.1-3.2,0.2-5.4,1.1c0,0-0.1,0-0.1,0c-4,1.6-8.5,5.7-11,10c-2.6,4.5-4.8,11.4-2.4,16    c0.8,1.5,2.3,3.1,4,4.2c1.5,1.1,4.5,2.6,7.1,3.9l0.9,0.5c2.3,1.1,4.2,2.6,4.8,3.7c0.4,0.7-0.5,2.1-1.5,2.8c-1.3,1-2.5,1.2-3.7,1.3    c-1.4,0-2.3,0.5-3.4,1.4c-1.1,1.1-2,2.6-3,4.8c-0.7,1.3-0.5,2.5-0.3,3.3c0,0.1,0.1,0.2,0.1,0.2c1.5,2,5.7,1.4,8,0.3    c1.3-0.7,2.9-1.9,4.3-3.3c2.3-2.3,5.4-6.1,6.6-8.3c1.1-1.9,1.7-5.2,0.6-7.5C84.7,79,79.1,76.1,76.7,75"></path>
		<path class="st4" d="M112.4,51.3c-0.1,0.3-0.1,0.8-0.3,1.5c-0.3,2-0.9,5.5-1.5,7.1c-2.2,6.3-4.1,10.8-5.3,12.9    c-2.2,3.8-3.2,4.4-3.5,4.5c-0.3,0.1-0.5,0.1-0.7,0c-0.4-0.2-0.9-1-0.9-2.5c-0.2-4.9,0.7-13.4,4.1-21c2-4.6,3.6-7.2,4.9-7.6    c0,0,0.1,0,0.1,0c0.3-0.1,1.3-0.4,2.3,1.2C112.3,48.6,112.5,50.2,112.4,51.3 M158,38.3c-0.3,3.6-4.4,12.2-7.9,17.6    c-3,4.6-5.7,7-7,7.3c-0.2,0.1-0.4,0-0.6-0.1c-0.3-0.2-0.5-0.6-0.6-1.2c-0.3-2,0.4-6.6,3.3-13.4c3.1-7.1,6.8-12.1,9.5-12.5    c0,0,0.1,0,0.1,0c1.8-0.3,2.7,0.4,2.9,0.6c0,0,0,0,0.1,0.1C157.9,36.8,158.2,37.1,158,38.3 M195.2,40.1c0,4-3.4,11.1-6.3,14.4    c-1.6,1.9-3.4,3-5,3c-1,0-1.7-1-1.7-2.5c0,0,0-0.1,0-0.1c0-5.4,4.2-13.7,7.1-17.6c1.4-2,2.3-3,3.2-3    C193.2,34.4,195.2,34.4,195.2,40.1 M196.3,30.2c-0.2-0.1-0.2-0.2-0.2-0.7c0-0.1,0-0.1,0-0.2c0-0.9-0.2-1.7-0.7-2.2    c-0.5-0.6-1.1-0.9-2-0.9c-1.2,0-2.2,0.5-2.8,1.6c-0.6,0.6-0.8,0.8-1.4,0.8c-0.8,0-1.8,0.1-2.5,1c-0.9,0.9-1.3,1.8-1.4,3.2    c0,0.9-0.3,1.5-0.8,2.4l-0.1,0.2c-0.4,0.5-1.1,1.6-1.9,2.9c-0.3-0.4-0.6-0.4-0.8-0.4c-0.6,0-1.1,0.5-1.6,1.5    c-2.4,5.5-9,18-12.7,18.8c-0.3,0.1-0.5,0-0.8-0.2c-0.4-0.3-1.3-1.4-1.5-5c-0.6-6.7,0-16.3,1.4-24.9c1.2-7.1,2.7-13.3,3.7-17.4    c0.4-1.5,0.7-2.8,0.8-3.5c0.4-2,0.1-3.3-1-4.7c-0.9-1.1-1.8-1.7-2.7-1.6c-1.2,0.1-1.6,1.1-1.9,2.5c-0.4,1.6-1.4,6.3-2.6,12.2    l-3,14.5c0,0.1,0,0.1,0,0.1c-0.1,0-0.2,0-0.4-0.1c-1.1-0.4-2.3-0.5-3.6-0.3c0,0-0.1,0-0.1,0c-4.5,0.7-9.7,4.9-13.9,11.3    c-1,1.5-1.8,3.2-2.6,4.9c-0.4,0.2-0.8,0.6-1.2,1.4c-3,9.1-7.8,20.3-11.7,21.8c-1.7,0.7-3.4-1.5-5.1-6.5c-1.8-5.3-2.1-11.6-1-20.9    c0.3-2-0.6-3.2-2.7-3.7c-1.1-0.3-2.1,0-2.9,1c0,0,0,0,0,0c-1.2-0.8-3-1.8-4.5-1.4c0,0-0.1,0-0.1,0c-1.3,0.4-4.7,2-8.4,8    c-4.8,7.4-7.7,17.2-8.7,23.4c-1.3,6.6-1.4,11.4-0.3,14.3c1.6,4.4,6.5,4.4,8.3,3.7c2.1-0.9,4.2-3,6.3-6.4    c2.1-3.4,5.9-11.4,7.2-14.8c0.5,1.4,1.5,3.8,2.3,5.5c2.2,4.7,7,6.6,9.9,5.4c2.8-1.1,5.9-4.9,8.7-9.6c0.5,2.1,1.3,3.6,2.5,4.4    c0.9,0.6,2,0.7,3.1,0.4c1.7-0.4,5.7-3.4,9.4-7.6c1.8-2.1,6-8.6,9-14.3c0,2,0.1,4,0.4,7.2c0.3,3.3,1.5,6,3.1,7.2    c0.9,0.7,2,0.9,3.1,0.6c3.5-0.9,7.2-4.9,10.3-9.5c0,0.4,0,0.7,0,1.1c0,0,0,0.1,0,0.1c0,3.9,3,7,5.4,6.8c3.8-0.2,9.8-3.2,14.8-10.7    c2.8-4,4.4-10,4.4-12.6C200.4,34.6,197.8,31.5,196.3,30.2"></path>
		<path class="st4" d="M221.6,39.3c0.5,0.1,0.9,0.5,1.3,0.9c0,0,0,0,0,0c0.5,0.7,1.4,0.9,2.3-0.1c0.6-0.6,1.5-1.9,1.8-3.2    c0.2-0.9,0.2-1.9-0.2-2.6c-0.4-0.8-1-1.3-1.8-1.5l-0.1,0c-1.5-0.3-3.2,0.5-5.7,2.8c-3.7,3.2-8,8.7-9.5,10.7    c0.7-2.6,2.4-7.1,3.5-8.6c0.5-0.7,1-1.4,1.2-2.5c0.2-0.8,0-2-0.5-2.9c-0.3-0.6-0.7-0.9-1.2-1c-0.5-0.1-1.3,0-3.3,2    c-0.9,0.8-1.3,2-2,4.5c-1.3,4.6-4.7,16.1-6.6,19.9c-0.5,1.1-1.1,2.6-0.4,3.9c0.4,1,1.2,1.7,2,1.8c1,0.1,1.7-0.5,2.5-1.8    c4.6-8.6,8.5-14.5,12.6-18.8C218.7,41.3,220.8,39.1,221.6,39.3"></path>
		<path class="st4" d="M236.8,46.4c-0.1,0.2-0.3,0.4-0.5,0.8c-0.7,1.2-2,3.2-2.7,4.1c-2.8,3.3-5,5.6-6.2,6.6    c-2.1,1.7-2.7,1.8-2.9,1.7c-0.2,0-0.3-0.2-0.3-0.2c-0.1-0.3-0.1-1,0.4-2c1.3-3.3,4.2-8.5,7.9-12.1c2.2-2.3,3.7-3.3,4.3-3.1    c0,0,0.1,0,0.1,0c0.2,0,0.7,0.2,0.7,1.6C237.5,44.6,237.1,45.7,236.8,46.4 M251.5,53.4c-0.1-0.4-0.3-0.7-0.6-0.8    c-0.2-0.1-0.6-0.1-1.2,0.5c-3.9,4.9-9.4,10.6-11.7,10.2c-0.3-0.1-0.4-0.2-0.6-0.5c-0.4-0.8-0.4-2.7,0.1-5.7    c0.7-4.2,2.3-8.4,5.4-13.9c0.7-1.1,0.6-2.2-0.2-3.3c-0.4-0.6-1-0.7-1.6-0.4c0,0,0,0,0,0c-0.3-0.9-0.9-2.2-1.7-2.4c0,0-0.1,0-0.1,0    c-0.7-0.2-2.6-0.4-6,2.2c-4.2,3-8.4,8.2-10.6,11.9c-2.5,3.8-4,6.9-4.4,9.2c-0.2,1.4-0.1,2.7,0.5,3.7c0.7,1.2,1.6,1.8,2.1,1.8    c1.2,0.2,2.8-0.4,4.8-2c2-1.5,6-5.4,7.6-7.2c-0.2,1.1-0.4,3-0.5,4.5c-0.4,4,1.3,7.1,3.1,7.4c3.5,0.6,11.5-6.6,14.6-12.1    C251.3,55,251.5,54.1,251.5,53.4C251.5,53.5,251.5,53.4,251.5,53.4"></path>
		<path class="st4" d="M256,41.9c1.5,0,2.7,1.2,2.7,2.7s-1.2,2.7-2.7,2.7c-1.5,0-2.7-1.2-2.7-2.7C253.3,43.1,254.5,41.9,256,41.9     M256,41.3c-1.9,0-3.4,1.5-3.4,3.3c0,1.9,1.5,3.4,3.3,3.4c1.9,0,3.4-1.5,3.4-3.3C259.3,42.8,257.8,41.3,256,41.3 M257.5,46.4    l-0.4-0.7c-0.4-0.6-0.5-0.7-0.8-0.8v0c0.6-0.1,1-0.5,1-1c0-0.6-0.4-1-1.1-1l-1.8,0l0,3.6l0.7,0l0-1.5l0.1,0c0.3,0,0.4,0,0.6,0.2    c0.1,0.1,0.4,0.5,0.5,0.7l0.3,0.6L257.5,46.4z M255.2,44.4l0-1l0.7,0c0.5,0,0.7,0.2,0.7,0.5c0,0.2-0.2,0.5-0.7,0.5L255.2,44.4z"></path>
		<path class="st3" d="M240.1,76.1c-0.1,0.1-0.5,0.7-0.5,0.7c0,0,0,0,0,0c0.5,0.1,1.2-0.3,1.2-0.5c0-0.1-0.1-0.2-0.3-0.2    C240.4,76.1,240.2,76.1,240.1,76.1 M239.3,76.1L239.3,76.1c-0.1,0-0.1,0-0.1-0.1c0-0.1,0.1-0.1,0.3-0.2c0.4-0.1,0.9-0.1,1.3-0.1    c0.4,0.1,0.7,0.2,0.6,0.5c0,0.3-0.4,0.5-1,0.7c-0.2,0.1-0.3,0.1-0.4,0.1c0,0,0,0,0,0c0,0,0,0.1,0.2,0.3c0.2,0.4,0.3,0.5,0.4,0.5    c0.1,0,0.1,0.1,0.1,0.1c0,0.1-0.3,0.2-0.4,0.2c-0.1,0-0.2-0.1-0.3-0.4l-0.3-0.5c-0.2-0.3-0.2-0.3-0.2-0.3c-0.1,0-0.3,0.4-0.3,0.6    c0,0.1-0.1,0.1-0.2,0.2c-0.1,0-0.3,0.1-0.3,0.1c-0.1,0-0.1,0-0.1-0.1c0-0.2,0.3-0.7,0.7-1.3l0.4-0.6c0,0,0,0,0-0.1c0,0,0,0,0,0    c0,0,0,0,0,0L239.3,76.1z M239.6,75.4c-0.8,0.5-1.5,1.4-1.6,2.2c0,0.4,0,0.7,0.2,0.9c0.2,0.2,0.5,0.4,0.8,0.4    c0.7,0.1,1.3-0.2,1.9-0.9c0.5-0.5,0.8-1.1,0.8-1.7c0.1-0.7-0.3-1.2-1-1.2C240.4,75.1,240,75.2,239.6,75.4 M242.4,76.2    c-0.1,0.6-0.5,1.4-1.2,2c-0.8,0.8-1.8,1.2-2.6,1.1c-0.4,0-0.7-0.2-0.9-0.5c-0.2-0.3-0.2-0.6-0.2-1c0.1-0.8,0.5-1.6,1.2-2.1    c0.4-0.3,0.8-0.6,1.3-0.7c0.3-0.1,0.6-0.1,1-0.1C242,75,242.5,75.5,242.4,76.2"></path>
		<path class="st4" d="M240.6,75.2c-0.1,0.1-0.5,0.7-0.5,0.7c0,0,0,0,0,0c0.5,0.1,1.2-0.3,1.2-0.5c0-0.1-0.1-0.2-0.3-0.2    C240.9,75.1,240.6,75.1,240.6,75.2 M239.8,75.1L239.8,75.1c-0.1,0-0.1,0-0.1-0.1c0-0.1,0.1-0.1,0.3-0.2c0.4-0.1,0.9-0.1,1.3-0.1    c0.4,0.1,0.7,0.2,0.6,0.5c0,0.3-0.3,0.5-1,0.7c-0.2,0.1-0.3,0.1-0.4,0.1c0,0,0,0,0,0c0,0,0,0.1,0.2,0.3c0.2,0.4,0.3,0.5,0.4,0.5    c0.1,0,0.1,0.1,0.1,0.1c0,0.1-0.3,0.2-0.4,0.2c-0.1,0-0.2-0.1-0.3-0.4l-0.3-0.5c-0.2-0.3-0.2-0.3-0.2-0.3c-0.1,0-0.3,0.4-0.3,0.6    c0,0.1-0.1,0.1-0.2,0.2c-0.1,0-0.3,0.1-0.3,0.1c-0.1,0-0.1,0-0.1-0.1c0-0.2,0.3-0.7,0.7-1.3l0.4-0.6c0,0,0,0,0-0.1c0,0,0,0,0,0    c0,0,0,0,0,0L239.8,75.1z M240.1,74.5c-0.8,0.5-1.5,1.4-1.6,2.2c0,0.4,0,0.7,0.2,0.9c0.2,0.2,0.5,0.4,0.8,0.4    c0.7,0.1,1.3-0.2,1.9-0.9c0.5-0.5,0.8-1.1,0.8-1.7c0.1-0.7-0.3-1.2-1-1.2C240.9,74.1,240.5,74.2,240.1,74.5 M242.9,75.3    c-0.1,0.6-0.5,1.4-1.2,2c-0.8,0.8-1.8,1.2-2.6,1.1c-0.4,0-0.7-0.2-0.9-0.5c-0.2-0.3-0.2-0.6-0.2-1c0.1-0.8,0.5-1.6,1.2-2.1    c0.4-0.3,0.8-0.6,1.3-0.7c0.3-0.1,0.6-0.1,1-0.1C242.5,74,243,74.5,242.9,75.3"></path>
		<path class="st3" d="M110,93.8l1.6-0.1c0.5,0,1,0,1.2,0.1c0.3,0.1,0.5,0.3,0.5,0.6c0.2,0.6-0.2,1.4-1.1,2.3    c-0.9,1-1.9,1.6-2.9,1.9c-0.6,0.2-1,0.2-1.4,0c-0.3-0.1-0.5-0.3-0.5-0.6c-0.1-0.3-0.1-0.7,0.1-1c0.1-0.3,0.3-0.4,0.5-0.5    c0.1,0,0.2,0,0.2,0.1c0,0,0,0.1,0,0.1c0,0.1,0,0.2,0,0.3c0.1,0.2,0.2,0.4,0.4,0.5c0.2,0.1,0.6,0.1,1,0c0.6-0.2,1.1-0.4,1.7-0.8    c0.5-0.3,0.8-0.7,0.9-1c0.1-0.2,0.1-0.4,0.1-0.5c-0.1-0.3-0.3-0.4-0.8-0.4l-1.8,0.1c-0.5,0-0.8,0-1,0c-0.5-0.1-0.8-0.4-0.9-0.8    c-0.2-0.7,0.2-1.4,1-2.3c0.8-0.8,1.7-1.3,2.7-1.6c1-0.3,1.5-0.1,1.7,0.5c0.1,0.3,0,0.7-0.3,1c-0.2,0.3-0.4,0.5-0.6,0.5    c-0.1,0-0.1,0-0.2-0.1c0,0,0-0.1,0-0.2c0-0.2,0-0.3,0-0.5c-0.1-0.4-0.5-0.5-1.1-0.3c-0.6,0.2-1.1,0.5-1.5,0.9    c-0.4,0.4-0.5,0.7-0.4,1.1c0.1,0.2,0.2,0.3,0.3,0.4C109.4,93.8,109.6,93.8,110,93.8"></path>
		<path class="st3" d="M116.4,94c-0.2,0.1-0.5,0.2-0.7,0.3c-0.4,0.2-0.6,0.5-0.8,0.9c-0.1,0.3-0.1,0.5-0.1,0.7    c0,0.1,0.1,0.3,0.2,0.3c0.2,0.1,0.4,0.1,0.6,0.1c0.3-0.1,0.6-0.2,0.9-0.5c0.4-0.3,0.6-0.6,0.8-1c0.1-0.2,0.1-0.3,0-0.5    c0-0.2-0.1-0.3-0.3-0.3C116.8,94,116.6,94,116.4,94 M117,96c-0.2,0.2-0.4,0.4-0.5,0.5c-0.4,0.3-0.8,0.5-1.3,0.6    c-0.3,0.1-0.6,0.1-0.9,0c-0.1,0-0.3-0.1-0.4-0.3c-0.1-0.1-0.2-0.2-0.2-0.4c-0.1-0.5,0-1,0.3-1.5c0.3-0.6,0.9-1,1.6-1.4    c0.3-0.2,0.7-0.3,1-0.4c0,0,0.1,0,0.1,0c0.2,0,0.3-0.1,0.4-0.1c0.1,0,0.2-0.1,0.3-0.2c0.1-0.2,0.1-0.3,0.1-0.5    c0-0.2-0.1-0.3-0.3-0.4c-0.2-0.1-0.4-0.1-0.7,0c-0.5,0.1-1.1,0.4-1.6,0.9c-0.1,0.1-0.2,0.1-0.2,0.1c-0.1,0-0.2,0-0.2-0.1    c0-0.2,0.1-0.4,0.3-0.6c0.5-0.5,1.1-0.9,2-1.1c0.5-0.1,0.8-0.1,1.1,0c0.1,0,0.3,0.1,0.4,0.3c0.1,0.1,0.2,0.3,0.2,0.4    c0.1,0.3,0,0.9-0.1,1.6l-0.4,1.8c0,0.2,0,0.4,0,0.6c0,0.1-0.1,0.2-0.2,0.4c-0.2,0.2-0.3,0.3-0.4,0.4c-0.1,0-0.2,0-0.3-0.1    c-0.1-0.1-0.1-0.1-0.1-0.2C117,96.2,117,96.2,117,96"></path>
		<path class="st3" d="M122.3,90.9c-0.3,0.1-0.6,0.3-0.9,0.6c-0.3,0.3-0.5,0.8-0.7,1.3c-0.1,0.6-0.2,1-0.1,1.4    c0,0.2,0.1,0.3,0.3,0.4c0.2,0.1,0.4,0.2,0.6,0.1c0.4-0.1,0.7-0.3,1-0.7c0.3-0.4,0.6-0.8,0.7-1.3c0.1-0.4,0.1-0.8,0-1.1    C123.2,91,122.8,90.7,122.3,90.9 M121.2,90l-0.1,0.7c0,0.1,0,0.1,0,0.1c0,0,0,0,0.1,0c0,0,0.1-0.1,0.2-0.2    c0.3-0.3,0.5-0.5,0.7-0.6c0.3-0.2,0.6-0.3,0.8-0.4c0.4-0.1,0.7-0.1,0.9,0.1c0.3,0.2,0.4,0.5,0.5,0.8c0.1,0.6,0.1,1.3-0.2,2.1    c-0.3,0.8-0.8,1.5-1.4,2c-0.5,0.4-0.9,0.7-1.4,0.8c-0.4,0.1-0.8,0.1-1.1-0.1c-0.3-0.2-0.5-0.4-0.6-0.8c-0.1-0.4-0.1-0.9,0-1.6    c0.1-0.6,0.2-1.1,0.3-1.6l0.3-1.2c0.1-0.7,0.2-1.1,0.2-1.2c0-0.2,0-0.4,0.1-0.5c0.1-0.1,0.2-0.3,0.5-0.5c0.2-0.2,0.4-0.3,0.5-0.3    c0.1,0,0.2,0,0.2,0.1c0,0,0,0.1-0.1,0.3C121.4,88.7,121.3,89.3,121.2,90"></path>
		<path class="st3" d="M127.5,89.4c-0.4,0.1-0.7,0.4-1.1,1c-0.2,0.3-0.3,0.5-0.3,0.8c0,0.1,0,0.2,0,0.3c0,0.1,0.1,0.1,0.3,0.1    c0.5-0.1,0.8-0.3,1.1-0.5c0.2-0.2,0.4-0.4,0.5-0.7c0.1-0.2,0.1-0.4,0.1-0.6c0-0.1-0.1-0.2-0.2-0.3    C127.8,89.4,127.6,89.4,127.5,89.4 M126.2,92.2c-0.2,0-0.3,0.3-0.2,0.7c0.1,0.3,0.2,0.5,0.4,0.6c0.2,0.1,0.4,0.1,0.7,0    c0.7-0.2,1.4-0.7,1.9-1.5c0.1-0.1,0.2-0.2,0.3-0.2c0.1,0,0.2,0,0.2,0.1c0,0.1,0,0.2-0.1,0.4c-0.2,0.5-0.6,0.9-1,1.3    c-0.5,0.4-1.1,0.7-1.6,0.8c-0.4,0.1-0.8,0.1-1.2-0.1c-0.3-0.2-0.5-0.4-0.6-0.8c-0.1-0.6-0.1-1.4,0.3-2.2c0.3-0.7,0.7-1.2,1.2-1.7    c0.5-0.5,1-0.8,1.6-0.9c0.3-0.1,0.6,0,0.8,0.1c0.2,0.1,0.3,0.3,0.4,0.5c0.1,0.4,0,0.8-0.4,1.4c-0.3,0.4-0.7,0.8-1.2,1.1    c-0.3,0.2-0.7,0.4-1,0.4L126.2,92.2z"></path>
		<path class="st3" d="M135.1,89.4l-0.2,1.1c-0.1,0.5-0.1,0.9-0.1,1.2c0,0.2,0,0.3-0.1,0.4c-0.1,0.2-0.3,0.3-0.5,0.5    c-0.1,0.1-0.2,0.1-0.2,0.1c-0.2,0-0.3-0.1-0.3-0.3c0-0.1,0-0.3,0-0.6c0-0.4,0.1-0.6,0.1-0.8l0.2-0.9c0.1-0.5,0.2-0.8,0.2-1    c0-0.3,0.1-0.5,0-0.6c0-0.1-0.1-0.2-0.3-0.3c-0.1-0.1-0.2-0.1-0.4,0c-0.3,0.1-0.6,0.3-0.9,0.6c-0.5,0.6-1,1.3-1.2,2.3    c-0.1,0.5-0.2,1-0.2,1.3c0,0.2,0,0.3,0,0.4c0,0.1-0.1,0.1-0.2,0.2c-0.3,0.3-0.6,0.5-0.7,0.5c0,0-0.1,0-0.1,0    c-0.1,0-0.1-0.1-0.2-0.2c-0.1-0.4,0.1-1.4,0.6-3.2l0.2-1c0-0.2,0.1-0.3,0.1-0.4c0-0.2,0.1-0.3,0.1-0.4c0.1-0.1,0.2-0.2,0.5-0.3    c0.2-0.1,0.3-0.2,0.4-0.2c0.2,0,0.3,0,0.3,0.2c0,0.1,0,0.3-0.1,0.5l-0.1,0.4c0,0,0,0,0,0.1c0,0,0,0,0.1,0c0,0,0.1,0,0.1-0.1    c0.3-0.3,0.5-0.6,0.8-0.8c0.4-0.4,0.8-0.6,1.2-0.7c0.3-0.1,0.5,0,0.8,0.1c0.2,0.1,0.3,0.3,0.4,0.6    C135.3,88.3,135.3,88.8,135.1,89.4"></path>
		<path class="st3" d="M141.6,88.3c-0.2,0-0.5,0.1-0.7,0.3c-0.4,0.2-0.7,0.5-0.8,0.8c-0.1,0.3-0.2,0.5-0.1,0.7    c0,0.1,0.1,0.3,0.2,0.3c0.2,0.1,0.3,0.1,0.6,0.1c0.3-0.1,0.6-0.2,0.9-0.4c0.4-0.3,0.7-0.6,0.8-1c0.1-0.2,0.1-0.3,0.1-0.5    c0-0.2-0.1-0.3-0.3-0.3C142.1,88.3,141.9,88.3,141.6,88.3 M142.2,90.4c-0.2,0.2-0.4,0.4-0.6,0.5c-0.4,0.3-0.8,0.5-1.3,0.6    c-0.4,0.1-0.6,0.1-0.9,0c-0.1-0.1-0.3-0.1-0.4-0.3c-0.1-0.1-0.2-0.2-0.2-0.4c-0.1-0.5,0-1,0.4-1.5c0.4-0.5,0.9-1,1.6-1.3    c0.4-0.2,0.7-0.3,1-0.3c0,0,0.1,0,0.1,0c0.2,0,0.3,0,0.4-0.1c0.1,0,0.2-0.1,0.3-0.2c0.1-0.2,0.1-0.3,0.1-0.5    c0-0.2-0.1-0.3-0.3-0.4c-0.2-0.1-0.4-0.1-0.7-0.1c-0.5,0.1-1.1,0.4-1.6,0.8c-0.1,0.1-0.2,0.1-0.2,0.1c-0.1,0-0.2,0-0.2-0.1    c0-0.2,0.1-0.4,0.3-0.6c0.5-0.5,1.2-0.8,2.1-1c0.5-0.1,0.9-0.1,1.1,0c0.1,0.1,0.3,0.2,0.4,0.3c0.1,0.1,0.2,0.3,0.2,0.4    c0.1,0.3,0,0.9-0.2,1.6l-0.5,1.8c0,0.2,0,0.4,0,0.6c0,0.1-0.1,0.2-0.2,0.4c-0.2,0.2-0.3,0.3-0.4,0.3c-0.1,0-0.2,0-0.3-0.1    c-0.1-0.1-0.1-0.2-0.1-0.2C142.2,90.6,142.2,90.5,142.2,90.4"></path>
		<path class="st3" d="M149.8,84.8l-0.4,1.8l-0.1,0.4l-0.1,0.5c-0.1,0.7-0.2,1.1-0.2,1.2c0,0.1,0,0.2,0,0.3c0,0.1-0.1,0.1-0.2,0.2    c-0.3,0.3-0.6,0.5-0.7,0.5c-0.1,0-0.1,0-0.2-0.1c-0.1-0.1-0.1-0.2-0.1-0.3c0-0.2,0.1-1,0.4-2.2c0.1-0.4,0.3-1.1,0.5-2.2l0.5-1.8    c0.1-0.2,0.1-0.4,0.1-0.5c0-0.2,0.1-0.3,0.1-0.3c0,0,0.2-0.1,0.5-0.3c0.2-0.1,0.3-0.2,0.5-0.2c0.1,0,0.2,0,0.3,0.1    c0,0.1,0,0.2-0.1,0.3c-0.1,0.2-0.2,0.5-0.3,0.9C150.1,83.9,149.9,84.4,149.8,84.8"></path>
		<path class="st3" d="M153.2,84.3c-0.3,0.1-0.7,0.3-1,0.7c-0.3,0.4-0.5,0.8-0.7,1.3c-0.1,0.5-0.2,0.9-0.1,1.3    c0,0.2,0.1,0.4,0.3,0.5c0.2,0.1,0.4,0.2,0.6,0.1c0.3-0.1,0.6-0.2,1-0.6c0.4-0.4,0.6-0.8,0.8-1.4c0.1-0.5,0.2-0.8,0.1-1.2    c0-0.3-0.2-0.5-0.3-0.6C153.7,84.3,153.5,84.2,153.2,84.3 M153.7,83.5c0.5-0.1,0.9,0,1.2,0.2c0.2,0.2,0.4,0.5,0.4,0.8    c0.2,0.9-0.1,1.8-0.9,2.9c-0.4,0.5-0.8,0.9-1.2,1.2c-0.4,0.3-0.9,0.5-1.3,0.6c-0.4,0.1-0.8,0-1.1-0.2c-0.3-0.2-0.4-0.4-0.5-0.8    c-0.1-0.5,0-1.1,0.2-1.8c0.3-0.7,0.7-1.3,1.2-1.8C152.4,83.9,153,83.6,153.7,83.5"></path>
		<path class="st3" d="M162,82.9c-0.3,0-0.6,0.2-0.9,0.4c-0.4,0.3-0.6,0.7-0.8,1.2c-0.2,0.5-0.3,1-0.2,1.5c0,0.2,0.1,0.4,0.2,0.5    c0.2,0.2,0.4,0.2,0.7,0.2c0.6-0.1,1.1-0.5,1.5-1.3c0.1-0.3,0.3-0.7,0.3-1c0.1-0.3,0.1-0.6,0.1-0.8c0-0.2-0.1-0.3-0.2-0.4    C162.4,82.9,162.2,82.9,162,82.9 M163.4,82.3c0.4-0.2,0.7-0.4,0.8-0.4c0.1,0,0.1,0,0.2,0c0,0,0.1,0.1,0.1,0.1c0,0.1,0,0.1,0,0.2    c-0.5,1.2-1,2.9-1.6,5.1c-0.2,0.9-0.4,1.6-0.4,2c0,0.1,0,0.2-0.1,0.3c-0.1,0.1-0.2,0.2-0.5,0.4c-0.2,0.1-0.3,0.2-0.3,0.2    c-0.1,0-0.1,0-0.1,0c-0.1-0.1-0.1-0.2-0.2-0.3c0-0.1,0-0.4,0.1-0.7c0.1-0.7,0.3-1.3,0.5-1.8l0.1-0.3l0-0.1c0,0,0-0.1,0-0.1    c0,0,0,0-0.1,0c0,0-0.1,0-0.2,0.1c-0.4,0.3-0.8,0.5-1.2,0.6c-0.4,0.1-0.7,0-0.9-0.2c-0.3-0.2-0.4-0.5-0.5-0.9    c-0.1-0.7,0.1-1.5,0.5-2.2c0.4-0.7,0.9-1.3,1.6-1.7c0.5-0.3,0.9-0.5,1.4-0.6c0.2,0,0.5,0,0.6,0.1    C163.1,82.1,163.2,82.2,163.4,82.3"></path>
		<path class="st3" d="M170,81.7l-0.8,2.4c-0.2,0.6-0.3,1-0.2,1.3c0,0.1,0,0.2,0.1,0.3c0,0.1,0,0.1,0,0.1c0,0.1-0.1,0.3-0.3,0.4    c-0.2,0.2-0.4,0.3-0.5,0.3c-0.1,0-0.2,0-0.3-0.2c-0.1-0.1-0.1-0.2-0.1-0.4c0,0,0-0.1,0-0.1c0,0,0-0.1,0-0.1c0-0.1,0-0.1-0.1-0.1    c0,0-0.1,0-0.1,0.1c-0.1,0.2-0.3,0.3-0.5,0.5c-0.4,0.3-0.8,0.5-1.1,0.6c-0.4,0.1-0.7,0-0.9-0.2c-0.2-0.2-0.3-0.4-0.3-0.7    c0-0.3,0-0.5,0.1-0.9c0.1-0.5,0.2-0.9,0.3-1.1l0.4-1.1c0.1-0.3,0.1-0.5,0.2-0.7c0-0.1,0-0.2,0.1-0.2c0.1-0.1,0.3-0.2,0.4-0.3    c0.2-0.1,0.3-0.1,0.4-0.1c0.2,0,0.3,0.1,0.3,0.2c0,0.1,0,0.2-0.1,0.4l-0.2,0.6l-0.2,0.5c-0.4,1.1-0.5,1.8-0.5,2    c0,0.1,0.1,0.2,0.2,0.3c0.1,0.1,0.2,0.1,0.4,0.1c0.2,0,0.4-0.1,0.7-0.3c0.4-0.3,0.8-0.9,1.1-1.8c0.3-0.8,0.5-1.4,0.6-2    c0-0.1,0.1-0.2,0.1-0.2c0.3-0.2,0.6-0.4,0.9-0.4c0.1,0,0.2,0,0.2,0.2C170.1,81.3,170.1,81.5,170,81.7"></path>
		<path class="st3" d="M173.3,81.2c-0.4,0-0.8,0.3-1.1,0.9c-0.2,0.3-0.3,0.5-0.4,0.8c0,0.1-0.1,0.2-0.1,0.3c0,0.1,0.1,0.1,0.3,0.1    c0.5-0.1,0.9-0.2,1.2-0.4c0.3-0.2,0.4-0.4,0.6-0.6c0.1-0.2,0.2-0.4,0.1-0.6c0-0.1-0.1-0.2-0.2-0.3    C173.6,81.2,173.5,81.2,173.3,81.2 M171.8,83.8c-0.2,0-0.3,0.2-0.2,0.6c0,0.3,0.2,0.5,0.4,0.6c0.2,0.1,0.4,0.1,0.6,0.1    c0.7-0.1,1.4-0.5,2.1-1.3c0.1-0.1,0.2-0.2,0.3-0.2c0.1,0,0.2,0,0.2,0.1c0,0.1,0,0.2-0.1,0.4c-0.3,0.5-0.6,0.8-1.1,1.2    c-0.6,0.4-1.1,0.6-1.7,0.6c-0.4,0.1-0.8,0-1.2-0.2c-0.3-0.2-0.5-0.5-0.5-0.9c-0.1-0.7,0.1-1.4,0.5-2.1c0.3-0.6,0.8-1.2,1.3-1.6    c0.6-0.4,1.1-0.7,1.7-0.8c0.3,0,0.6,0,0.8,0.1c0.2,0.1,0.3,0.3,0.3,0.5c0.1,0.4-0.1,0.8-0.5,1.3c-0.3,0.4-0.8,0.8-1.3,1    c-0.4,0.2-0.7,0.3-1,0.3L171.8,83.8z"></path>
		<path class="st3" d="M181.9,80.3c-0.3,0-0.7,0.2-1,0.5c-0.4,0.4-0.8,0.9-1,1.5c-0.1,0.4-0.2,0.8-0.2,1.1c0,0.2,0.1,0.4,0.2,0.5    c0.2,0.1,0.3,0.2,0.6,0.2c0.4,0,0.8-0.2,1.1-0.5c0.4-0.3,0.7-0.8,1-1.4c0.2-0.5,0.2-0.8,0.2-1.2C182.8,80.4,182.5,80.2,181.9,80.3     M184.1,77.5c0.4-0.3,0.7-0.4,1-0.4c0.2,0,0.2,0,0.3,0.2c0,0.1,0,0.2-0.1,0.3c-0.2,0.3-0.4,1-0.8,2l-0.7,2c-0.4,1.1-0.5,1.8-0.5,2    c0,0,0,0.1,0,0.1c0,0.1,0,0.1,0,0.1c0,0.1-0.1,0.3-0.5,0.6c-0.2,0.2-0.4,0.3-0.5,0.3c-0.1,0-0.2,0-0.3-0.2    c-0.1-0.1-0.1-0.2-0.1-0.3l0-0.1c0,0,0,0,0,0l0,0c0,0,0,0-0.1,0.1c-0.1,0.1-0.3,0.3-0.4,0.4c-0.4,0.3-0.9,0.5-1.3,0.5    c-0.4,0-0.7,0-1-0.3c-0.2-0.2-0.4-0.5-0.4-0.9c-0.1-0.7,0.2-1.5,0.7-2.4c0.5-0.7,1-1.2,1.6-1.6c0.5-0.3,0.9-0.4,1.3-0.5    c0.4,0,0.7,0,0.9,0.3c0,0,0.1,0.1,0.1,0.1c0,0,0.1,0,0.1-0.1L184.1,77.5z"></path>
		<path class="st3" d="M187.8,79.6c-0.4,0-0.8,0.3-1.2,0.8c-0.2,0.3-0.3,0.5-0.5,0.8c-0.1,0.1-0.1,0.2-0.1,0.3    c0,0.1,0.1,0.1,0.3,0.1c0.5,0,0.9-0.2,1.2-0.4c0.3-0.2,0.5-0.4,0.6-0.6c0.1-0.2,0.2-0.4,0.2-0.6c0-0.1-0.1-0.2-0.2-0.3    C188.1,79.7,188,79.6,187.8,79.6 M186.1,82.2c-0.2,0-0.3,0.2-0.3,0.6c0,0.3,0.1,0.5,0.4,0.6c0.2,0.1,0.4,0.2,0.6,0.1    c0.7-0.1,1.4-0.5,2.1-1.2c0.1-0.1,0.2-0.2,0.3-0.2c0.1,0,0.2,0,0.2,0.1c0,0.1,0,0.2-0.2,0.4c-0.3,0.4-0.7,0.8-1.2,1.1    c-0.6,0.3-1.1,0.5-1.7,0.6c-0.4,0-0.8-0.1-1.2-0.3c-0.3-0.2-0.4-0.5-0.5-0.9c-0.1-0.7,0.1-1.4,0.6-2.1c0.4-0.6,0.8-1.1,1.4-1.5    c0.6-0.4,1.1-0.6,1.7-0.7c0.3,0,0.6,0,0.8,0.2c0.2,0.1,0.3,0.3,0.3,0.5c0,0.4-0.2,0.8-0.6,1.3c-0.4,0.4-0.8,0.7-1.4,1    c-0.4,0.2-0.7,0.3-1,0.3L186.1,82.2z"></path>
		<path class="st3" d="M193.4,79.4c-0.3,0-0.6,0.2-1,0.4c-0.4,0.3-0.7,0.7-0.9,1.2c-0.2,0.5-0.3,1-0.3,1.3c0,0.2,0.1,0.4,0.2,0.5    c0.1,0.2,0.3,0.2,0.6,0.2c0.4,0,0.7-0.2,1.1-0.5c0.4-0.3,0.7-0.7,0.9-1.2c0.2-0.4,0.3-0.7,0.2-1.1    C194.2,79.7,193.9,79.4,193.4,79.4 M192.4,78.4l-0.2,0.7c0,0.1,0,0.1,0,0.1c0,0,0,0,0,0c0,0,0.1,0,0.2-0.1    c0.3-0.2,0.6-0.4,0.8-0.4c0.3-0.1,0.6-0.2,0.9-0.2c0.4,0,0.7,0.1,0.9,0.3c0.2,0.2,0.4,0.5,0.4,0.9c0,0.6-0.1,1.3-0.5,2    c-0.4,0.7-1,1.3-1.7,1.8c-0.5,0.3-1,0.5-1.5,0.5c-0.5,0-0.8-0.1-1.1-0.3c-0.3-0.2-0.4-0.5-0.4-0.8c0-0.4,0.1-0.9,0.3-1.6    c0.2-0.5,0.3-1.1,0.5-1.6l0.5-1.1c0.2-0.6,0.4-1,0.4-1.2c0-0.2,0.1-0.4,0.2-0.4c0.1-0.1,0.3-0.2,0.6-0.4c0.3-0.2,0.5-0.2,0.6-0.3    c0.1,0,0.2,0,0.2,0.1c0,0,0,0.1-0.1,0.3C192.8,77.2,192.6,77.7,192.4,78.4"></path>
		<path class="st3" d="M198.7,78.9c-0.4,0-0.8,0.3-1.2,0.8c-0.2,0.2-0.4,0.5-0.5,0.7c-0.1,0.1-0.1,0.2-0.1,0.3    c0,0.1,0.1,0.1,0.3,0.1c0.5,0,0.9-0.1,1.2-0.3c0.3-0.1,0.5-0.3,0.6-0.6c0.1-0.2,0.2-0.4,0.2-0.6c0-0.1-0.1-0.2-0.1-0.3    C199,78.9,198.9,78.9,198.7,78.9 M197,81.4c-0.2,0-0.3,0.2-0.3,0.6c0,0.3,0.1,0.5,0.3,0.6c0.2,0.1,0.4,0.2,0.6,0.2    c0.7,0,1.4-0.4,2.2-1.1c0.1-0.1,0.2-0.2,0.3-0.2c0.1,0,0.1,0,0.2,0.1c0,0.1-0.1,0.2-0.2,0.4c-0.3,0.4-0.7,0.8-1.2,1.1    c-0.6,0.3-1.2,0.5-1.7,0.5c-0.4,0-0.8-0.1-1.1-0.3c-0.3-0.2-0.4-0.5-0.5-0.9c0-0.7,0.2-1.4,0.6-2.1c0.4-0.6,0.9-1.1,1.4-1.5    c0.6-0.4,1.2-0.6,1.7-0.6c0.3,0,0.6,0.1,0.8,0.2c0.2,0.1,0.3,0.3,0.3,0.5c0,0.4-0.2,0.8-0.6,1.3c-0.4,0.4-0.8,0.7-1.4,0.9    c-0.4,0.2-0.7,0.2-1,0.3L197,81.4z"></path>
		<path class="st3" d="M206.3,80.2l-0.4,1c-0.2,0.5-0.3,0.9-0.4,1.2c0,0.2-0.1,0.3-0.2,0.4c-0.2,0.1-0.4,0.3-0.6,0.4    c-0.1,0.1-0.2,0.1-0.2,0.1c-0.2,0-0.3-0.1-0.3-0.3c0-0.1,0-0.3,0.1-0.5c0.1-0.3,0.2-0.6,0.3-0.8l0.4-0.9c0.2-0.5,0.3-0.8,0.4-0.9    c0.1-0.3,0.1-0.5,0.1-0.6c0-0.1-0.1-0.3-0.2-0.4c-0.1-0.1-0.2-0.1-0.4-0.1c-0.3,0-0.6,0.2-1,0.4c-0.6,0.4-1.2,1.1-1.6,2    c-0.2,0.5-0.4,0.9-0.5,1.3c0,0.2-0.1,0.3-0.1,0.3c0,0.1-0.1,0.1-0.2,0.2c-0.4,0.3-0.7,0.4-0.8,0.4c0,0-0.1,0-0.1,0    c-0.1-0.1-0.1-0.1-0.1-0.2c0-0.4,0.4-1.4,1.1-3.1l0.4-0.9c0.1-0.2,0.1-0.3,0.2-0.4c0.1-0.2,0.1-0.3,0.2-0.3    c0.1-0.1,0.2-0.2,0.5-0.3c0.2-0.1,0.3-0.1,0.4-0.1c0.2,0,0.3,0.1,0.3,0.2c0,0.1,0,0.2-0.1,0.5l-0.2,0.3c0,0,0,0,0,0.1c0,0,0,0,0,0    c0,0,0.1,0,0.1-0.1c0.3-0.3,0.6-0.5,1-0.7c0.5-0.3,0.9-0.4,1.3-0.4c0.3,0,0.5,0.1,0.7,0.2c0.2,0.2,0.3,0.4,0.3,0.7    C206.6,79.2,206.5,79.6,206.3,80.2"></path>
		<path class="st3" d="M212.5,79.8l0.8,0.2c0.3,0.1,0.6,0.2,0.8,0.3c0.3,0.2,0.4,0.4,0.4,0.6c0,0.5-0.4,1-1.1,1.5    c-0.7,0.5-1.4,0.7-2.2,0.7c-0.4,0-0.7-0.1-0.9-0.2c-0.1-0.1-0.2-0.1-0.3-0.3c-0.1-0.1-0.2-0.2-0.2-0.4c0-0.2,0.1-0.4,0.3-0.6    c0.2-0.2,0.3-0.2,0.4-0.2c0.1,0,0.1,0,0.1,0.1c0,0,0,0,0,0.1v0c0,0.1,0,0.2,0.1,0.2c0.2,0.2,0.5,0.3,0.9,0.3    c0.3,0,0.6-0.1,0.9-0.2c0.2-0.1,0.4-0.2,0.5-0.3c0.1-0.1,0.2-0.3,0.2-0.4c0-0.2-0.2-0.3-0.6-0.4l-0.5-0.1    c-0.5-0.1-0.9-0.3-1.1-0.4c-0.2-0.2-0.3-0.3-0.3-0.5c0-0.3,0.2-0.6,0.5-0.9c0.4-0.4,0.8-0.7,1.4-0.9c0.5-0.2,1.1-0.4,1.6-0.4    c0.3,0,0.5,0.1,0.7,0.2c0.2,0.1,0.3,0.3,0.3,0.5c0,0.2-0.1,0.3-0.3,0.5c-0.2,0.2-0.4,0.3-0.6,0.3c-0.1,0-0.1-0.1-0.1-0.2    c0-0.3-0.3-0.5-0.7-0.5c-0.3,0-0.7,0.1-1,0.3c-0.4,0.2-0.6,0.4-0.6,0.6C212,79.5,212.1,79.7,212.5,79.8"></path>
		<path class="st3" d="M217.7,80.4c-0.2,0-0.5,0-0.8,0.1c-0.4,0.1-0.8,0.4-1,0.6c-0.2,0.2-0.3,0.4-0.3,0.7c0,0.1,0,0.3,0.1,0.4    c0.1,0.1,0.3,0.2,0.6,0.2c0.3,0,0.6-0.1,1-0.2c0.5-0.2,0.8-0.5,1-0.8c0.1-0.2,0.2-0.3,0.2-0.5c0-0.2-0.1-0.3-0.2-0.4    C218.2,80.5,218,80.4,217.7,80.4 M217.8,82.5c-0.3,0.2-0.5,0.3-0.7,0.4c-0.4,0.2-0.9,0.3-1.4,0.3c-0.4,0-0.6-0.1-0.8-0.2    c-0.1-0.1-0.2-0.2-0.3-0.3c-0.1-0.1-0.1-0.3-0.1-0.4c0-0.5,0.2-0.9,0.7-1.4c0.5-0.5,1.1-0.8,1.9-0.9c0.4-0.1,0.7-0.1,1.1-0.1    c0,0,0.1,0,0.1,0c0.2,0,0.3,0,0.4,0c0.1,0,0.3,0,0.4-0.1c0.1-0.1,0.2-0.3,0.2-0.5c0-0.2-0.1-0.3-0.2-0.4c-0.2-0.1-0.4-0.2-0.7-0.2    c-0.5,0-1.1,0.1-1.8,0.5c-0.1,0.1-0.2,0.1-0.3,0.1c-0.1,0-0.2-0.1-0.2-0.2c0-0.2,0.1-0.3,0.4-0.5c0.6-0.4,1.3-0.6,2.2-0.6    c0.5,0,0.9,0.1,1.1,0.3c0.1,0.1,0.2,0.2,0.3,0.4c0.1,0.1,0.1,0.3,0.1,0.4c0,0.3-0.2,0.8-0.5,1.5l-0.8,1.6    c-0.1,0.2-0.1,0.4-0.1,0.6c0,0.1-0.1,0.2-0.3,0.3c-0.2,0.2-0.4,0.2-0.5,0.2c-0.1,0-0.2-0.1-0.3-0.2c0-0.1-0.1-0.2-0.1-0.3    C217.8,82.7,217.8,82.6,217.8,82.5"></path>
		<path class="st3" d="M224.3,79c-0.3,0-0.7,0.1-1,0.3c-0.4,0.2-0.7,0.6-1,1.1c-0.3,0.5-0.4,0.9-0.5,1.3c0,0.2,0,0.4,0.1,0.5    c0.1,0.2,0.3,0.3,0.6,0.3c0.4,0,0.8-0.1,1.2-0.3c0.4-0.3,0.8-0.6,1.1-1.1c0.2-0.4,0.3-0.7,0.4-1C225.1,79.3,224.9,79,224.3,79     M223.4,77.9l-0.3,0.7c0,0.1,0,0.1,0,0.1c0,0,0,0,0,0.1c0,0,0.1,0,0.2-0.1c0.4-0.2,0.6-0.3,0.8-0.3c0.3-0.1,0.6-0.1,0.9-0.1    c0.4,0,0.7,0.1,0.9,0.4c0.2,0.2,0.3,0.6,0.3,1c0,0.6-0.3,1.3-0.8,1.9c-0.5,0.7-1.1,1.2-1.9,1.5c-0.6,0.3-1.1,0.4-1.6,0.4    c-0.5,0-0.8-0.2-1-0.4c-0.2-0.2-0.3-0.5-0.3-0.9c0-0.4,0.2-0.9,0.4-1.5c0.2-0.5,0.5-1,0.7-1.5l0.6-1.1c0.3-0.6,0.5-1,0.5-1.1    c0.1-0.2,0.1-0.3,0.2-0.4c0.1-0.1,0.3-0.2,0.6-0.3c0.3-0.1,0.5-0.2,0.6-0.2c0.1,0,0.2,0.1,0.2,0.1c0,0-0.1,0.1-0.2,0.3    C224,76.7,223.7,77.2,223.4,77.9"></path>
		<path class="st3" d="M229.7,79.1c-0.4,0-0.8,0.2-1.3,0.6c-0.2,0.2-0.4,0.4-0.6,0.7c-0.1,0.1-0.1,0.2-0.1,0.2    c0,0.1,0.1,0.1,0.3,0.2c0.5,0,0.9,0,1.2-0.2c0.3-0.1,0.5-0.3,0.7-0.5c0.2-0.2,0.2-0.4,0.3-0.5c0-0.1,0-0.2-0.1-0.3    C230,79.2,229.9,79.1,229.7,79.1 M227.7,81.3c-0.2,0-0.3,0.2-0.4,0.6c0,0.3,0.1,0.5,0.2,0.7c0.1,0.1,0.3,0.2,0.6,0.2    c0.7,0.1,1.5-0.2,2.3-0.8c0.1-0.1,0.2-0.2,0.3-0.1c0.1,0,0.1,0.1,0.1,0.1c0,0.1-0.1,0.2-0.2,0.4c-0.3,0.4-0.8,0.7-1.4,0.9    c-0.6,0.2-1.2,0.3-1.8,0.3c-0.4,0-0.8-0.2-1.1-0.5c-0.3-0.2-0.4-0.6-0.3-1c0-0.7,0.4-1.3,0.9-2c0.5-0.6,1-1,1.6-1.3    c0.6-0.3,1.2-0.4,1.8-0.4c0.3,0,0.6,0.1,0.7,0.3c0.2,0.2,0.2,0.3,0.2,0.6c0,0.4-0.3,0.8-0.8,1.2c-0.4,0.3-0.9,0.6-1.5,0.7    c-0.4,0.1-0.7,0.1-1.1,0.1L227.7,81.3z"></path>
		<path class="st3" d="M231.6,81.9l1.4-2.4c0.2-0.3,0.3-0.5,0.3-0.5c0,0,0.2-0.1,0.4-0.2c0.2-0.1,0.4-0.1,0.6-0.1    c0.1,0,0.2,0.1,0.2,0.2c0,0.1-0.1,0.2-0.2,0.3c-0.1,0.1-0.1,0.2-0.1,0.2c0,0,0,0.1,0.1,0.1c0,0,0.1,0,0.3-0.1    c0.6-0.4,1.2-0.5,1.6-0.5c0.2,0,0.4,0.1,0.6,0.2c0.1,0.1,0.1,0.1,0.1,0.2c0,0.1-0.1,0.2-0.4,0.4c-0.3,0.2-0.5,0.3-0.6,0.2    c0,0-0.1,0-0.2-0.1c-0.1-0.1-0.2-0.1-0.4-0.2c-0.3,0-0.5,0.1-0.9,0.2c-0.5,0.3-1,1-1.7,2.1c-0.2,0.4-0.4,0.8-0.5,1.1    c0,0.1-0.1,0.2-0.2,0.2c-0.1,0.1-0.3,0.2-0.5,0.3c-0.1,0.1-0.3,0.1-0.4,0.1c-0.2,0-0.2-0.1-0.2-0.3    C230.9,83.2,231.2,82.7,231.6,81.9"></path>
		<path class="st4" d="M110.6,93.2l1.6-0.1c0.5,0,1,0,1.2,0.1c0.3,0.1,0.5,0.3,0.5,0.6c0.2,0.6-0.2,1.4-1.1,2.3    c-0.9,1-1.9,1.6-2.9,1.9c-0.6,0.2-1,0.2-1.4,0c-0.3-0.1-0.5-0.3-0.5-0.6c-0.1-0.3-0.1-0.7,0.1-1c0.1-0.3,0.3-0.4,0.5-0.5    c0.1,0,0.2,0,0.2,0.1c0,0,0,0.1,0,0.1c0,0.1,0,0.2,0,0.3c0.1,0.2,0.2,0.4,0.4,0.5c0.2,0.1,0.6,0.1,1,0c0.6-0.2,1.1-0.4,1.7-0.8    c0.5-0.3,0.8-0.6,0.9-1c0.1-0.2,0.1-0.4,0.1-0.5c-0.1-0.3-0.3-0.4-0.8-0.4l-1.8,0.1c-0.5,0-0.8,0-1,0c-0.5-0.1-0.8-0.4-0.9-0.8    c-0.2-0.7,0.2-1.4,1-2.3c0.8-0.8,1.7-1.3,2.7-1.6c1-0.3,1.5-0.1,1.7,0.5c0.1,0.3,0,0.7-0.3,1c-0.2,0.3-0.4,0.5-0.6,0.5    c-0.1,0-0.1,0-0.2-0.1c0,0,0-0.1,0-0.2c0-0.2,0-0.3,0-0.5c-0.1-0.4-0.5-0.5-1.1-0.3c-0.6,0.2-1.1,0.5-1.5,0.9    c-0.4,0.4-0.5,0.7-0.4,1.1c0.1,0.2,0.2,0.3,0.3,0.4C110,93.2,110.2,93.2,110.6,93.2"></path>
		<path class="st4" d="M117,93.5c-0.2,0.1-0.5,0.2-0.7,0.3c-0.4,0.2-0.6,0.5-0.8,0.9c-0.1,0.3-0.1,0.5-0.1,0.7    c0,0.1,0.1,0.3,0.2,0.3c0.2,0.1,0.4,0.1,0.6,0.1c0.3-0.1,0.6-0.2,0.9-0.5c0.4-0.3,0.6-0.6,0.8-1c0.1-0.2,0.1-0.3,0-0.5    c0-0.2-0.1-0.3-0.3-0.3C117.4,93.4,117.2,93.4,117,93.5 M117.6,95.5c-0.2,0.2-0.4,0.4-0.5,0.5c-0.4,0.3-0.8,0.5-1.3,0.6    c-0.3,0.1-0.6,0.1-0.9,0c-0.1,0-0.3-0.1-0.4-0.3c-0.1-0.1-0.2-0.2-0.2-0.4c-0.1-0.5,0-1,0.3-1.5c0.3-0.6,0.9-1,1.6-1.4    c0.3-0.2,0.7-0.3,1-0.4c0,0,0.1,0,0.1,0c0.2,0,0.3-0.1,0.4-0.1c0.1,0,0.2-0.1,0.3-0.2c0.1-0.2,0.1-0.3,0.1-0.5    c0-0.2-0.1-0.3-0.3-0.4c-0.2-0.1-0.4-0.1-0.7,0c-0.5,0.1-1.1,0.4-1.6,0.9c-0.1,0.1-0.2,0.1-0.2,0.1c-0.1,0-0.2,0-0.2-0.1    c0-0.2,0.1-0.4,0.3-0.6c0.5-0.5,1.1-0.9,2-1.1c0.5-0.1,0.8-0.1,1.1,0c0.1,0,0.3,0.1,0.4,0.3c0.1,0.1,0.2,0.3,0.2,0.4    c0.1,0.3,0,0.9-0.1,1.6l-0.4,1.8c0,0.2,0,0.4,0,0.6c0,0.1-0.1,0.2-0.2,0.4c-0.2,0.2-0.3,0.3-0.4,0.4c-0.1,0-0.2,0-0.3-0.1    c-0.1-0.1-0.1-0.1-0.1-0.2C117.6,95.6,117.6,95.6,117.6,95.5"></path>
		<path class="st4" d="M122.9,90.3c-0.3,0.1-0.6,0.3-0.9,0.6c-0.3,0.3-0.5,0.8-0.7,1.3c-0.1,0.6-0.2,1-0.1,1.4    c0,0.2,0.1,0.3,0.3,0.4c0.2,0.1,0.4,0.2,0.6,0.1c0.4-0.1,0.7-0.3,1-0.7c0.3-0.4,0.6-0.8,0.7-1.3c0.1-0.4,0.1-0.8,0-1.1    C123.8,90.4,123.4,90.1,122.9,90.3 M121.7,89.4l-0.1,0.7c0,0.1,0,0.1,0,0.1c0,0,0,0,0.1,0c0,0,0.1-0.1,0.2-0.2    c0.3-0.3,0.5-0.4,0.7-0.6c0.3-0.2,0.6-0.3,0.8-0.4c0.4-0.1,0.7-0.1,0.9,0.1c0.3,0.2,0.4,0.5,0.5,0.8c0.1,0.6,0.1,1.3-0.2,2.1    c-0.3,0.8-0.8,1.5-1.4,2c-0.5,0.4-0.9,0.7-1.4,0.8c-0.4,0.1-0.8,0.1-1.1-0.1c-0.3-0.2-0.5-0.4-0.6-0.8c-0.1-0.4-0.1-0.9,0-1.6    c0.1-0.6,0.2-1.1,0.3-1.6l0.3-1.2c0.1-0.6,0.2-1.1,0.2-1.2c0-0.2,0-0.4,0.1-0.5c0.1-0.1,0.2-0.3,0.5-0.5c0.2-0.2,0.4-0.3,0.5-0.3    c0.1,0,0.2,0,0.2,0.1c0,0,0,0.1-0.1,0.3C122,88.1,121.8,88.7,121.7,89.4"></path>
		<path class="st4" d="M128.1,88.9c-0.4,0.1-0.7,0.4-1.1,1c-0.2,0.3-0.3,0.5-0.3,0.8c0,0.1,0,0.2,0,0.3c0,0.1,0.1,0.1,0.3,0.1    c0.5-0.1,0.8-0.3,1.1-0.5c0.2-0.2,0.4-0.4,0.5-0.7c0.1-0.2,0.1-0.4,0.1-0.6c0-0.1-0.1-0.2-0.2-0.3    C128.4,88.8,128.2,88.8,128.1,88.9 M126.8,91.6c-0.2,0-0.3,0.3-0.2,0.7c0.1,0.3,0.2,0.5,0.4,0.6c0.2,0.1,0.4,0.1,0.7,0    c0.7-0.2,1.4-0.7,1.9-1.5c0.1-0.1,0.2-0.2,0.3-0.2c0.1,0,0.2,0,0.2,0.1c0,0.1,0,0.2-0.1,0.4c-0.2,0.5-0.6,0.9-1,1.3    c-0.5,0.4-1.1,0.7-1.6,0.8c-0.4,0.1-0.8,0.1-1.2-0.1c-0.3-0.2-0.5-0.4-0.6-0.8c-0.1-0.6-0.1-1.4,0.3-2.2c0.3-0.7,0.7-1.2,1.2-1.7    c0.5-0.5,1-0.8,1.6-0.9c0.3-0.1,0.6,0,0.8,0.1c0.2,0.1,0.3,0.3,0.4,0.5c0.1,0.4,0,0.8-0.4,1.4c-0.3,0.4-0.7,0.8-1.2,1.1    c-0.3,0.2-0.7,0.4-1,0.4L126.8,91.6z"></path>
		<path class="st4" d="M135.7,88.8l-0.2,1.1c-0.1,0.5-0.1,0.9-0.1,1.2c0,0.2,0,0.3-0.1,0.4c-0.1,0.2-0.3,0.3-0.5,0.5    c-0.1,0.1-0.2,0.1-0.2,0.1c-0.2,0-0.3-0.1-0.3-0.3c0-0.1,0-0.3,0-0.6c0-0.4,0.1-0.6,0.1-0.8l0.2-0.9c0.1-0.5,0.2-0.8,0.2-1    c0-0.3,0.1-0.5,0-0.6c0-0.1-0.1-0.2-0.3-0.3c-0.1-0.1-0.2-0.1-0.4,0c-0.3,0.1-0.6,0.3-0.9,0.6c-0.5,0.6-1,1.3-1.2,2.3    c-0.1,0.5-0.2,1-0.2,1.3c0,0.2,0,0.3,0,0.4c0,0.1-0.1,0.1-0.2,0.2c-0.3,0.3-0.6,0.5-0.7,0.5c0,0-0.1,0-0.1,0    c-0.1,0-0.1-0.1-0.2-0.2c-0.1-0.4,0.1-1.4,0.6-3.2l0.2-0.9c0-0.2,0.1-0.3,0.1-0.4c0-0.2,0.1-0.3,0.1-0.4c0.1-0.1,0.2-0.2,0.5-0.3    c0.2-0.1,0.3-0.2,0.4-0.2c0.2,0,0.3,0,0.3,0.2c0,0.1,0,0.3-0.1,0.5l-0.1,0.4c0,0,0,0,0,0.1c0,0,0,0,0.1,0c0,0,0.1,0,0.1-0.1    c0.3-0.3,0.5-0.6,0.8-0.8c0.4-0.4,0.8-0.6,1.2-0.7c0.3-0.1,0.5,0,0.8,0.1c0.2,0.1,0.3,0.3,0.4,0.6    C135.9,87.8,135.9,88.2,135.7,88.8"></path>
		<path class="st4" d="M142.2,87.8c-0.2,0-0.5,0.1-0.7,0.3c-0.4,0.2-0.7,0.5-0.8,0.8c-0.1,0.3-0.2,0.5-0.1,0.7    c0,0.1,0.1,0.3,0.2,0.3c0.2,0.1,0.3,0.1,0.6,0.1c0.3-0.1,0.6-0.2,0.9-0.4c0.4-0.3,0.7-0.6,0.8-1c0.1-0.2,0.1-0.3,0.1-0.5    c0-0.2-0.1-0.3-0.3-0.3C142.7,87.7,142.5,87.7,142.2,87.8 M142.7,89.8c-0.2,0.2-0.4,0.4-0.6,0.5c-0.4,0.3-0.8,0.5-1.3,0.6    c-0.4,0.1-0.6,0.1-0.9,0c-0.1-0.1-0.3-0.1-0.4-0.3c-0.1-0.1-0.2-0.2-0.2-0.4c-0.1-0.5,0-1,0.4-1.5c0.4-0.5,0.9-1,1.6-1.3    c0.4-0.2,0.7-0.3,1-0.3c0,0,0.1,0,0.1,0c0.2,0,0.3-0.1,0.4-0.1c0.1,0,0.2-0.1,0.3-0.2c0.1-0.2,0.1-0.3,0.1-0.5    c0-0.2-0.1-0.3-0.3-0.4c-0.2-0.1-0.4-0.1-0.7-0.1c-0.5,0.1-1.1,0.4-1.6,0.8c-0.1,0.1-0.2,0.1-0.2,0.1c-0.1,0-0.2,0-0.2-0.1    c0-0.2,0.1-0.4,0.3-0.6c0.5-0.5,1.2-0.8,2.1-1c0.5-0.1,0.9-0.1,1.1,0c0.1,0.1,0.3,0.1,0.4,0.3c0.1,0.1,0.2,0.3,0.2,0.4    c0.1,0.3,0,0.9-0.2,1.6l-0.5,1.8c0,0.2,0,0.4,0,0.6c0,0.1-0.1,0.2-0.2,0.4c-0.2,0.2-0.3,0.3-0.4,0.3c-0.1,0-0.2,0-0.3-0.1    c-0.1-0.1-0.1-0.2-0.1-0.2C142.8,90,142.7,89.9,142.7,89.8"></path>
		<path class="st4" d="M150.4,84.2L150,86l-0.1,0.4l-0.1,0.5c-0.1,0.7-0.2,1.1-0.2,1.2c0,0.1,0,0.2,0,0.3c0,0.1-0.1,0.1-0.2,0.2    c-0.3,0.3-0.6,0.5-0.7,0.5c-0.1,0-0.1,0-0.2-0.1c-0.1-0.1-0.1-0.2-0.1-0.3c0-0.2,0.1-1,0.4-2.2c0.1-0.4,0.3-1.1,0.5-2.2l0.5-1.8    c0.1-0.2,0.1-0.4,0.1-0.5c0-0.2,0.1-0.3,0.1-0.3c0,0,0.2-0.1,0.5-0.3c0.2-0.1,0.3-0.2,0.5-0.2c0.1,0,0.2,0,0.3,0.1    c0,0.1,0,0.2-0.1,0.3c-0.1,0.2-0.2,0.5-0.3,0.9C150.7,83.3,150.5,83.8,150.4,84.2"></path>
		<path class="st4" d="M153.8,83.7c-0.3,0.1-0.7,0.3-1,0.7c-0.3,0.4-0.5,0.8-0.7,1.3c-0.1,0.5-0.2,0.9-0.1,1.3    c0,0.2,0.1,0.4,0.3,0.5c0.2,0.1,0.4,0.2,0.6,0.1c0.3-0.1,0.6-0.2,1-0.6c0.4-0.4,0.7-0.8,0.8-1.4c0.1-0.5,0.2-0.8,0.1-1.2    c0-0.3-0.2-0.5-0.3-0.6C154.3,83.7,154.1,83.6,153.8,83.7 M154.2,82.8c0.5-0.1,0.9,0,1.2,0.3c0.2,0.2,0.4,0.5,0.4,0.8    c0.2,0.9-0.1,1.8-0.9,2.9c-0.4,0.5-0.8,0.9-1.2,1.2c-0.4,0.3-0.9,0.5-1.3,0.6c-0.4,0.1-0.8,0-1.1-0.2c-0.2-0.2-0.4-0.4-0.5-0.8    c-0.1-0.5,0-1.1,0.2-1.8c0.3-0.7,0.7-1.3,1.2-1.8C153,83.3,153.6,83,154.2,82.8"></path>
		<path class="st4" d="M162.6,82.3c-0.3,0-0.6,0.2-0.9,0.4c-0.4,0.3-0.6,0.7-0.8,1.2c-0.2,0.5-0.3,1-0.2,1.5c0,0.2,0.1,0.4,0.2,0.5    c0.2,0.2,0.4,0.2,0.7,0.2c0.6-0.1,1.1-0.5,1.5-1.3c0.1-0.3,0.3-0.7,0.3-1c0.1-0.3,0.1-0.6,0.1-0.8c0-0.2-0.1-0.3-0.2-0.4    C163,82.4,162.8,82.3,162.6,82.3 M164,81.7c0.4-0.2,0.7-0.4,0.8-0.4c0.1,0,0.1,0,0.2,0c0,0,0.1,0.1,0.1,0.1c0,0.1,0,0.1,0,0.2    c-0.5,1.2-1,2.9-1.6,5.1c-0.2,0.9-0.4,1.6-0.4,2c0,0.1,0,0.2-0.1,0.3c-0.1,0.1-0.2,0.2-0.5,0.4c-0.2,0.1-0.3,0.2-0.3,0.2    c-0.1,0-0.1,0-0.1,0c-0.1-0.1-0.1-0.1-0.2-0.3c0-0.1,0-0.4,0.1-0.7c0.1-0.7,0.3-1.3,0.5-1.8l0.1-0.3l0-0.1c0,0,0-0.1,0-0.1    c0,0,0,0-0.1,0c0,0-0.1,0-0.2,0.1c-0.4,0.3-0.8,0.5-1.2,0.6c-0.4,0.1-0.7,0-0.9-0.2c-0.3-0.2-0.4-0.5-0.5-0.9    c-0.1-0.7,0.1-1.5,0.5-2.2c0.4-0.7,0.9-1.3,1.6-1.7c0.5-0.3,0.9-0.5,1.4-0.6c0.2,0,0.5,0,0.6,0.1C163.7,81.5,163.8,81.6,164,81.7"></path>
		<path class="st4" d="M170.6,81.1l-0.8,2.4c-0.2,0.6-0.3,1-0.2,1.3c0,0.1,0,0.2,0.1,0.3c0,0.1,0,0.1,0,0.1c0,0.1-0.1,0.3-0.3,0.4    c-0.2,0.2-0.4,0.3-0.5,0.3c-0.1,0-0.2-0.1-0.3-0.2c-0.1-0.1-0.1-0.2-0.1-0.4c0,0,0,0,0-0.1c0,0,0-0.1,0-0.1c0-0.1,0-0.1-0.1-0.1    c0,0-0.1,0-0.1,0.1c-0.1,0.2-0.3,0.3-0.5,0.5c-0.4,0.3-0.8,0.5-1.1,0.6c-0.4,0.1-0.7,0-0.9-0.2c-0.2-0.2-0.3-0.4-0.3-0.7    c0-0.3,0-0.5,0.1-0.9c0.1-0.5,0.2-0.9,0.3-1.1l0.4-1.1c0.1-0.3,0.1-0.5,0.2-0.7c0-0.1,0-0.2,0.1-0.2c0.1-0.1,0.3-0.2,0.4-0.3    c0.2-0.1,0.3-0.1,0.4-0.1c0.2,0,0.3,0.1,0.3,0.2c0,0.1,0,0.2-0.1,0.4l-0.2,0.6l-0.2,0.5c-0.4,1.1-0.5,1.8-0.5,2    c0,0.1,0.1,0.2,0.2,0.3c0.1,0.1,0.2,0.1,0.4,0.1c0.2,0,0.4-0.1,0.7-0.3c0.4-0.3,0.8-0.9,1.1-1.8c0.3-0.8,0.5-1.4,0.6-2    c0-0.1,0.1-0.2,0.1-0.2c0.3-0.2,0.6-0.4,0.9-0.4c0.1,0,0.2,0,0.2,0.2C170.7,80.7,170.7,80.9,170.6,81.1"></path>
		<path class="st4" d="M173.9,80.6c-0.4,0-0.8,0.3-1.1,0.9c-0.2,0.3-0.3,0.5-0.4,0.8c0,0.1-0.1,0.2-0.1,0.3c0,0.1,0.1,0.1,0.3,0.1    c0.5-0.1,0.9-0.2,1.2-0.4c0.3-0.2,0.4-0.4,0.6-0.6c0.1-0.2,0.2-0.4,0.1-0.6c0-0.1-0.1-0.2-0.2-0.3    C174.2,80.6,174.1,80.6,173.9,80.6 M172.4,83.2c-0.2,0-0.3,0.2-0.2,0.6c0,0.3,0.2,0.5,0.4,0.6c0.2,0.1,0.4,0.1,0.6,0.1    c0.7-0.1,1.4-0.5,2.1-1.3c0.1-0.1,0.2-0.2,0.3-0.2c0.1,0,0.2,0,0.2,0.1c0,0.1,0,0.2-0.1,0.4c-0.3,0.5-0.6,0.8-1.1,1.2    c-0.6,0.4-1.1,0.6-1.7,0.6c-0.4,0.1-0.8,0-1.2-0.2c-0.3-0.2-0.5-0.5-0.5-0.9c-0.1-0.7,0.1-1.4,0.5-2.1c0.3-0.6,0.8-1.2,1.3-1.6    c0.6-0.4,1.1-0.7,1.7-0.8c0.3,0,0.6,0,0.8,0.1c0.2,0.1,0.3,0.3,0.3,0.5c0.1,0.4-0.1,0.8-0.5,1.3c-0.3,0.4-0.8,0.8-1.3,1    c-0.4,0.2-0.7,0.3-1,0.3L172.4,83.2z"></path>
		<path class="st4" d="M182.5,79.7c-0.3,0-0.7,0.2-1,0.5c-0.4,0.4-0.8,0.9-1,1.5c-0.1,0.4-0.2,0.8-0.2,1.1c0,0.2,0.1,0.4,0.2,0.5    c0.2,0.1,0.3,0.2,0.6,0.2c0.4,0,0.8-0.2,1.1-0.5c0.4-0.3,0.7-0.8,1-1.4c0.2-0.5,0.2-0.8,0.2-1.2C183.4,79.8,183.1,79.6,182.5,79.7     M184.7,76.9c0.4-0.3,0.7-0.4,1-0.4c0.2,0,0.2,0,0.3,0.2c0,0.1,0,0.2-0.1,0.3c-0.2,0.3-0.4,1-0.8,2l-0.7,2c-0.4,1.1-0.5,1.8-0.5,2    c0,0,0,0.1,0,0.1c0,0.1,0,0.1,0,0.1c0,0.1-0.1,0.3-0.5,0.6c-0.2,0.2-0.4,0.3-0.5,0.3c-0.1,0-0.2,0-0.3-0.2    c-0.1-0.1-0.1-0.2-0.1-0.3l0-0.1c0,0,0,0,0,0l0,0c0,0,0,0-0.1,0.1c-0.1,0.1-0.3,0.3-0.4,0.4c-0.4,0.3-0.9,0.5-1.3,0.5    c-0.4,0-0.7,0-1-0.3c-0.2-0.2-0.4-0.5-0.4-0.9c-0.1-0.7,0.2-1.5,0.7-2.4c0.5-0.7,1-1.2,1.6-1.6c0.5-0.3,0.9-0.4,1.3-0.5    c0.4,0,0.7,0,0.9,0.3c0,0,0.1,0.1,0.1,0.1c0,0,0.1-0.1,0.1-0.1L184.7,76.9z"></path>
		<path class="st4" d="M188.4,79.1c-0.4,0-0.8,0.3-1.2,0.8c-0.2,0.3-0.3,0.5-0.5,0.8c-0.1,0.1-0.1,0.2-0.1,0.3    c0,0.1,0.1,0.1,0.3,0.1c0.5,0,0.9-0.2,1.2-0.4c0.3-0.2,0.5-0.4,0.6-0.6c0.1-0.2,0.2-0.4,0.2-0.6c0-0.1-0.1-0.2-0.2-0.3    C188.7,79.1,188.5,79,188.4,79.1 M186.7,81.6c-0.2,0-0.3,0.2-0.3,0.6c0,0.3,0.1,0.5,0.4,0.6c0.2,0.1,0.4,0.2,0.6,0.1    c0.7-0.1,1.4-0.5,2.1-1.2c0.1-0.1,0.2-0.2,0.3-0.2c0.1,0,0.2,0,0.2,0.1c0,0.1,0,0.2-0.2,0.4c-0.3,0.4-0.7,0.8-1.2,1.1    c-0.6,0.3-1.1,0.5-1.7,0.6c-0.4,0-0.8-0.1-1.2-0.3c-0.3-0.2-0.4-0.5-0.5-0.9c-0.1-0.7,0.1-1.4,0.6-2.1c0.4-0.6,0.8-1.2,1.4-1.5    c0.6-0.4,1.1-0.6,1.7-0.7c0.3,0,0.6,0,0.8,0.2c0.2,0.1,0.3,0.3,0.3,0.5c0,0.4-0.2,0.8-0.6,1.3c-0.4,0.4-0.8,0.7-1.4,1    c-0.4,0.2-0.7,0.3-1,0.3L186.7,81.6z"></path>
		<path class="st4" d="M193.9,78.8c-0.3,0-0.6,0.2-1,0.4c-0.4,0.3-0.7,0.7-0.9,1.2c-0.2,0.5-0.3,1-0.3,1.3c0,0.2,0.1,0.4,0.2,0.5    c0.1,0.2,0.3,0.2,0.6,0.2c0.4,0,0.7-0.2,1.1-0.5c0.4-0.3,0.7-0.7,0.9-1.2c0.2-0.4,0.3-0.7,0.2-1.1    C194.8,79.1,194.5,78.8,193.9,78.8 M192.9,77.8l-0.2,0.7c0,0.1,0,0.1,0,0.1c0,0,0,0,0,0c0,0,0.1,0,0.2-0.1    c0.3-0.2,0.6-0.4,0.8-0.4c0.3-0.1,0.6-0.2,0.9-0.2c0.4,0,0.7,0.1,0.9,0.3c0.2,0.2,0.4,0.5,0.4,0.9c0,0.6-0.1,1.3-0.5,2    c-0.4,0.7-1,1.3-1.7,1.8c-0.5,0.3-1,0.5-1.5,0.5c-0.5,0-0.8-0.1-1.1-0.3c-0.3-0.2-0.4-0.5-0.4-0.8c0-0.4,0.1-0.9,0.3-1.6    c0.2-0.5,0.3-1.1,0.5-1.5l0.5-1.1c0.2-0.6,0.4-1,0.4-1.2c0-0.2,0.1-0.4,0.2-0.4c0.1-0.1,0.3-0.2,0.6-0.4c0.3-0.2,0.5-0.2,0.6-0.3    c0.1,0,0.2,0,0.2,0.1c0,0,0,0.1-0.1,0.3C193.4,76.6,193.2,77.1,192.9,77.8"></path>
		<path class="st4" d="M199.3,78.3c-0.4,0-0.8,0.3-1.2,0.8c-0.2,0.2-0.4,0.5-0.5,0.7c-0.1,0.1-0.1,0.2-0.1,0.3    c0,0.1,0.1,0.1,0.3,0.1c0.5,0,0.9-0.1,1.2-0.3c0.3-0.1,0.5-0.3,0.6-0.6c0.1-0.2,0.2-0.4,0.2-0.6c0-0.1-0.1-0.2-0.1-0.3    C199.6,78.3,199.4,78.3,199.3,78.3 M197.5,80.8c-0.2,0-0.3,0.2-0.3,0.6c0,0.3,0.1,0.5,0.3,0.6c0.2,0.1,0.4,0.2,0.6,0.2    c0.7,0,1.4-0.4,2.2-1.1c0.1-0.1,0.2-0.2,0.3-0.2c0.1,0,0.2,0,0.2,0.1c0,0.1-0.1,0.2-0.2,0.4c-0.3,0.4-0.7,0.8-1.2,1.1    c-0.6,0.3-1.2,0.5-1.7,0.5c-0.4,0-0.8-0.1-1.1-0.3c-0.3-0.2-0.4-0.5-0.5-0.9c0-0.7,0.2-1.4,0.6-2.1c0.4-0.6,0.9-1.1,1.4-1.5    c0.6-0.4,1.2-0.6,1.7-0.6c0.3,0,0.6,0,0.8,0.2c0.2,0.1,0.3,0.3,0.3,0.5c0,0.4-0.2,0.8-0.6,1.3c-0.4,0.4-0.8,0.7-1.4,0.9    c-0.4,0.2-0.7,0.2-1,0.3L197.5,80.8z"></path>
		<path class="st4" d="M206.9,79.6l-0.4,1c-0.2,0.5-0.3,0.9-0.4,1.2c0,0.2-0.1,0.3-0.2,0.4c-0.2,0.1-0.4,0.3-0.6,0.4    c-0.1,0.1-0.2,0.1-0.2,0.1c-0.2,0-0.3-0.1-0.3-0.3c0-0.1,0-0.3,0.1-0.5c0.1-0.3,0.2-0.6,0.3-0.8l0.4-0.9c0.2-0.5,0.3-0.8,0.4-0.9    c0.1-0.3,0.1-0.5,0.1-0.6c0-0.1-0.1-0.3-0.2-0.4c-0.1-0.1-0.2-0.1-0.4-0.1c-0.3,0-0.6,0.2-1,0.4c-0.6,0.4-1.2,1.1-1.6,2    c-0.2,0.5-0.4,0.9-0.5,1.3c0,0.2-0.1,0.3-0.1,0.3c0,0-0.1,0.1-0.2,0.2c-0.4,0.3-0.7,0.4-0.8,0.4c0,0-0.1,0-0.1,0    c-0.1-0.1-0.1-0.1-0.1-0.2c0-0.4,0.4-1.4,1.1-3.1l0.4-0.9c0.1-0.2,0.1-0.3,0.2-0.4c0.1-0.2,0.1-0.3,0.2-0.3    c0.1-0.1,0.3-0.2,0.5-0.3c0.2-0.1,0.3-0.1,0.4-0.1c0.2,0,0.3,0.1,0.3,0.2c0,0.1,0,0.2-0.1,0.5l-0.2,0.3c0,0,0,0,0,0.1c0,0,0,0,0,0    c0,0,0.1,0,0.1-0.1c0.3-0.3,0.6-0.5,1-0.7c0.5-0.3,0.9-0.4,1.3-0.4c0.3,0,0.5,0.1,0.7,0.2c0.2,0.2,0.3,0.4,0.3,0.7    C207.2,78.6,207.1,79,206.9,79.6"></path>
		<path class="st4" d="M213.1,79.2l0.8,0.2c0.3,0.1,0.6,0.2,0.8,0.3c0.3,0.2,0.4,0.4,0.4,0.6c0,0.5-0.4,1-1.1,1.5    c-0.7,0.5-1.4,0.7-2.2,0.7c-0.4,0-0.7,0-1-0.2c-0.1-0.1-0.2-0.1-0.3-0.3c-0.1-0.1-0.2-0.2-0.2-0.4c0-0.2,0.1-0.4,0.3-0.6    c0.2-0.2,0.3-0.2,0.4-0.2c0.1,0,0.1,0,0.1,0.1c0,0,0,0,0,0.1c0,0,0,0,0,0c0,0.1,0,0.2,0.1,0.2c0.2,0.2,0.5,0.3,0.9,0.3    c0.3,0,0.6-0.1,0.9-0.2c0.2-0.1,0.4-0.2,0.5-0.3c0.1-0.1,0.2-0.3,0.2-0.4c0-0.2-0.2-0.3-0.6-0.4l-0.5-0.1    c-0.5-0.1-0.9-0.3-1.1-0.4c-0.2-0.2-0.3-0.3-0.3-0.5c0-0.3,0.2-0.6,0.5-0.9c0.4-0.4,0.8-0.7,1.4-0.9c0.5-0.2,1.1-0.4,1.6-0.4    c0.3,0,0.5,0.1,0.7,0.2c0.2,0.1,0.3,0.3,0.3,0.5c0,0.2-0.1,0.3-0.3,0.5c-0.2,0.2-0.4,0.3-0.6,0.3c-0.1,0-0.1-0.1-0.1-0.2    c0-0.3-0.3-0.5-0.7-0.5c-0.3,0-0.7,0.1-1,0.3c-0.4,0.2-0.6,0.4-0.6,0.6C212.6,78.9,212.7,79.1,213.1,79.2"></path>
		<path class="st4" d="M218.3,79.8c-0.2,0-0.5,0-0.8,0.1c-0.4,0.1-0.8,0.3-1,0.6c-0.2,0.2-0.3,0.4-0.3,0.7c0,0.2,0,0.3,0.1,0.4    c0.1,0.1,0.3,0.2,0.6,0.2c0.3,0,0.6-0.1,1-0.2c0.5-0.2,0.8-0.5,1-0.8c0.1-0.2,0.2-0.3,0.2-0.5c0-0.2-0.1-0.3-0.2-0.4    C218.8,79.9,218.6,79.8,218.3,79.8 M218.4,81.9c-0.3,0.2-0.5,0.3-0.7,0.4c-0.4,0.2-0.9,0.3-1.4,0.3c-0.4,0-0.6-0.1-0.8-0.2    c-0.1-0.1-0.2-0.2-0.3-0.3c-0.1-0.1-0.1-0.3-0.1-0.4c0-0.5,0.2-0.9,0.7-1.4c0.5-0.5,1.1-0.8,1.9-0.9c0.4-0.1,0.7-0.1,1.1-0.1    c0,0,0.1,0,0.1,0c0.2,0,0.3,0,0.4,0c0.1,0,0.3,0,0.4-0.1c0.1-0.1,0.2-0.3,0.2-0.5c0-0.2-0.1-0.3-0.2-0.4c-0.2-0.1-0.4-0.2-0.7-0.2    c-0.5,0-1.1,0.1-1.8,0.5c-0.1,0.1-0.2,0.1-0.3,0.1c-0.1,0-0.2-0.1-0.2-0.2c0-0.2,0.1-0.3,0.4-0.5c0.6-0.4,1.3-0.6,2.2-0.6    c0.5,0,0.9,0.1,1.1,0.3c0.1,0.1,0.2,0.2,0.3,0.4c0.1,0.1,0.1,0.3,0.1,0.4c0,0.3-0.2,0.8-0.5,1.5l-0.8,1.6    c-0.1,0.2-0.1,0.4-0.1,0.6c0,0.1-0.1,0.2-0.3,0.3c-0.2,0.2-0.4,0.2-0.5,0.2c-0.1,0-0.2-0.1-0.3-0.2c0-0.1-0.1-0.2-0.1-0.3    C218.4,82.1,218.4,82,218.4,81.9"></path>
		<path class="st4" d="M224.9,78.4c-0.3,0-0.7,0.1-1,0.3c-0.4,0.2-0.7,0.6-1,1.1c-0.3,0.5-0.4,0.9-0.5,1.3c0,0.2,0,0.4,0.1,0.5    c0.1,0.2,0.3,0.3,0.6,0.3c0.4,0,0.8-0.1,1.2-0.3c0.4-0.3,0.8-0.6,1.1-1.1c0.2-0.4,0.3-0.7,0.4-1C225.7,78.7,225.4,78.4,224.9,78.4     M224,77.3l-0.3,0.7c0,0.1,0,0.1,0,0.1c0,0,0,0,0,0.1c0,0,0.1,0,0.2-0.1c0.4-0.2,0.6-0.3,0.8-0.3c0.3-0.1,0.6-0.1,0.9-0.1    c0.4,0,0.7,0.1,0.9,0.4c0.2,0.2,0.3,0.6,0.3,1c0,0.6-0.3,1.3-0.8,1.9c-0.5,0.7-1.1,1.2-1.9,1.5c-0.6,0.3-1.1,0.4-1.6,0.4    c-0.5,0-0.8-0.2-1-0.4c-0.2-0.2-0.3-0.5-0.3-0.9c0-0.4,0.2-0.9,0.4-1.5c0.2-0.5,0.5-1,0.7-1.5l0.6-1.1c0.3-0.6,0.5-1,0.5-1.1    c0.1-0.2,0.1-0.3,0.2-0.4c0.1-0.1,0.3-0.2,0.6-0.3c0.3-0.1,0.5-0.2,0.6-0.2c0.1,0,0.2,0.1,0.2,0.1c0,0-0.1,0.1-0.2,0.3    C224.6,76.1,224.3,76.6,224,77.3"></path>
		<path class="st4" d="M230.3,78.5c-0.4,0-0.8,0.2-1.3,0.6c-0.2,0.2-0.4,0.4-0.6,0.7c-0.1,0.1-0.1,0.2-0.1,0.2    c0,0.1,0.1,0.1,0.3,0.2c0.5,0,0.9,0,1.2-0.2c0.3-0.1,0.5-0.3,0.7-0.5c0.2-0.2,0.2-0.4,0.3-0.5c0-0.1,0-0.2-0.1-0.3    C230.6,78.6,230.5,78.5,230.3,78.5 M228.3,80.8c-0.2,0-0.3,0.2-0.4,0.6c0,0.3,0.1,0.5,0.2,0.7c0.1,0.1,0.4,0.2,0.6,0.2    c0.7,0.1,1.5-0.2,2.3-0.8c0.1-0.1,0.2-0.2,0.3-0.1c0.1,0,0.1,0.1,0.1,0.1c0,0.1-0.1,0.2-0.2,0.4c-0.3,0.4-0.8,0.7-1.4,0.9    c-0.6,0.2-1.2,0.3-1.8,0.3c-0.4,0-0.8-0.2-1.1-0.5c-0.3-0.2-0.4-0.6-0.3-1c0-0.7,0.4-1.3,0.9-2c0.5-0.6,1-1,1.6-1.3    c0.6-0.3,1.2-0.4,1.8-0.4c0.3,0,0.6,0.1,0.7,0.3c0.2,0.2,0.2,0.3,0.2,0.6c0,0.4-0.3,0.8-0.8,1.2c-0.4,0.3-0.9,0.6-1.5,0.7    c-0.4,0.1-0.7,0.1-1.1,0.1L228.3,80.8z"></path>
		<path class="st4" d="M232.2,81.3l1.4-2.4c0.2-0.3,0.3-0.4,0.3-0.5c0,0,0.2-0.1,0.4-0.2c0.2-0.1,0.4-0.1,0.6-0.1    c0.1,0,0.2,0.1,0.2,0.2c0,0.1-0.1,0.2-0.2,0.3c-0.1,0.1-0.1,0.2-0.1,0.2c0,0,0,0.1,0.1,0.1c0,0,0.1,0,0.3-0.1    c0.6-0.4,1.2-0.5,1.6-0.5c0.2,0,0.4,0.1,0.6,0.2c0.1,0.1,0.1,0.1,0.1,0.2c0,0.1-0.1,0.2-0.4,0.4c-0.3,0.2-0.5,0.3-0.6,0.2    c0,0-0.1,0-0.2-0.1c-0.1-0.1-0.2-0.1-0.4-0.2c-0.3,0-0.5,0.1-0.9,0.2c-0.5,0.3-1,1-1.7,2.1c-0.2,0.4-0.4,0.8-0.5,1.1    c0,0.1-0.1,0.2-0.2,0.2c-0.1,0.1-0.3,0.2-0.5,0.3c-0.1,0.1-0.3,0.1-0.4,0.1c-0.2,0-0.2-0.1-0.2-0.3    C231.5,82.6,231.8,82.1,232.2,81.3"></path>
	</g>
</g>
</svg>