<?xml version="1.0" encoding="utf-8"?>
<!-- Generator: Adobe Illustrator 19.0.0, SVG Export Plug-In . SVG Version: 6.00 Build 0)  -->
<svg version="1.1" id="Capa_1" xmlns="http://www.w3.org/2000/svg" xmlns:xlink="http://www.w3.org/1999/xlink" x="0px" y="0px"
	 width="121.3px" height="47px" viewBox="-244 373 121.3 47" style="enable-background:new -244 373 121.3 47;"
	 xml:space="preserve">
<style type="text/css">
	.st0{fill:#FFFFFF;}
	.st1{fill:#86BC25;}
	.st2{fill:#FF5100;}
	.st3{fill:none;stroke:#FF5100;stroke-width:0.194;}
	.st4{fill:#502C1E;}
</style>
<g>
	<g>
		<path class="st0" d="M-175.2,378c0,0-6.2,4.5,2,11.5c0,0,4,2.6,2.6,6.6c0,0,5.2-5.7,0.3-10.9C-170.3,385.2-175.8,380.3-175.2,378"
			/>
	</g>
	<g>
		<path class="st0" d="M-160.1,379.4c-6.8,1.7-7.5,5.8-7.5,7.8c0.8-2.7,4.3-3.5,4.3-3.5c-2,0.9-3.1,3-3.6,4.5
			C-157.9,386.3-160.1,379.4-160.1,379.4"/>
	</g>
	<g>
		<path class="st0" d="M-170.4,380.4c-2.4-5.9,2.9-5.8,2.9-5.8C-170.3,375.4-170.4,380.4-170.4,380.4 M-168,373.9
			c-2.1-0.1-3.9,1.6-4.2,3.4c-0.7,4.2,4,7.9,4,7.9s-1.3-3,2.2-6.6C-163.7,376-165.9,374.1-168,373.9"/>
	</g>
	<g>
		<path class="st0" d="M-212.2,406.1c0.4-5-3.1-8.4-6.5-9.7c-1.1-0.4-1.9-0.6-3-0.8c6.7-3,9.2-6.1,9.1-10.5
			c-0.1-3.4-2.6-6.5-5.8-7.7c-4.5-1.7-12.3-0.8-15.7,2c-0.7,0.7-1.1,1.4-1.4,2.3c-2.1,5.4-6.8,16.2-8,26.7c-0.1,0.5-0.1,1-0.1,1.5
			c-0.2,3.8,0.9,6.4,4,7.6c1,0.4,1.8-0.3,1.8-2.1c0.1-1.6,0.2-3.2,0.4-4.8c1.5-12.3,5.9-22.5,8.5-28.2c0.4-0.8,0.7-1.1,1-1.2
			c1.3-0.7,3.8-1,5.5-0.4c1.4,0.5,2.8,1.7,2.8,3.6c0.1,6.3-8.5,10.2-12.2,12.4c-0.6,0.4-0.7,0.7-0.8,1.2c0,0.6,0.3,1.4,1.1,1.7
			c1.6,0.6,5.2-2.1,9-0.6c0.1,0,0.2,0.1,0.3,0.1c2.2,1,2.6,2.5,2.5,5.1c0,0.1,0,0.2,0,0.4c-0.7,7.9-9.8,10.7-15.7,11.3
			c-0.9,0.1-1.3,0.7-1.3,1.2c-0.1,0.7,0.3,1.5,1.6,2.1c4.4,1.7,11.2,0.3,15.4-2.2C-215.6,414.5-212.6,411.1-212.2,406.1"/>
	</g>
	<g>
		<path class="st0" d="M-193.2,392.4c0.4,0.3,1.3,1.6,0,2.8c-0.2,0.2-1.4,0.9-2.7-0.1c0,0-1.5-1-3.3,0.1c-3.1,1.6-3.7,6.2-3.7,6.2
			c-0.8,4.9-1.3,7.8-1.7,12.7c-0.1,1.9-1.7,3.4-3.6,3.4c-1.9,0-3.5-1.4-3.3-3.3c0.4-4.8,1.5-8.3,2.3-13.1c-0.1,0,1.2-9,10.3-10
			C-199,391-195.9,390.5-193.2,392.4"/>
	</g>
	<g>
		<path class="st0" d="M-156.8,390.9c11.7,0,9.3,11.1,9.4,11.1c-0.8,4.7-1.2,7.4-1.6,12.1c-0.1,1.9-1.7,3.4-3.6,3.4
			c-1.9,0-3.3-1.5-3.1-3.4c0.4-4.8,0.8-7.5,1.6-12.3c0,0,2.3-7.2-3.5-7.2c-5.9,0-6.4,7.2-6.4,7.2c-0.8,4.8-1.2,7.5-1.6,12.3
			c-0.1,1.9-1.7,3.4-3.6,3.4s-3.3-1.5-3.1-3.4c0.4-4.7,0.8-7.4,1.6-12.1C-170.8,401.9-168.6,390.8-156.8,390.9"/>
	</g>
	<g>
		<path class="st0" d="M-134.5,386.2c0.5-1.9-0.6-3.4-2.5-3.4s-3.1,1.5-3.6,3.4c0,0-2.5,7.1-3.7,14.3c-1.3,7.3-1.8,12.7-1.8,13.7
			c-0.1,1.9,1.3,3.4,3.1,3.4c1.9,0,3.5-1.5,3.6-3.4c0,0,0.3-5,1.6-12.3C-136.6,394.6-134.7,387.1-134.5,386.2"/>
	</g>
	<g>
		<path class="st0" d="M-129.2,391.3c-2.1,0-1.8-2.6-1.2-4.7s2.7-3.8,4.8-3.8c2.1,0,3.3,1.7,2.7,3.8S-127.2,391.3-129.2,391.3"/>
	</g>
	<g>
		<path class="st0" d="M-187,414.4c-2.2,0-3.2-1.6-3.2-1.6c-2.2-3.7,0.7-6.6,0.7-6.6c0.6-0.8,1.4-1.4,2.3-1.9
			c1.4-0.7,3.7-1.3,7.2-1.2c-0.5,3.5-1.2,5.9-1.2,5.9C-183,414.6-187,414.4-187,414.4 M-173.1,397c0.3-6.6-8.7-6.2-8.7-6.2
			c-5.4,0-8.3,1.7-8.3,1.7c-0.5,0.3-1,0.9-1.1,1.5c-0.2,1,0.2,1.8,1.3,1.8c1.1,0,3.3-0.9,3.3-0.9c1.4-0.5,2.7-0.5,2.7-0.5
			c5.3,0.3,4.4,4.6,4.4,4.6c-0.1,0.7-0.1,0.7-0.2,1.3c-1.1-0.2-3.1-0.3-5.6,0c-6.5,0.5-9.5,3.8-9.5,3.8c-3.1,3.2-2.2,8-2.2,8
			c1.1,6.1,9.8,6.1,9.7,6.1c10.8,0.3,12-7.5,12-7.5C-173.1,402-173,396.9-173.1,397"/>
	</g>
	<g>
		<path class="st0" d="M-130.1,417.5c0.2,0,0.4,0.1,0.5,0.1c0.4,0.1,0.8,0.1,1.3,0.1c0,0,1.6-0.1,1.7-1.4c0,0,0.1-0.9-1.2-2.2
			c0,0-1.4-1.5-1.3-5c0-1.1,0.1-1.9,0.1-1.9c0.5-4.4,1.3-5.9,2.1-10.3c0.4-1.9-0.8-3.4-2.7-3.4c-1.9,0-3.1,1.5-3.4,3.4
			c-1,4.8-2.1,6.6-2.6,11.5c0,0-1.2,6.1,3.5,8.5C-131.6,417.1-130.9,417.3-130.1,417.5"/>
	</g>
	<g>
		<path class="st1" d="M-175.5,377.1c0,0-6.2,4.5,2,11.5c0,0,4,2.6,2.6,6.6c0,0,5.2-5.7,0.3-10.9
			C-170.7,384.3-176.1,379.4-175.5,377.1"/>
	</g>
	<g>
		<path class="st1" d="M-160.4,378.5c-6.8,1.7-7.5,5.8-7.5,7.9c0.8-2.7,4.3-3.5,4.3-3.5c-2,0.9-3.1,3-3.6,4.5
			C-158.2,385.5-160.4,378.5-160.4,378.5"/>
	</g>
	<g>
		<path class="st2" d="M-170.7,379.5c-2.4-5.9,2.9-5.8,2.9-5.8C-170.7,374.5-170.7,379.5-170.7,379.5 M-168.4,373.1
			c-2.1-0.1-3.9,1.6-4.2,3.4c-0.7,4.2,4,7.9,4,7.9s-1.2-3.1,2.3-6.7C-164,375.2-166.3,373.2-168.4,373.1"/>
	</g>
	<g>
		<path class="st3" d="M-170.7,379.5c-2.3-5.8,2.9-5.7,2.9-5.7C-170.7,374.6-170.7,379.5-170.7,379.5z M-168.4,373.1
			c-2.1-0.1-3.8,1.5-4.2,3.4c-0.7,4.1,3.9,7.8,3.9,7.8s-1.2-3,2.2-6.6C-164.1,375.2-166.3,373.2-168.4,373.1z"/>
	</g>
	<g>
		<path class="st0" d="M-125.7,409.2c-0.2-0.3-0.6-0.4-1-0.4l0,0c-0.8,0-1.4,0.6-1.5,1.4c0,0.4,0.1,0.7,0.3,1c0.2,0.3,0.6,0.4,1,0.4
			c0.8,0,1.4-0.6,1.5-1.4C-125.4,409.9-125.5,409.5-125.7,409.2"/>
	</g>
	<g>
		<path class="st4" d="M-127,410.2L-127,410.2c0.2,0,0.4,0,0.4-0.2c0-0.1-0.1-0.2-0.2-0.2s-0.1,0-0.1,0L-127,410.2z M-127,410.8
			h-0.3l0.1-1.2c0.1,0,0.3,0,0.4,0c0.2,0,0.3,0,0.4,0.1c0.1,0,0.1,0.1,0.1,0.2s-0.1,0.2-0.3,0.3l0,0c0.1,0,0.2,0.1,0.2,0.3
			s0,0.2,0.1,0.3h-0.3c0,0,0-0.1-0.1-0.3c0-0.1-0.1-0.2-0.2-0.2h-0.1V410.8z M-126.7,409.3c-0.5,0-0.9,0.4-1,0.9
			c0,0.5,0.3,0.9,0.8,0.9s0.9-0.4,1-0.9C-125.9,409.7-126.2,409.3-126.7,409.3L-126.7,409.3z M-126.7,409c0.7,0,1.1,0.5,1.1,1.2
			c-0.1,0.6-0.6,1.2-1.3,1.2s-1.1-0.5-1.1-1.2C-127.9,409.6-127.3,409-126.7,409L-126.7,409z"/>
	</g>
	<g>
		<path class="st4" d="M-212.6,405.3c0.4-5-3.1-8.4-6.5-9.7c-1.1-0.4-1.9-0.6-3-0.8c6.7-3,9.2-6.1,9.1-10.5c0-3.3-2.5-6.5-5.7-7.6
			c-4.5-1.7-12.3-0.8-15.7,1.9c-0.8,0.7-1.1,1.3-1.5,2.2c-2.1,5.4-6.8,16.2-8,26.7c0,0.5,0,1-0.1,1.5c-0.2,3.8,0.9,6.4,4,7.6
			c1,0.4,1.8-0.3,1.8-2.1c0.1-1.5,0.2-3.1,0.4-4.7c1.5-12.3,5.9-22.5,8.5-28.2c0.4-0.8,0.7-1.1,1-1.2c1.3-0.7,3.8-1,5.5-0.4
			c1.4,0.5,2.8,1.7,2.8,3.6c0.1,6.3-8.5,10.2-12.2,12.4c-0.6,0.4-0.7,0.7-0.8,1.2c0,0.6,0.3,1.4,1.1,1.6c1.6,0.6,5.2-2.1,9-0.6
			c0.1,0,0.2,0.1,0.3,0.1c2.2,1,2.6,2.5,2.5,5.1c0,0.1,0,0.2,0,0.4c-0.6,7.9-9.7,10.8-15.7,11.3c-0.9,0.1-1.3,0.7-1.3,1.2
			c-0.1,0.7,0.3,1.5,1.6,2.1c4.4,1.7,11.2,0.3,15.4-2.2C-215.9,413.7-213,410.2-212.6,405.3"/>
	</g>
	<g>
		<path class="st4" d="M-193.5,391.5c0.4,0.3,1.3,1.6,0,2.8c-0.2,0.2-1.4,0.9-2.8-0.1c0,0-1.5-1-3.3,0.1c-3.1,1.6-3.7,6.2-3.7,6.2
			c-0.8,4.9-1.3,7.8-1.7,12.7c-0.2,1.9-1.7,3.4-3.6,3.4c-1.9,0-3.5-1.4-3.3-3.3c0.4-4.8,1.5-8.3,2.3-13.1c-0.1,0,1.2-9.1,10.3-10
			C-199.3,390.2-196.3,389.7-193.5,391.5"/>
	</g>
	<g>
		<path class="st4" d="M-157.1,390c11.7,0,9.3,11.1,9.4,11.1c-0.8,4.7-1.2,7.4-1.6,12.1c-0.1,1.9-1.7,3.4-3.6,3.4s-3.3-1.5-3.1-3.4
			c0.4-4.8,0.8-7.5,1.6-12.3c0,0,2.3-7.2-3.5-7.2c-5.9,0-6.4,7.2-6.4,7.2c-0.8,4.8-1.2,7.5-1.6,12.3c-0.2,1.9-1.7,3.4-3.6,3.4
			c-1.9,0-3.3-1.5-3.1-3.4c0.4-4.7,0.8-7.4,1.6-12.1C-171.1,401.1-169,390-157.1,390"/>
	</g>
	<g>
		<path class="st4" d="M-134.8,385.3c0.5-1.9-0.6-3.4-2.5-3.4s-3.1,1.5-3.6,3.4c0,0-2.5,7.1-3.7,14.4c-1.3,7.3-1.8,12.7-1.8,13.7
			c-0.1,1.9,1.3,3.4,3.1,3.4c1.9,0,3.5-1.5,3.6-3.4c0,0,0.3-5,1.6-12.3C-137,393.8-135.1,386.2-134.8,385.3"/>
	</g>
	<g>
		<path class="st4" d="M-129.6,390.5c-2.1,0-1.7-2.6-1.2-4.7c0.6-2.1,2.7-3.8,4.8-3.8c2.1,0,3.3,1.7,2.7,3.8
			C-123.8,387.8-127.5,390.5-129.6,390.5"/>
	</g>
	<g>
		<path class="st4" d="M-187.1,413.5c-2.1,0-3.1-1.5-3.1-1.5c-2.1-3.7,0.7-6.5,0.7-6.5c0.6-0.8,1.4-1.4,2.2-1.8
			c1.3-0.6,3.5-1.3,7-1.2c-0.5,3.5-1.2,5.8-1.2,5.8C-183.2,413.7-187.1,413.5-187.1,413.5 M-173.4,396.1c0.3-6.6-8.7-6.2-8.7-6.2
			c-5.4,0-8.3,1.7-8.3,1.7c-0.5,0.3-1,0.9-1.1,1.5c-0.2,1,0.2,1.8,1.3,1.8c1.1,0,3.3-0.9,3.3-0.9c1.4-0.5,2.7-0.5,2.7-0.5
			c5.3,0.3,4.4,4.6,4.4,4.6c-0.1,0.7-0.1,0.7-0.2,1.3c-1.1-0.2-3.1-0.3-5.6,0c-6.5,0.5-9.5,3.8-9.5,3.8c-3.1,3.2-2.2,8-2.2,8
			c1.1,6.1,9.8,6.1,9.7,6.1c10.8,0.3,12-7.5,12-7.5C-173.4,401.1-173.4,396.1-173.4,396.1"/>
	</g>
	<g>
		<path class="st4" d="M-130.5,416.6c0.2,0,0.3,0.1,0.5,0.1c0.4,0.1,0.8,0.1,1.3,0.1c0,0,1.6-0.1,1.7-1.4c0,0,0.1-0.9-1.2-2.2
			c0,0-1.4-1.5-1.3-5c0-1.1,0.1-1.9,0.1-1.9c0.5-4.4,1.3-5.9,2.1-10.3c0.4-1.9-0.8-3.4-2.7-3.4s-3.1,1.5-3.4,3.4
			c-0.9,4.8-2.1,6.6-2.6,11.5c0,0-1.2,6.1,3.5,8.5C-132,416.2-131.3,416.5-130.5,416.6"/>
	</g>
</g>
</svg>
