<?xml version="1.0" encoding="utf-8"?>
<!-- Generator: Adobe Illustrator 19.0.0, SVG Export Plug-In . SVG Version: 6.00 Build 0)  -->
<svg version="1.1" id="Capa_1" xmlns="http://www.w3.org/2000/svg" xmlns:xlink="http://www.w3.org/1999/xlink" x="0px" y="0px"
	 width="152.4px" height="51.7px" viewBox="-229 371.3 152.4 51.7" style="enable-background:new -229 371.3 152.4 51.7;"
	 xml:space="preserve">
<style type="text/css">
	.st0{fill:#FFED00;}
	.st1{fill:#00AE42;}
</style>
<g>
	<g>
		<path class="st0" d="M-81.6,406.4c4.3-10.3,1.6-15.3-7.4-11.4c1.1-3.4,1.9-6.2,2.4-9.1c-0.1-7.3-3.4-7.5-11.1-0.6
			c-0.2-6.9-3.2-7.5-7.5-5.1c-4.4,4.1-8.1,9.3-11.6,15.5l-4-3.1l-1.6,1.9c-1.9-0.9-4.3,0-6.9,1c3.5-6.8,8.9-13.7,15.2-19.9
			c-3-1.6-5.6-2.8-9.7-3.9c-5,6-10.4,11.7-14.7,17.8l1.6-9.7c-3.6,0-6.9-0.2-10.5-0.2c-5,13.8-5.4,27.2-3.4,40.8l7.9,2.6l3.2-6.3
			c1.7,4.2,4.4,8.1,12.1,4.1c3,3,7,2.3,10.6-0.9c3.6,3,7.1,2.3,11.4-0.6c2.1,2.3,4.5,3.8,8.4,1.3c3.3,3,6.9,2,10.3-0.4
			c3.6-3,6.4-6.7,8.2-10.1L-81.6,406.4z"/>
	</g>
	<g>
		<path class="st0" d="M-156.9,406.4c6.7-6.9,1.5-20.4-10.8-8.4l7.2-18.2l-9.2-0.2l-5.8,13.7c-4.4-0.6-7.8,0.9-9.7,4.5
			c-1,1.2-2.5,1.7-2.1-0.4l1.8-4.3l-9.3-0.1c-0.3,0.5-0.2,0.8-0.6,1.2c-2.4-2.8-6.2-3.5-11,0c4.2-6.9,9-13.2,15-18.9
			c-3.6-1.8-7.1-3.2-10.5-4c-5.4,6-10,11.7-14.3,17.7c0.4-3.2,1.3-6.4,2.8-9.4l-11.7-0.2c-3.7,13.4-4.9,27-3.1,40.5l7.9,2.2
			c1.7-3,2.5-5.6,3.9-7.3c2.5,8.7,9.3,8,16.9,2.1c1.8,4.6,5.3,5.7,10,3.1c3,1.2,6.1,1.6,9.2,0.1c2.7,2.5,5.6,1.6,8.4,0.1
			c6.5,5,12.9-1.8,19.2-10.3L-156.9,406.4z"/>
	</g>
	<g>
		<path class="st1" d="M-146.1,382.1l7.3,0.1c-1.4,5.5-2.5,11.1-3.1,16.8c5.2-9.5,11.7-17.5,18.5-25.2c2.2,0.8,4.1,1.6,5.8,2.4
			c-11.1,13-20,27.8-25.6,44.5l-5.8-1.7C-150.5,406.3-149.6,394-146.1,382.1"/>
	</g>
	<g>
		<path class="st1" d="M-223.7,381.5l7.3,0.1c-1.4,5.5-2.5,11.1-3.1,16.8c5.2-9.5,11.7-17.5,18.5-25.2c2.2,0.8,4.1,1.6,5.8,2.4
			c-11.1,13-20,27.8-25.6,44.5l-5.7-1.7C-228,405.7-227.2,393.4-223.7,381.5"/>
	</g>
	<g>
		<path class="st1" d="M-177.2,402.2c-1.5,3.5-3,7.1-4.5,10.7c-1.3,2-2.9,1.7-3.5-0.2c0.5-5,2.4-9.5,5.6-11.7
			C-178,399.6-176.6,400.3-177.2,402.2 M-208.2,406.2c1.6-2.6,3.1-4.7,4.9-6.3c1.1-1.1,1.9-0.9,1.2,1c-1.4,2.3-3.3,4.2-5.4,6
			C-208.8,407.7-209,407.6-208.2,406.2 M-166.2,406.9c1.4-2.6,2.9-4.7,4.9-6.3c0.8-0.8,1.6-0.9,1,0.7c-1.4,2.3-3,4.4-5.1,6.3
			C-166.4,408-166.7,407.9-166.2,406.9 M-157.6,407.9c-1.8,2.3-4,4.4-6.1,6.8c-2.4,1.3-4,0-3.3-2.2c5.6-1.5,8.9-6.1,10.8-11.5
			c0.6-5.6-2.2-7.6-6.4-4.5c-6,4.3-8.7,10.7-9.6,16.7c-2.3,3-4,2.5-4-1.1l12.6-30.2l-5,0.2l-6,14c-5.4-3.4-12.9,3.6-14.7,15.8
			c-2.2,3.8-3.7,4.2-3.4,1.2c1.8-4.1,3.7-8.2,6.1-12.3l-4.1-0.1l2.5-5.7l-4.5-0.1c-2.8,7.5-7.3,14.5-12.5,19.1
			c-3.2,1.3-4.5,0.6-4.4-1.6c6.1-2.7,10.3-7.4,12.5-14.5c-0.1-4.5-2.5-5.4-7.1-2.6c-5,4-9.5,8.2-10.7,16.3c0.7,8.8,5.8,9.2,11.4,5.4
			c3.7-3.3,6.9-6.9,9-10.8c1.2-2.2,2.2-1.9,1,0.3c-1.9,3-2.9,6-3.4,9.5c0.8,3.9,4.1,4.2,7.8,0.4c2.3,4.1,6.2,3.1,9.1,0.5
			c1.6,3.3,4.9,3.5,8.8,0.6c2,2.9,5.5,3,9,0.7c2.8-2.5,5.1-5.3,7.2-8.3L-157.6,407.9z"/>
	</g>
	<g>
		<path class="st1" d="M-124.4,403.1c-1.4,3.4-3,6.9-4.9,10.4c-1.5,1.6-4.2,0.8-3.4-1.3c0.7-3.7,2.7-7.2,6-10.4
			C-124.2,400.5-123.4,401-124.4,403.1 M-110.6,397c1.1-2.7,2.5-5.5,4.2-8.1c2.5-2.5,1.8-0.1,1.5,0.7c-1.2,2.7-2.5,5.3-4.3,8
			C-111.4,399.7-110.6,397.7-110.6,397 M-99,397.6c1.1-2.7,2.5-5.5,4.2-8.1c2.5-2.5,1.8-0.1,1.5,0.7c-1.2,2.7-2.5,5.3-4.3,8
			C-99.8,400.3-99,398.3-99,397.6 M-91.5,407.5c1.4-2.6,2.9-4.7,4.9-6.3c0.8-0.8,1.6-0.9,1,0.7c-1.4,2.3-3,4.4-5.1,6.3
			C-91.7,408.6-92,408.5-91.5,407.5 M-82.7,408.5c-1.7,1.9-3.7,4.2-5.9,6.3c-2.7,1.3-4,1-3.9-1.7c5.6-1.8,9.3-6.4,11.1-12.3
			c0.6-4.5-1.2-6.5-5.5-4.5c-6.1,4.1-10,10.2-11.1,18.2c-1.6,0.1-4,0.7-3.6-1.9c0-1.8,0.3-3.5,0.6-5.1c7-5.5,11.2-13.1,12.1-21.5
			c0.8-4.1-0.6-4.8-4.2-2c-8.1,7.4-11.3,15.8-12.5,25c-3.3,6.1-5.9,7.5-7.8,4.1c-0.3-2.9,0-5.3,1.4-7.7c6.3-5.4,11-13.4,12.2-21.6
			c0.5-2.2-1.1-4.3-4.7-1.7c-8.4,8.3-13.3,18.2-13.6,30.7c-1.7,3.1-5.1,5-5.2,0.5c1.8-5,4-10.2,6.3-15.2l-3.1-2.3l-0.9,1.1
			c-4.2-3.4-13.4,3.3-16.9,16c-0.3,8.7,4.8,9.1,10.6,5c1.7,3.8,5.9,3.4,10.3-0.8c3.8,4.2,7.6,3.4,11.5-0.7c1.9,3.8,5.6,4.7,8.9,1.7
			c2.6,3.4,5.7,3,8.9,0.8c2.7-2.7,5.2-5.2,6.9-8L-82.7,408.5z"/>
	</g>
	<g>
		<path class="st1" d="M-79.4,386.7c0.4,0,0.8,0,0.8-0.5c0-0.4-0.4-0.5-0.7-0.5H-80v1H-79.4z M-79.9,388.5h-0.5v-3.2h1.2
			c0.8,0,1.1,0.3,1.1,0.9s-0.4,0.8-0.8,0.9l0.9,1.4h-0.5l-0.8-1.4h-0.6L-79.9,388.5L-79.9,388.5z M-79.4,389.2c1.2,0,2.2-1,2.2-2.3
			c0-1.3-1-2.3-2.2-2.3c-1.3,0-2.2,1-2.2,2.3C-81.6,388.2-80.6,389.2-79.4,389.2 M-82.2,386.9c0-1.6,1.3-2.8,2.8-2.8
			s2.8,1.2,2.8,2.8s-1.3,2.8-2.8,2.8C-80.9,389.6-82.2,388.5-82.2,386.9"/>
	</g>
</g>
</svg>
