<?xml version="1.0" encoding="utf-8"?>
<!-- Generator: Adobe Illustrator 19.0.0, SVG Export Plug-In . SVG Version: 6.00 Build 0)  -->
<svg version="1.1" id="Capa_1" xmlns="http://www.w3.org/2000/svg" xmlns:xlink="http://www.w3.org/1999/xlink" x="0px" y="0px"
	 width="131px" height="47.3px" viewBox="-240 373.7 131 47.3" style="enable-background:new -240 373.7 131 47.3;"
	 xml:space="preserve">
<style type="text/css">
	.st0{fill:#502C1E;}
</style>
<g>
	<g>
		<path class="st0" d="M-239.2,410.1c3.7-3.7,6.4,1.5,7.7,2.3c1.3,0.9,2.5,1.3,3.7,1.3c1.1,0,2-0.2,2.8-0.5s1.3-0.7,1.6-1.2
			c0.3-0.5,0.5-0.9,0.6-1.2c0.1-0.3,0.2-0.6,0.2-0.8c0-1.2-0.5-2.5-1.6-3.8c-1.1-1.3-2.3-2.6-3.8-3.9c-1.5-1.3-3-3.2-4.5-4.6
			s-2.8-3-3.8-4.9s-1.6-3.9-1.6-5.9c0-2.2,0.3-3.8,0.9-5.7c0.6-2,4.4-7.2,10.4-7.4c9.6-0.4,10.9,4.5,11.2,5.3
			c0.3,0.8,0.5,1.7,0.5,2.6c0,0.8-0.1,1.6-0.3,2.2c-0.4,1.6-1.5,2.4-3.3,2.4c-2.8-0.1-3.8-4-4-4.4c-0.6-1.4-4-2.9-6.4,1.3
			c-0.8,1.4-0.8,2.3-0.8,3.5c0,1.4,0.5,2.7,1.4,4.1c1,1.4,2.1,2.6,3.5,3.9c1.4,1.2,3.2,2.9,4.6,4.2c1.4,1.3,3,2.8,3.9,4.7
			c1,1.9,1.4,4,1.4,6.1c0,2.6-0.9,4.7-2,6.1c-1.1,1.4-2.5,2.9-5,4.1c-1.7,0.8-4.6,1.1-7.4,1.1c-2.3,0-4.5-0.7-6.6-2.1
			C-237.7,417.6-241.7,412.6-239.2,410.1"/>
	</g>
	<g>
		<path class="st0" d="M-144.2,389.3c-0.6,0.6-1.4,0.9-2.3,1c-1.2,0.1-2.2-0.2-3.1-0.8c-0.9-0.7-1.3-1.7-1.3-3
			c0-1.2,0.3-2.1,0.8-2.9c0.6-0.7,1.3-1.1,2.2-1.2c0.7-0.1,1.3,0.1,1.9,0.4c1.8,0.9,2.7,2.3,2.7,4.2
			C-143.2,387.9-143.5,388.7-144.2,389.3 M-148.1,420.6c-2-0.6-3.1-2.8-3.1-6.7c0-1.3,0.1-3.4,0.3-6.4c0.2-2.9,0.3-5.1,0.3-6.4
			c0-6,1-9.1,2.9-9.3c0.8-0.1,1.5,0,2.1,0.3c0.6,0.3,1,0.6,1.3,1.1c0.3,0.4,0.5,1.1,0.7,1.9c0.2,0.8,0.3,1.6,0.3,2.3
			c0,0.7,0.1,1.6,0.1,2.7c0,2,0,4.7-0.1,8.3c0,3.5-0.1,6.1-0.1,7.8c0,0.8,0,1.4-0.1,1.8c0,0.4-0.2,0.8-0.4,1.3
			c-0.2,0.5-0.5,0.8-1,1.1c-0.5,0.2-1.2,0.4-2,0.5h-0.5C-147.6,420.7-147.9,420.7-148.1,420.6"/>
	</g>
	<g>
		<path class="st0" d="M-193.7,395.1c-0.4-1.3-1.1-2.5-2-3.6c-1-1-2.1-1.5-3.4-1.5h-0.1c-3.8,0.1-5.6,4.7-5.5,13.8
			c0,1.7,0.2,3.2,0.4,4.4c0.3,2.2,0.8,3.9,1.6,5s2.1,1.7,4.1,1.7c1.2,0,2.1-0.5,2.9-1.6c0.8-1,1.4-2.4,1.7-4.1
			c0.4-1.7,0.6-3.4,0.7-5c0.1-1.6,0.2-3.3,0.1-5.1C-193.1,397.8-193.3,396.4-193.7,395.1 M-184.9,404.1c0,2.5-0.4,5.1-1.3,7.5
			c-0.9,2.5-2.5,4.6-4.7,6.5c-2.2,1.9-4.9,2.8-7.9,2.9c-2.9,0-5.4-0.4-7.3-1.2c-2-0.9-3.5-2.2-4.4-3.9c-1-1.7-1.7-3.5-2-5.3
			c-0.4-1.8-0.6-4-0.6-6.5c0-2,0.1-3.9,0.3-5.7c0.2-1.8,0.6-3.6,1.2-5.4c0.6-1.8,1.4-3.4,2.4-4.7c1-1.3,2.4-2.4,4.1-3.2
			c1.7-0.8,3.7-1.3,6-1.3C-189.9,383.6-185.1,390.4-184.9,404.1"/>
	</g>
	<g>
		<path class="st0" d="M-174.4,415c0,1.6-0.3,2.9-0.8,3.7s-2.1,1.3-3.6,1.3c-1,0-1.9-0.4-2.8-1.2c-0.8-0.8-1.2-1.7-1.2-2.8
			c0-2.2,0.1-3.9,0.1-5c0.3-9.7,0.5-15.3,0.6-16.6v-0.5c0-0.5,0-1.3-0.1-2.3c-0.1-1-0.1-1.8-0.1-2.4c0-3.4,1.1-5.2,3.2-5.2
			c0,0,0.1,0,0.2,0c0.1,0,0.8,0,0.9,0c0.9,0.1,1.5,0.4,1.8,0.8s0.5,1,0.6,1.7c0,0.7,0.1,1.1,0.2,1.3c3.1-2.3,6-3.4,8.9-3.4
			c2,0,3.8,0.2,5.2,0.7c1.4,0.5,2.5,1.1,3.3,1.8c0.8,0.8,1.5,1.8,1.9,3.2c0.4,1.4,0.7,2.8,0.8,4.2c0.1,1.4,0.2,3.3,0.2,5.5
			c0,1,0,3.7,0,8.1c0,4.4,0,7,0,7.7c0,1.9-0.2,3.1-0.7,3.6s-1.4,0.8-2.8,0.8c-0.8,0-1.4-0.1-2-0.2c-0.5-0.1-1.4-0.2-1.6-0.5
			c-0.2-0.3-0.4-0.6-0.5-0.9c-0.1-0.2-0.2-0.7-0.3-1.3s-0.2-1-0.2-1.3c-0.4-1.6-0.1-4.5-0.1-8.3c0-1.1,0-2.7,0.1-4.9
			c0.1-2.2,0.1-3.8,0.1-4.7c0-2.4-0.6-4.2-1.9-5.5c-1.2-1.3-2.7-1.9-4.3-1.9c-1.3,0-2.3,0.4-3.2,1.1c-0.9,0.8-1.3,1.8-1.3,3.1
			C-174.2,399.8-174.4,406.5-174.4,415"/>
	</g>
	<g>
		<path class="st0" d="M-121.8,407c-6,0.6-9,2.3-9,5.2c0,0.5,0.1,0.9,0.4,1.1c0.1,0.1,0.3,0.3,0.5,0.5c0.2,0.2,0.4,0.3,0.5,0.3
			c0.1,0.1,0.2,0.1,0.4,0.2c0.2,0.1,0.4,0.1,0.6,0.2c0.2,0,0.5,0,0.9,0c1.4,0,2.8-0.2,4.2-0.6c1.5-0.4,2.2-0.9,2.3-1.7
			c0-0.2,0-0.4,0.1-0.8c0-0.3,0.1-0.7,0.1-0.9c0-1.4-0.1-2.6-0.4-3.4C-121.3,407.1-121.5,407-121.8,407 M-110.5,418.8
			c-1,0.7-1.3,0.8-2.8,0.9c-2,0.2-2.5-0.1-3.6-0.3c-1-0.2-1.9-0.6-2.6-1.3c-0.8,0.7-2.1,1.3-4,1.7c-1.9,0.5-3.6,0.7-5.3,0.7
			c-2.7,0-5.1-0.7-7.2-2c-2.1-1.3-3.1-3.3-3.1-6.1c0-0.7,0.1-2.3,0.4-3c0.3-0.6,0.5-1.2,0.9-1.7c0.3-0.5,0.8-1,1.5-1.5
			c0.7-0.5,1.3-0.9,1.8-1.2c0.5-0.3,1.3-0.7,2.2-1c1-0.4,1.7-0.7,2.3-0.9c0.6-0.2,1.4-0.5,2.6-0.8c1.1-0.3,2-0.5,2.4-0.6
			s1.3-0.3,2.5-0.6c1.2-0.3,0.9-0.4,1.1-0.5c0-0.9,0.1-1.3,0.1-3.3c0-2.6-0.5-4.5-1.5-5.7c-1-1.1-1.8-1.7-4.3-1.7
			c-1.3,0-2.4,0.4-3.4,1.1c-1,0.8-1.5,1.8-1.6,3.1c-0.1,1.2-0.5,2.1-1.2,2.8c-0.7,0.7-1.4,1.1-2.3,1.1c-0.5,0-0.9,0-1.3-0.1
			c-0.3-0.1-0.8-0.2-1.3-0.4c-0.5-0.2-0.9-0.6-1.1-1.2c-0.3-0.6-0.4-1.4-0.4-2.4c0-2.7,1.3-5.1,4-7.2c2.7-2.1,5.9-3.1,9.7-3.1
			c4.8,0,8,1.2,9.8,3.7s2.7,6.4,2.7,11.7c0,0.5,0,2.4-0.1,5.7s-0.1,5.7-0.1,7.3v0.2c0,1.2,0.2,2,0.5,2.5s0,0.7,1.1,0.7
			c0.2,0-0.3,0,0.4-0.3c0.7-0.3,1.2-0.5,1.6-0.5c0.7,0,1,0.6,1,1.8C-109,417.3-109.5,418.1-110.5,418.8"/>
	</g>
	<g>
		<path class="st0" d="M-187.8,375.7c-0.1,0.1-0.3,0.2-0.5,0.2c-0.1,0-0.3-0.1-0.5-0.2s-0.5-0.2-0.7-0.2s-0.4,0-0.5,0.1
			c-0.2,0-0.3,0.1-0.3,0.1c-0.1,0.1-0.1,0.1-0.1,0.2v0.1c0,0.2,0.1,0.4,0.3,0.6c0.2,0.2,0.4,0.4,0.7,0.6c0.3,0.2,0.6,0.4,0.9,0.6
			c0.3,0.2,0.5,0.5,0.7,0.8c0.2,0.3,0.3,0.6,0.3,0.9c0,0.4-0.1,0.7-0.2,1c-0.1,0.3-0.4,0.6-0.7,0.8c-0.3,0.2-0.8,0.4-1.3,0.4
			c-0.4,0-0.8,0-1.1-0.1c-0.3-0.1-0.5-0.2-0.7-0.3c-0.1-0.1-0.3-0.3-0.3-0.4c-0.1-0.1-0.1-0.3-0.1-0.4c0-0.1,0-0.2,0.1-0.4
			c0.1-0.2,0.3-0.4,0.6-0.4c0.2,0,0.4,0,0.5,0.1c0,0,0.1,0.1,0.2,0.2c0.1,0.1,0.1,0.2,0.2,0.2c0.1,0.1,0.1,0.1,0.3,0.2
			c-0.1,0.3,0.1,0.3,0.2,0.3c0.2,0,0.4-0.1,0.5-0.4c0.1-0.2,0.2-0.5,0.2-0.7c0-0.2-0.1-0.4-0.3-0.6c-0.2-0.2-0.4-0.4-0.7-0.6
			c-0.3-0.2-0.5-0.4-0.8-0.6c-0.3-0.2-0.5-0.5-0.7-0.8c-0.2-0.3-0.3-0.6-0.3-1c0-0.4,0.1-0.7,0.3-0.9c0.2-0.2,0.5-0.4,1-0.6
			c0.3-0.1,0.7-0.2,1.3-0.2c0.4,0,0.9,0.1,1.3,0.3c0.2,0.1,0.4,0.3,0.4,0.6C-187.6,375.4-187.7,375.6-187.8,375.7"/>
	</g>
	<g>
		<path class="st0" d="M-182.2,379.1c-1.3,0.1-2,0.5-2,1.2c0,0.1,0,0.2,0.1,0.3l0.1,0.1l0.1,0.1c0,0,0,0,0.1,0.1h0.1
			c0,0,0.1,0,0.2,0c0.3,0,0.6,0,1-0.1c0.3-0.1,0.5-0.2,0.5-0.4c0,0,0-0.1,0-0.2s0-0.2,0-0.2c0-0.3,0-0.6-0.1-0.8
			C-182.1,379.1-182.2,379.1-182.2,379.1 M-179.5,381.5c-0.3,0.1-0.5,0.2-0.9,0.2c-0.4,0-0.7,0-1-0.1c-0.2,0-0.4-0.1-0.6-0.3
			c0,0.2-0.3,0.3-0.7,0.4c-0.4,0.1-0.8,0.1-1.1,0.1c-0.6,0-1.1-0.1-1.5-0.4c-0.5-0.2-0.7-0.6-0.7-1.2c0-0.1,0-0.3,0.1-0.4
			c0.1-0.1,0.1-0.2,0.2-0.3c0.1-0.1,0.2-0.2,0.3-0.3c0.1-0.1,0.3-0.2,0.4-0.2c0.1-0.1,0.3-0.1,0.5-0.2s0.4-0.1,0.5-0.2
			s0.3-0.1,0.5-0.2c0.2-0.1,0.4-0.1,0.5-0.1s0.3-0.1,0.5-0.1c0.2-0.1,0.4-0.1,0.5-0.1c0-0.2,0-0.5,0-0.9c0-0.5-0.1-0.9-0.3-1.2
			c-0.3-0.2-0.7-0.3-1.2-0.3c-0.3,0-0.5,0-0.7,0.2c-0.2,0.2-0.3,0.4-0.3,0.6c0,0.2-0.1,0.4-0.2,0.6c-0.1,0.1-0.3,0.2-0.5,0.2
			c-0.1,0-0.2,0-0.3,0s-0.2,0-0.3-0.1c-0.1,0-0.2-0.1-0.2-0.3c-0.1-0.1-0.1-0.3-0.1-0.5c0-0.5,0.3-1,0.8-1.5
			c0.6-0.4,1.2-0.6,2.1-0.6c1,0,1.7,0.2,2.1,0.7c0.4,0.5,0.6,1.3,0.6,2.4c0,0.1,0,0.5,0,1.2c0,0.7,0,1.2,0,1.5l0,0
			c0,0.2,0,0.4,0.1,0.5c0.1,0.1,0.2,0.1,0.5,0.1c0,0,0.1,0,0.3-0.1s0.3-0.1,0.3-0.1c0.1,0,0.2,0.1,0.2,0.4
			C-179.2,381.2-179.3,381.3-179.5,381.5"/>
	</g>
	<g>
		<path class="st0" d="M-173.1,381.6c-0.4,0-1.9,0.1-2.7,0.1c-0.7,0-1.2-0.1-1.4-0.2c-0.2-0.1-0.3-0.4-0.3-0.9s0-1.2,0.1-2.1
			c0-0.9,0.1-1.6,0.1-2v-0.7v-0.3c0-0.2,0-0.3,0-0.4s0-0.2,0.1-0.3c0-0.1,0.1-0.2,0.2-0.3c0.1-0.1,0.3-0.1,0.4-0.1h0.1
			c0.2,0,0.3,0.1,0.4,0.2s0.2,0.3,0.2,0.5c0,0,0,0.1,0,0.2s0,0.2,0,0.2c0,0.1,0,0.3,0,0.5c0,0.2,0,0.4,0,0.5c0,0.1,0,0.4,0,0.7
			s0,0.5,0,0.7c0,0.3,0,0.7,0,1.3c0,0.1,0,0.2,0,0.3c0,0.2,0,0.3,0,0.5c0,0.1,0,0.3,0,0.3c0,0.1,0.1,0.1,0.3,0.1h0.6
			c0.1,0,0.2,0,0.4,0c0.2,0,1.2,0,1.3,0l0,0c0.2,0,0.3,0,0.4,0s0.2,0.1,0.3,0.1c0.1,0.1,0.1,0.2,0.1,0.4
			C-172.4,381.3-172.6,381.5-173.1,381.6"/>
	</g>
	<g>
		<path class="st0" d="M-152,375.7c-0.1,0.1-0.3,0.2-0.5,0.2c-0.1,0-0.3-0.1-0.5-0.2s-0.5-0.2-0.7-0.2s-0.4,0-0.5,0.1
			c-0.2,0-0.2,0.1-0.3,0.1c-0.1,0.1-0.1,0.1-0.1,0.2v0.1c0,0.2,0.1,0.4,0.3,0.6c0.2,0.2,0.4,0.4,0.7,0.6c0.3,0.2,0.6,0.4,0.9,0.6
			c0.2,0.3,0.5,0.6,0.7,0.9s0.3,0.6,0.3,0.9c0,0.4-0.1,0.7-0.2,1c-0.1,0.3-0.4,0.6-0.7,0.8c-0.4,0.3-0.8,0.4-1.3,0.4
			c-0.4,0-0.8,0-1.1-0.1c-0.3-0.1-0.5-0.2-0.7-0.3c-0.2-0.2-0.3-0.3-0.3-0.4c-0.1-0.1-0.1-0.3-0.1-0.4s0-0.2,0.1-0.4
			s0.3-0.4,0.6-0.4c0.2,0,0.4,0,0.5,0.1c0,0,0.1,0.1,0.2,0.2c0.1,0.1,0.1,0.2,0.2,0.2c0.1,0.1,0.1,0.1,0.3,0.2
			c-0.1,0.2,0.1,0.2,0.2,0.2c0.2,0,0.4-0.1,0.5-0.4c0.1-0.2,0.2-0.5,0.2-0.7c0-0.2-0.1-0.4-0.3-0.6c-0.2-0.2-0.4-0.4-0.7-0.6
			c-0.3-0.2-0.5-0.4-0.8-0.6c-0.3-0.2-0.5-0.5-0.7-0.8c-0.1-0.3-0.2-0.6-0.2-0.9c0-0.4,0.1-0.7,0.3-0.9s0.5-0.4,1-0.6
			c0.3-0.1,0.7-0.2,1.3-0.2c0.4,0,0.9,0.1,1.3,0.3c0.2,0.1,0.4,0.3,0.4,0.6C-151.8,375.4-151.9,375.6-152,375.7"/>
	</g>
	<g>
		<path class="st0" d="M-159.8,379.1c-1.3,0.1-2,0.5-2,1.2c0,0.1,0,0.2,0.1,0.3l0.1,0.1l0.1,0.1c0,0,0,0,0.1,0.1h0.1
			c0,0,0.1,0,0.2,0c0.3,0,0.6,0,0.9-0.1s0.5-0.2,0.5-0.4c0,0,0-0.1,0-0.2s0-0.2,0-0.2c0-0.3,0-0.6-0.1-0.8
			C-159.7,379.1-159.7,379.1-159.8,379.1 M-157.2,381.5c-0.2,0.2-0.5,0.2-0.8,0.2c-0.4,0-0.7,0-0.9-0.1c-0.2,0-0.4-0.1-0.5-0.3
			c-0.2,0.1-0.4,0.3-0.8,0.3c-0.4,0.1-0.8,0.1-1.1,0.1c-0.6,0-1-0.2-1.5-0.4c-0.4-0.3-0.6-0.7-0.6-1.2c0-0.1,0-0.3,0.1-0.4
			s0.1-0.2,0.2-0.3c0.1-0.1,0.2-0.2,0.3-0.3c0.1-0.1,0.3-0.2,0.4-0.2c0-0.1,0.2-0.2,0.4-0.2c0.2-0.1,0.4-0.1,0.5-0.2
			c0.1,0,0.3-0.1,0.5-0.1s0.4-0.1,0.5-0.1s0.3-0.1,0.5-0.1c0.2-0.1,0.4-0.1,0.4-0.1c0-0.2,0-0.5,0-0.9c0-0.5-0.1-0.9-0.3-1.2
			c-0.1-0.2-0.5-0.3-1-0.4c-0.3,0-0.5,0.1-0.7,0.2c-0.2,0.1-0.3,0.4-0.4,0.6c0,0.2-0.1,0.4-0.3,0.6c-0.1,0.1-0.3,0.2-0.5,0.2
			c-0.1,0-0.2,0-0.3,0s-0.2,0-0.3-0.1c-0.1,0-0.2-0.1-0.2-0.3c-0.1-0.1-0.1-0.3-0.1-0.5c0-0.5,0.3-1,0.9-1.4c0.6-0.4,1.2-0.6,2-0.6
			c1,0,1.6,0.3,2,0.8s0.5,1.3,0.5,2.4c0,0.1,0,0.5-0.1,1.2c0,0.7-0.1,1.2-0.1,1.5l0,0c0,0.2,0,0.4,0.1,0.5c0.1,0.1,0.2,0.1,0.4,0.1
			c0,0,0.1,0,0.3-0.1c0.4,0,0.5,0,0.6,0c0.1,0,0.2,0.1,0.2,0.4C-156.9,381.2-157,381.4-157.2,381.5"/>
	</g>
	<g>
		<path class="st0" d="M-166.7,376.3c0-0.1,0-0.1-0.1-0.2c0-0.1-0.1-0.2-0.2-0.2v-0.1c-0.3,0.2-0.5,0.4-0.5,0.5s0.1,0.1,0.2,0.2
			c0.1,0.1,0.2,0.1,0.4,0.1C-166.7,376.5-166.7,376.5-166.7,376.3 M-164.2,376.1c-0.1,0.1-0.2,0.1-0.3,0.1s-0.4,0-0.7-0.1
			s-0.5-0.1-0.6-0.1c0.1,0.2,0.2,0.4,0.2,0.6c0,0.3-0.1,0.5-0.3,0.6c-0.2,0.2-0.5,0.2-1,0.2c-0.4,0-0.7-0.1-0.9-0.3
			c-0.3-0.2-0.4-0.4-0.4-0.5c0-0.2,0.1-0.4,0.3-0.5c0.2-0.2,0.4-0.3,0.6-0.4c-0.3-0.2-0.6-0.3-1-0.3c-0.3,0-0.6,0.1-0.8,0.2
			c-0.2,0.1-0.3,0.3-0.3,0.5c0,0.1,0.1,0.2,0.2,0.3c0.1,0.1,0.2,0.2,0.3,0.3c0.1,0.1,0.3,0.2,0.5,0.3c0.2,0.2,0.4,0.3,0.5,0.3
			c1.3,0.9,2,1.9,2,2.8c0,0.5-0.2,0.9-0.6,1.2c-0.4,0.3-1,0.4-1.6,0.4c-1.8,0-2.7-0.7-2.9-2c0,0,0,0,0-0.1v-0.1c0,0,0-0.1,0-0.2
			s0-0.1,0-0.1c0-0.2,0.1-0.4,0.2-0.6c0.1-0.2,0.3-0.2,0.6-0.2c0.2,0,0.4,0,0.6,0.1c0.2,0.1,0.3,0.2,0.3,0.3s0,0.2-0.1,0.4
			c0,0.2-0.1,0.3-0.1,0.4c0,0.2,0.1,0.4,0.3,0.6c0.2,0.1,0.5,0.2,0.7,0.2c0.7,0,1-0.3,1-0.9c0,0,0,0,0-0.1v-0.1
			c0-0.2-0.1-0.5-0.4-0.7c-0.2-0.2-0.5-0.4-0.8-0.6c-0.3-0.2-0.6-0.4-0.9-0.6c-0.3-0.2-0.6-0.5-0.8-0.7c-0.2-0.3-0.3-0.6-0.3-0.9
			c0-0.5,0.2-0.9,0.7-1.2c0.5-0.3,1.1-0.5,1.8-0.5c1.1,0,1.9,0.3,2.4,1h0.2c0.4,0,0.8,0.1,1.2,0.2c0.2,0.3,0.4,0.4,0.4,0.6
			C-164,376-164,376-164.2,376.1"/>
	</g>
</g>
</svg>
