<?xml version="1.0" encoding="utf-8"?>
<!-- Generator: Adobe Illustrator 19.0.0, SVG Export Plug-In . SVG Version: 6.00 Build 0)  -->
<svg version="1.1" id="Capa_1" xmlns="http://www.w3.org/2000/svg" xmlns:xlink="http://www.w3.org/1999/xlink" x="0px" y="0px"
	 width="126.6px" height="73.6px" viewBox="-242 360.4 126.6 73.6" style="enable-background:new -242 360.4 126.6 73.6;"
	 xml:space="preserve">
<style type="text/css">
	.st0{fill:#5B6670;}
</style>
<g>
	<g>
		<path class="st0" d="M-238.4,399.3c-0.7,0-1.4-0.3-1.9-1c-0.7-0.9-0.8-2.2-0.3-3.5c0.5-1,2-1.9,3.5-2.5c-1.3,0-2.6-0.3-3.4-1.1
			c-1.3-1.3-2-4.3-0.9-6.4c0.7-1.4,2.1-2,4-1.8c2.6,0.4,3.3,1.5,3.5,2.5c0.1,1.6-1.1,3.3-2.3,3.9c-1.3,0.6-3.1,0-3.8-0.9
			c-0.5-0.7-0.5-1.4,0-2.1c0.5-0.6,0.9-0.8,1.4-0.8c0.8,0.1,1.3,1,1.3,1c0,0.1,0,0.2,0,0.3c-0.1,0.1-0.2,0.1-0.3,0.2h-0.8
			c-0.2,0-0.3-0.1-0.3-0.3c0-0.2,0.1-0.3,0.3-0.3h0.2c-0.1-0.1-0.3-0.3-0.5-0.3c-0.3,0-0.6,0.2-0.9,0.5c-0.4,0.5-0.2,1,0,1.3
			c0.6,0.8,2,1.3,3.1,0.8c1-0.5,2-2,1.8-3.2c-0.2-1.1-1.2-1.7-2.9-2c-1.6-0.2-2.8,0.3-3.4,1.5c-0.9,1.8-0.3,4.5,0.8,5.7
			c1.3,1.4,4.3,1,5.8,0.6c0.5-0.1,0.9-0.2,0.9-0.2c0.2,0,0.3,0.1,0.4,0.2c0,0.2,0,0.3-0.2,0.4c-0.1,0-0.5,0.1-1,0.3
			c-2,0.6-5.1,1.7-5.8,3.1c-0.5,1-0.4,2.1,0.2,2.9c0.4,0.6,1,0.8,1.7,0.7c1.6-0.3,2.4-1.4,2.4-2.4c0-0.4-0.2-0.7-0.5-0.8
			c-0.5-0.3-1.3-0.2-2,0.3c-0.4,0.2-0.5,0.5-0.5,0.7c0,0.2,0.1,0.3,0.3,0.4s0.5,0.1,0.7,0c-0.1,0-0.1-0.1-0.1-0.2
			c0-0.2,0.1-0.3,0.2-0.4c0.4-0.1,0.7,0,0.8,0.2c0.1,0.3-0.1,0.5-0.2,0.6c-0.5,0.4-1.1,0.5-1.6,0.3c-0.4-0.2-0.7-0.5-0.7-0.9
			c0-0.3,0.1-0.8,0.8-1.3c0.9-0.6,1.9-0.7,2.6-0.3c0.5,0.3,0.8,0.8,0.9,1.3c0.1,1.3-0.9,2.7-2.9,3
			C-238.2,399.3-238.3,399.3-238.4,399.3"/>
	</g>
	<g>
		<path class="st0" d="M-118.9,400.4c-0.4,0-0.8-0.1-1.3-0.2c-3-0.8-3.6-2.5-3.7-3.5c-0.1-1.6,0.9-3.2,2-3.7c1.3-0.5,3,0.2,3.8,1.3
			c0.7,0.8,0.7,1.7,0.2,2.4c-0.4,0.5-0.8,0.8-1.3,0.7c-0.9-0.1-1.5-1.1-1.5-1.3c-0.1-0.1,0-0.2,0-0.3c0.1-0.1,0.2-0.1,0.3-0.1
			l0.8,0.1c0.2,0,0.3,0.2,0.3,0.3c0,0.2-0.2,0.3-0.3,0.3h-0.2c0.2,0.2,0.4,0.4,0.7,0.4c0.3,0,0.5-0.1,0.8-0.5
			c0.5-0.6,0.1-1.3-0.2-1.6c-0.7-0.9-2.1-1.5-3.1-1.1c-0.8,0.4-1.7,1.7-1.6,3.1c0.1,1,0.7,2.3,3.2,2.9c1.4,0.4,2.5,0.1,3-0.8
			c1.1-1.7,0.3-5.3-1.1-6.9c-1.4-1.7-4.4-1.6-5.9-1.4c-0.5,0.1-0.9,0.2-0.9,0.2c-0.2,0-0.3-0.1-0.3-0.2c0-0.2,0.1-0.3,0.2-0.4
			c0.1,0,0.5-0.1,1-0.2c1.9-0.4,5-1.3,5.5-2.8c0.4-1.2,0.3-2.4-0.3-3.2c-0.3-0.3-0.7-0.7-1.5-0.7c-1,0.1-1.9,0.4-2.3,1
			c-0.3,0.3-0.4,0.7-0.3,1c0.1,0.5,0.4,0.9,0.8,1.2c0.5,0.3,1.2,0.2,1.8-0.2c0.2-0.1,0.5-0.4,0.5-0.7s-0.2-0.5-0.5-0.6
			c-0.1-0.1-0.4-0.1-0.6,0c0.1,0,0.2,0.1,0.2,0.3c0,0.2-0.1,0.3-0.3,0.3c-0.3,0-0.7,0-0.8-0.3c-0.1-0.2,0-0.4,0.2-0.6
			c0.4-0.4,1-0.5,1.5-0.3c0.5,0.2,0.9,0.6,0.9,1.1c0,0.3,0,0.8-0.8,1.3s-1.7,0.6-2.4,0.2c-0.7-0.3-1.1-0.9-1.2-1.6
			c-0.1-0.5,0.1-1,0.5-1.5c0.6-0.7,1.6-1.1,2.8-1.2c0.8-0.1,1.5,0.3,2,0.9c0.7,0.9,0.8,2.4,0.3,3.8c-0.4,1.2-2,2-3.5,2.5
			c1.4,0.1,2.8,0.6,3.7,1.7c1.5,1.8,2.3,5.6,1.1,7.6C-116.9,399.7-117.6,400.4-118.9,400.4"/>
	</g>
	<g>
		<path class="st0" d="M-116.4,390.9c-0.1,0-0.3,0-0.4-0.1c-0.2-0.1-0.8-0.2-0.8-0.7c0-0.4,0.5-0.6,0.6-0.7c0.2-0.1,0.3,0,0.4,0.2
			c0.1,0.2,0,0.3-0.2,0.4c-0.1,0-0.1,0.1-0.2,0.1c0.1,0,0.1,0.1,0.3,0.1c0.3,0.1,0.4,0,0.6-0.2c0.2-0.3,0.2-0.8-0.1-1.1
			c-0.3-0.3-0.8,0-1.1,0.2c-0.1,0.1-0.3,0.1-0.4-0.1c-0.1-0.1-0.1-0.3,0.1-0.4c1-0.7,1.6-0.3,1.8-0.1c0.4,0.4,0.5,1.3,0.2,1.8
			C-115.8,390.8-116.1,390.9-116.4,390.9"/>
	</g>
	<g>
		<path class="st0" d="M-123,430.1c0.8,0,1.5,0.7,1.5,1.5c0,0.8-0.7,1.5-1.5,1.5s-1.5-0.7-1.5-1.5
			C-124.5,430.8-123.8,430.1-123,430.1 M-123,433.4c1,0,1.9-0.8,1.9-1.9c0-1-0.8-1.9-1.9-1.9c-1,0-1.9,0.8-1.9,1.9
			C-124.8,432.6-124,433.4-123,433.4"/>
	</g>
	<g>
		<path class="st0" d="M-123.3,431.4h0.3c0.2,0,0.3,0,0.3,0s0.1,0,0.1-0.1v-0.1c0-0.1,0-0.1,0-0.1l-0.1-0.1c0,0-0.1,0-0.3,0h-0.3
			V431.4z M-123.6,432.4v-1.7h0.7c0.2,0,0.3,0,0.4,0s0.1,0.1,0.2,0.2c0,0.1,0.1,0.2,0.1,0.3c0,0.1,0,0.2-0.1,0.3s-0.2,0.1-0.3,0.2
			c0.1,0,0.1,0.1,0.2,0.1c0,0.1,0.1,0.1,0.2,0.3l0.2,0.3h-0.4l-0.2-0.4c-0.1-0.1-0.1-0.2-0.2-0.3l-0.1-0.1c0,0-0.1,0-0.2,0h-0.1v0.8
			H-123.6z"/>
	</g>
	<g>
		<path class="st0" d="M-208.3,369.2c-0.5,0-1-0.2-1.5-0.3c-0.6-0.1-1.2-0.1-1.7-0.1c-0.4,0-0.9,0.1-1.2,0.2
			c-0.8,0.2-0.9,0.9-1.3,1.4c0,0.8-0.1,0.9-0.2,1.7c-0.1,0.9-0.1,1.6-0.1,2.5c-0.1,1.8-0.5,3.3-0.5,5.2c0,0.3,0,0.5,0,0.8
			c0,1-0.4,2.5,0,3.3c0.3,0.8,1.1,1.3,2.2,1.5c1.1,0.2,2.4,0.1,3-0.4c0.5-0.4,0.8-4,0.5-4.9c-1.3-0.2-2.6,0-3.8,0.1
			c-0.3-0.5-0.2-1.1-0.2-1.6c1.8-0.2,3.2-0.2,5.2-0.3c0.2,0.3,0.3,0.7,0.4,1c0.2,0.8,0.3,3.6,0.2,4.4c-0.2,0.9-1,2.2-1.9,2.6
			c-1.3,0.5-3,0.5-4.8,0.4c-1.1,0-1.4-0.1-1.7-0.7c-0.4-0.5-0.4-0.9-0.5-1.6c-0.2-1.8-0.5-3.8-0.4-5.7c0-1.3,0.1-2.9,0.1-4.5
			c0-1,0.2-2.1,0.3-3.2c0-0.5,0.1-0.2,0.2-0.8c0.1-1,0.3-1.8,1.4-2.3c0.5-0.2,1.4-0.4,2-0.5c0.7-0.1,1.5,0.1,1.8,0
			c1,0.2,1.9,0,2.6,0.3C-208.3,368.2-208.2,368.7-208.3,369.2"/>
	</g>
	<g>
		<path class="st0" d="M-212.2,367.4c-0.2,0-0.3,0-0.5,0c-0.6,0.1-1.5,0.3-2,0.5c-1,0.4-1.1,1.2-1.3,2.1c0,0.3-0.1,0.4-0.1,0.5
			c0,0,0,0.1-0.1,0.3c0,0.4-0.1,0.9-0.1,1.3c-0.1,0.6-0.2,1.3-0.2,1.9c0,1.6-0.1,3.2-0.1,4.5c-0.1,1.8,0.2,3.7,0.4,5.4v0.2
			c0.1,0.8,0.1,1.1,0.5,1.6c0.3,0.5,0.5,0.6,1.6,0.6c2,0.1,3.6,0,4.8-0.4c0.9-0.3,1.6-1.6,1.8-2.4c0.1-0.8,0-3.6-0.2-4.4
			c0-0.1-0.1-0.2-0.1-0.3c-0.1-0.2-0.1-0.4-0.2-0.5c-0.5,0-1,0.1-1.4,0.1c-1.2,0.1-2.3,0.1-3.5,0.2c0,0.1,0,0.3,0,0.4
			c0,0.3,0,0.6,0.1,0.9c0.1,0,0.3,0,0.4,0c1.1-0.1,2.2-0.2,3.3,0h0.1v0.1c0.3,0.9,0,4.6-0.5,5.1c-0.6,0.6-2.1,0.7-3.2,0.5
			c-1.2-0.1-2-0.7-2.3-1.6c-0.3-0.6-0.2-1.5-0.1-2.4c0-0.4,0.1-0.7,0.1-1c0-0.2,0-0.3,0-0.4c0-0.1,0-0.2,0-0.4
			c0-1.1,0.1-2.1,0.2-3.1c0.1-0.7,0.2-1.4,0.2-2.1c0-0.2,0-0.4,0-0.6c0-0.7,0-1.3,0.1-2c0-0.4,0.1-0.6,0.1-0.8
			c0-0.3,0.1-0.5,0.1-0.9l0,0l0,0c0.1-0.2,0.2-0.3,0.3-0.5c0.2-0.4,0.4-0.8,0.9-1c0.3-0.1,0.8-0.1,1.1-0.2h0.1c0.5,0,1.1,0,1.8,0.1
			c0.2,0,0.4,0.1,0.7,0.1c0.3,0.1,0.5,0.1,0.7,0.1c0.1-0.3,0.1-0.6,0-0.9c0-0.1,0-0.2,0-0.4c-0.4-0.1-0.8-0.2-1.3-0.2
			c-0.4,0-0.7,0-1.1-0.1c-0.2,0-0.5,0-0.8,0C-211.9,367.4-212,367.4-212.2,367.4 M-212.7,386.7c-0.4,0-0.9,0-1.3,0
			c-1,0-1.5-0.1-1.9-0.7c-0.4-0.6-0.4-0.9-0.5-1.7v-0.2c-0.2-1.7-0.5-3.7-0.4-5.5c0-1.3,0.1-2.9,0.1-4.5c0-0.6,0.1-1.3,0.2-1.9
			c0.1-0.4,0.1-0.9,0.1-1.3c0-0.3,0.1-0.4,0.1-0.4s0.1-0.1,0.1-0.4c0.1-1,0.3-1.9,1.5-2.4c0.5-0.2,1.4-0.5,2.1-0.5c0.4,0,0.7,0,1,0
			c0.3,0,0.6,0,0.8,0l0,0l0,0c0.4,0.1,0.7,0.1,1.1,0.1c0.6,0,1.1,0,1.5,0.3h0.1v0.1c0,0.2,0,0.3,0,0.5c0,0.4,0,0.8-0.1,1.2v0.1h-0.1
			c-0.3,0-0.6-0.1-0.9-0.1c-0.2,0-0.4-0.1-0.6-0.1c-0.6-0.1-1.2-0.1-1.7-0.1h-0.1c-0.3,0-0.8,0.1-1,0.1c-0.4,0.2-0.6,0.5-0.8,0.8
			c-0.1,0.2-0.2,0.3-0.3,0.5c0,0.5,0,0.7-0.1,0.9c0,0.2-0.1,0.4-0.1,0.7c-0.1,0.7-0.1,1.3-0.1,1.9c0,0.2,0,0.4,0,0.6
			c0,0.7-0.1,1.4-0.2,2.1c-0.1,1-0.2,2-0.2,3.1c0,0.1,0,0.2,0,0.3c0,0.1,0,0.3,0,0.4c0,0.3,0,0.6-0.1,1c-0.1,0.8-0.2,1.7,0,2.2
			c0.3,0.8,1,1.3,2.1,1.4c1,0.2,2.3,0.1,2.9-0.4c0.4-0.4,0.7-3.7,0.4-4.6c-1-0.2-2.1-0.1-3.1,0c-0.2,0-0.4,0-0.5,0.1h-0.1l-0.2-0.1
			c-0.2-0.4-0.2-0.8-0.2-1.2c0-0.2,0-0.4,0-0.5v-0.2h0.2c1.3-0.1,2.4-0.2,3.7-0.3c0.5,0,1,0,1.5-0.1h0.1l0.1,0.1
			c0.2,0.2,0.3,0.5,0.3,0.7c0,0.1,0.1,0.2,0.1,0.3c0.2,0.9,0.4,3.7,0.2,4.5c-0.2,0.9-1,2.3-2,2.7
			C-210.1,386.6-211.3,386.7-212.7,386.7"/>
	</g>
	<g>
		<path class="st0" d="M-202.9,365.3c0,0.7,0,1.3,0.1,2c0.2,1.5,0.2,3.4-0.2,4.9c1.4,0,3.1,0,3.8-0.7c0.8-0.8,0.8-2.2,0.9-3.7
			c0-0.8,0-1.5-0.2-2.2c-0.6-0.4-1.3-0.6-2.2-0.6C-201.3,365.1-202.2,365.3-202.9,365.3 M-199.2,378.8c0.5,1.7,2,4.7,2.5,6.3
			c0.6,0.4,1.7,0.1,2.3,0.4c-0.1,0.6,0.1,1.1,0.1,1.5c-0.5,0.2-1.2,0.1-1.8,0.1c-0.6,0-1.5,0-1.9-0.2c-0.4-0.2-0.7-0.8-0.9-1.2
			c-0.7-1.3-1.7-4.3-2.2-5.6c-0.8-1.9-1.4-3.9-2.1-5.7c-0.2,2.6-0.2,7.4-0.1,9.8c0,1.2,0,2.4-0.1,3.5c-0.8,0-1.4,0.2-2.1,0.1
			c-0.1-2.4,0.2-7.4,0.3-9.9c0-0.6-0.1-1.2,0-1.8c0-2,0.2-4,0.2-5.8c0-0.6-0.2-1.2-0.2-1.8c-0.1-0.7-0.1-1.3-0.1-2
			c0-0.8,0.2-1.7,0.3-2.5c1-0.2,2.1-0.2,3.6-0.1c1.9,0.1,4.2,0,4.9,0.9c0.5,1,0.5,2.5,0.4,3.9c-0.1,1.2-0.5,2.3-1,3
			c-0.9,1.1-2.5,1.7-4.1,2.2C-200.5,375.4-199.8,377.1-199.2,378.8"/>
	</g>
	<g>
		<path class="st0" d="M-202.8,372c1.5,0,2.9-0.1,3.5-0.7c0.7-0.7,0.8-1.9,0.8-3.2v-0.7c0-0.6,0-1.2-0.1-1.7c-0.4-0.3-1.1-0.6-2-0.5
			c-0.2,0-0.4,0.1-0.6,0.1c-0.5,0.1-1,0.2-1.6,0.2c0,0.2,0,0.3,0,0.5c0,0.4,0,0.9,0.1,1.3C-202.5,368.9-202.5,370.7-202.8,372
			 M-202.4,372.3c-0.2,0-0.4,0-0.6,0h-0.2v-0.2c0.3-1.5,0.3-3.5,0.2-4.9c-0.1-0.4-0.1-0.8-0.1-1.3c0-0.2,0-0.4,0-0.7V365h0.2
			c0.5,0,1.1-0.1,1.7-0.2c0.2,0,0.4-0.1,0.6-0.1c1-0.1,1.8,0.3,2.3,0.6h0.1v0.1c0.2,0.6,0.2,1.2,0.2,1.9v0.7
			c-0.1,1.4-0.1,2.7-0.9,3.5C-199.8,372.2-201.1,372.3-202.4,372.3 M-205.3,387.7c0.4,0,0.7,0,1-0.1c0.2,0,0.5-0.1,0.8-0.1
			c0.2-1.1,0.2-2.3,0.1-3.3c-0.2-2.4-0.1-7.3,0.1-9.8l0.1-0.7l0.2,0.7c0.3,0.8,0.6,1.7,1,2.7c0.3,1,0.7,2,1.1,3
			c0.1,0.4,0.3,0.9,0.5,1.5c0.5,1.4,1.1,3.2,1.6,4.1c0.2,0.3,0.5,0.9,0.8,1.1c0.4,0.2,1.2,0.2,1.8,0.2h0.2c0.5,0,1,0,1.4-0.1
			c0-0.1,0-0.2,0-0.3c0-0.3-0.1-0.6,0-0.9c-0.3-0.1-0.6-0.1-0.9-0.1c-0.5,0-1-0.1-1.3-0.3h-0.1v-0.1c-0.2-0.8-0.6-1.8-1.1-2.8
			c-0.6-1.3-1.1-2.6-1.4-3.6c-0.4-1.4-1.1-2.8-1.6-4.1c-0.1-0.3-0.2-0.5-0.3-0.8l-0.1-0.2l0.2-0.1c1.4-0.4,3.1-1,4-2.1
			c0.5-0.7,0.9-1.8,1-2.9c0.1-1.3,0.1-2.8-0.5-3.8c-0.5-0.7-2.1-0.8-3.7-0.8c-0.4,0-0.8,0-1.1-0.1c-1.4-0.1-2.5-0.1-3.4,0.1
			l-0.1,0.5c-0.1,0.7-0.3,1.4-0.2,2.1c0,0.7,0,1.3,0.1,2c0,0.3,0.1,0.6,0.1,0.9c0,0.3,0.1,0.6,0.1,0.9c0,1.1,0,2.2-0.1,3.4
			c0,0.8-0.1,1.6-0.1,2.4c0,0.4,0,0.7,0,1.1c0,0.2,0,0.5,0,0.7c0,0.7-0.1,1.6-0.1,2.6C-205.2,383-205.4,386-205.3,387.7 M-205.2,388
			c-0.1,0-0.2,0-0.3,0h-0.1v-0.1c-0.1-1.7,0.1-4.8,0.2-7.2c0-1,0.1-1.9,0.1-2.6c0-0.2,0-0.5,0-0.7c0-0.4,0-0.8,0-1.1
			c0-0.8,0-1.6,0.1-2.4c0-1.2,0.1-2.3,0.1-3.3c0-0.3-0.1-0.6-0.1-0.9c0-0.3-0.1-0.6-0.1-0.9c-0.1-0.7-0.1-1.3-0.1-2
			c0-0.7,0.1-1.4,0.2-2.1l0.1-0.5h0.1c1-0.2,2.1-0.2,3.6-0.2c0.4,0,0.7,0,1.1,0c1.6,0.1,3.3,0.1,3.9,1c0.7,1,0.6,2.7,0.5,4
			c-0.1,1.2-0.5,2.3-1,3.1c-0.9,1.2-2.6,1.8-4,2.2c0.1,0.2,0.2,0.4,0.3,0.6c0.6,1.3,1.2,2.7,1.7,4.1l0,0c0.3,0.9,0.8,2.3,1.4,3.6
			c0.4,1,0.8,2,1.1,2.7c0.3,0.1,0.7,0.2,1.1,0.2c0.4,0,0.8,0,1.1,0.2h0.1v0.1c0,0.4,0,0.7,0,1c0,0.2,0,0.3,0,0.5v0.1h-0.1
			c-0.5,0.2-1,0.2-1.6,0.2h-0.2c-0.7,0-1.5,0-2-0.2s-0.8-0.9-1-1.2c-0.5-0.9-1.1-2.7-1.6-4.1c-0.2-0.6-0.4-1.1-0.5-1.5
			c-0.4-1-0.8-2-1.1-3c-0.2-0.7-0.4-1.3-0.7-1.9c-0.1,2.6-0.1,6.8,0,9c0,1,0,2.4-0.2,3.5v0.1h-0.1c-0.3,0-0.6,0-0.9,0.1
			C-204.5,388-204.8,388-205.2,388"/>
	</g>
	<g>
		<path class="st0" d="M-188.4,364.3c-0.3-0.4-1.2-0.7-1.9-0.6c-0.8,0.1-1.1,0.6-1.1,1.2c-0.1,2.5-0.1,5.2,0.2,7.5
			c1-0.1,2.3,0,3.3-0.2c0-2.1,0-4.7-0.3-6.9C-188.3,364.9-188.2,364.5-188.4,364.3 M-187.7,386.6c0.1-3.2,0-7.1-0.1-9.8
			c0-0.9,0-1.6,0-2.8c-1.2-0.1-2,0.1-3.1,0c0.3,4.2-0.5,8.8,0.3,12.6c-0.8,0.1-1.5,0.2-2.2,0.2c-0.2-0.7-0.1-1.5,0-2.4
			c0-0.9,0-2.2,0-3c0-0.5,0.1-1,0.2-1.6c0-1.4,0-2.8-0.3-4.5c-0.1-0.4-0.2-0.9-0.2-1.3c-0.3-2.6-0.4-5.8,0-8.6
			c0.1-0.7,0.2-1.6,0.5-2.1c0.4-0.6,1.7-0.8,2.3-0.9c1-0.1,2.1,0.2,2.8,0.6c0.9,0.6,1.4,1.7,1.6,2.8c0.2,1,0.2,2.4,0.2,3.7
			c-0.1,2.9,0.4,5.7,0.3,8.3c-0.1,1.4,0,2.8-0.1,4.2c-0.2,1.4-0.1,3.2,0,4.4C-186.2,386.5-187,386.7-187.7,386.6"/>
	</g>
	<g>
		<path class="st0" d="M-190.2,363.8h-0.1c-0.7,0.1-0.9,0.6-0.9,1c-0.1,2.6-0.1,5.1,0.1,7.3c0.4,0,0.9,0,1.3-0.1
			c0.6,0,1.1,0,1.7-0.1c0-2.1,0-4.6-0.3-6.7c0-0.1,0-0.3-0.1-0.4c0-0.2,0-0.4-0.1-0.5C-188.7,364.1-189.6,363.8-190.2,363.8
			 M-191.4,372.5v-0.2c-0.2-2.2-0.3-4.9-0.2-7.5c0-0.8,0.4-1.3,1.2-1.3c0.7,0,1.8,0.3,2.1,0.7l0,0c0.1,0.2,0.1,0.4,0.2,0.7
			c0,0.1,0,0.2,0,0.4c0.3,2.1,0.3,4.8,0.3,6.9v0.2h-0.1c-0.6,0.1-1.2,0.1-1.9,0.1c-0.5,0-1,0-1.5,0.1L-191.4,372.5z M-189.9,362.6
			c-0.1,0-0.2,0-0.3,0c-0.8,0.1-1.9,0.3-2.2,0.8c-0.3,0.4-0.4,1.2-0.4,1.8v0.2c-0.4,3.2-0.2,6.7-0.1,8.5c0,0.3,0.1,0.6,0.1,0.9
			c0,0.1,0.1,0.3,0.1,0.4c0.2,1.6,0.3,3.1,0.3,4.5c0,0.3-0.1,0.5-0.1,0.7c0,0.3-0.1,0.6-0.1,0.9c0,0.2,0,0.5,0,0.8
			c0,0.7,0,1.5,0,2.1c0,0.2,0,0.3,0,0.5c-0.1,0.6-0.1,1.2,0,1.7c0.4,0,0.9,0,1.3-0.1c0.2,0,0.4,0,0.6-0.1c-0.4-2.3-0.4-4.8-0.3-7.2
			c0.1-1.7,0.1-3.5,0-5.2v-0.2h0.2c0.5,0,0.9,0,1.3,0c0.5,0,1.1-0.1,1.8,0h0.2v0.2c0,1.2,0,1.9,0,2.8c0,0.5,0,1.1,0.1,1.7
			c0.1,2.4,0.2,5.4,0.1,8c0.5,0.1,1,0,1.5-0.1c0.1,0,0.2,0,0.3,0V386c0-1.2-0.1-2.8,0-4.1c0.1-0.7,0.1-1.4,0.1-2.1s0-1.4,0.1-2.1
			c0.1-1.3,0-2.7-0.1-4.2c-0.1-1.3-0.2-2.7-0.1-4.1c0-1.3,0-2.6-0.2-3.6c-0.1-0.7-0.5-2.1-1.5-2.7
			C-188.1,362.8-189,362.6-189.9,362.6 M-192.9,386.9h-0.1v-0.1c-0.2-0.6-0.1-1.3-0.1-2c0-0.2,0-0.3,0-0.5c0-0.6,0-1.4,0-2.1
			c0-0.3,0-0.6,0-0.8c0-0.3,0-0.6,0.1-0.9c0-0.2,0.1-0.5,0.1-0.7c0-1.4,0-2.8-0.3-4.4c0-0.1-0.1-0.3-0.1-0.4
			c-0.1-0.3-0.1-0.6-0.1-0.9c-0.2-1.8-0.4-5.4,0.1-8.6v-0.2c0.1-0.7,0.2-1.5,0.5-2c0.5-0.7,2-0.9,2.5-0.9c1-0.1,2.2,0.2,2.9,0.6
			c1.1,0.7,1.5,2.1,1.7,2.9c0.2,1.1,0.2,2.4,0.2,3.7c0,1.4,0.1,2.8,0.1,4.1c0.1,1.5,0.2,2.9,0.1,4.2c-0.1,0.7-0.1,1.4-0.1,2.1
			c0,0.7,0,1.4-0.1,2.1c-0.1,1.3-0.1,2.9,0,4.1v0.5h-0.2c-0.1,0-0.3,0-0.4,0.1c-0.6,0.1-1.2,0.2-1.7,0h-0.1v-0.1
			c0.1-2.6,0-5.6-0.1-8.1c0-0.6,0-1.2-0.1-1.7c0-0.8,0-1.5,0-2.7c-0.6,0-1.1,0-1.6,0c-0.4,0-0.8,0-1.2,0c0.1,1.7,0.1,3.4,0,5.1
			c-0.1,2.6-0.1,5.1,0.3,7.3v0.2h-0.2c-0.3,0-0.5,0-0.7,0.1C-191.9,386.8-192.4,386.9-192.9,386.9"/>
	</g>
	<g>
		<path class="st0" d="M-166.6,365.4c-0.3,0.5-0.4,1.5-0.4,2.1c0,0.8,0,1.5,0,2.2c0,2,0,4.7,0.1,6.9c0,0.7,0.2,1.3,0.2,2
			c0,0.6,0.1,1.3,0.1,2c0,1.1-0.3,2.9,0.5,3.5c0.3,0.2,1.8,0.4,2.5,0.2c1.4-0.4,1.7-2.7,1.7-4.3c0-1.5-0.1-3.6-0.2-5.2
			c0-0.8-0.1-1.6-0.1-2.5c0-1.7,0.3-3.1,0.1-4.9c-0.1-0.8-0.2-1.9-0.7-2.3c-0.3-0.3-1.2-0.4-1.7-0.4c-0.3,0,0.2,0.1-0.1,0.2
			c-0.4,0-0.6-0.2-1-0.2C-166,364.9-166.5,365.2-166.6,365.4 M-160.2,368.4c-0.1,2.2-0.1,4.4-0.2,6.4c-0.1,1.5,0.2,3,0.2,4.4
			c0,0.7-0.1,1.5-0.1,2.2c-0.1,0.7-0.1,1.5-0.2,2.2c-0.2,1.1-0.8,2.1-2.2,2.4c-0.3,0.1-0.7,0-1,0.1c-1,0.1-2.3,0.2-3.1-0.1
			c-0.9-0.2-1.7-0.7-2-1.4c-0.4-1-0.3-3-0.2-4.4c0-0.4,0.1-0.7,0.2-1c0-0.7-0.1-1.4-0.2-2.1c0-0.3,0-0.7,0.1-1
			c0-1.3-0.3-2.8-0.1-4.2c0.1-1.4,0.1-2.6,0.1-3.8c0-1.2,0.1-3.2,1-4c1-1,3.1-0.8,4.7-1c0.7-0.1,1.7,0.8,2.4,0.9
			C-159.9,365.3-160.1,366.7-160.2,368.4"/>
	</g>
	<g>
		<path class="st0" d="M-166.5,365.5c-0.3,0.4-0.4,1.4-0.4,2c0,0.4,0,0.8,0,1.2c0,0.4,0,0.7,0,1.1c0,2,0,4.9,0.1,6.9
			c0,0.4,0,0.7,0.1,1c0,0.3,0.1,0.6,0.1,1c0,0.4,0,0.7,0,1.1c0,0.3,0,0.6,0,0.9c0,0.2,0,0.3,0,0.5c-0.1,1-0.1,2.4,0.5,2.8
			c0.2,0.2,1.7,0.4,2.3,0.2c1.2-0.3,1.6-2.3,1.6-4.1c0-0.7-0.1-1.6-0.1-2.5c0-0.9-0.1-1.9-0.1-2.7c0-0.3,0-0.6-0.1-0.8
			c0-0.6-0.1-1.1-0.1-1.6c0-0.6,0-1.1,0.1-1.6c0.1-1.1,0.1-2.1,0-3.3c0-0.8-0.1-1.9-0.5-2.2c-0.3-0.2-1-0.4-1.5-0.4l0,0
			c0,0.1-0.1,0.1-0.2,0.2c-0.3,0-0.4,0-0.6-0.1c-0.2,0-0.3-0.1-0.5-0.1C-165.9,365.1-166.3,365.3-166.5,365.5 M-164.5,384.6
			c-0.7,0-1.6-0.2-1.8-0.4c-0.7-0.5-0.7-2-0.6-3.1c0-0.2,0-0.3,0-0.5c0-0.3,0-0.6,0-0.8c0-0.4-0.1-0.7,0-1.1c0-0.3,0-0.6-0.1-0.9
			c0-0.3-0.1-0.7-0.1-1.1c0-2-0.1-4.8-0.1-6.9c0-0.3,0-0.7,0-1.1c0-0.4,0-0.8,0-1.2s0-1.6,0.5-2.2l0,0c0.2-0.2,0.6-0.6,1-0.6
			c0.2,0,0.4,0,0.6,0.1c0.1,0,0.2,0.1,0.3,0.1c0,0,0,0,0-0.1s0.2-0.1,0.2-0.1c0.5,0,1.5,0.2,1.8,0.4c0.5,0.4,0.6,1.5,0.8,2.4
			c0.1,1.2,0.1,2.2,0,3.3c0,0.5-0.1,1-0.1,1.6c0,0.5,0,1,0.1,1.6c0,0.3,0,0.6,0.1,0.9c0,0.8,0.1,1.8,0.1,2.7c0,0.9,0.1,1.8,0.1,2.5
			c0,0.9-0.1,4-1.8,4.4C-163.9,384.5-164.2,384.6-164.5,384.6 M-163.2,363.3L-163.2,363.3c-0.4,0.1-0.8,0.1-1.2,0.1
			c-1.2,0.1-2.7,0.1-3.4,0.8c-0.6,0.6-1,2-1,3.9c0,1.2,0,2.3-0.1,3.8c-0.1,0.9,0,1.7,0,2.6c0,0.6,0.1,1.1,0.1,1.7c0,0.1,0,0.2,0,0.2
			c0,0.3-0.1,0.5,0,0.7c0,0.3,0.1,0.6,0.1,0.8c0.1,0.4,0.1,0.8,0.1,1.3c0,0.2-0.1,0.3-0.1,0.5c0,0.2-0.1,0.4-0.1,0.5
			c-0.1,1.4-0.2,3.4,0.2,4.3c0.3,0.6,0.9,1.1,1.9,1.3c0.8,0.2,2.1,0.2,3.1,0.1c0.1,0,0.3,0,0.4,0c0.2,0,0.4,0,0.6,0
			c1.1-0.2,1.8-0.9,2-2.3c0.1-0.3,0.1-0.7,0.1-1.1s0.1-0.7,0.1-1.1c0.1-0.7,0.1-1.4,0.1-2.2c0-0.6-0.1-1.2-0.1-1.8
			c-0.1-0.9-0.2-1.7-0.1-2.6c0-1.1,0.1-2.2,0.1-3.3c0-1,0-2,0.1-3.1c0-0.3,0-0.5,0-0.8c0.1-1.3,0.1-2.4-0.6-3.4
			c-0.3-0.1-0.6-0.2-0.9-0.4C-162.3,363.6-162.8,363.3-163.2,363.3 M-165.3,386.3c-0.6,0-1.1,0-1.5-0.2c-1.1-0.3-1.8-0.8-2.1-1.5
			c-0.4-1-0.4-2.9-0.3-4.4c0-0.2,0.1-0.4,0.1-0.6c0-0.2,0.1-0.3,0.1-0.5c0-0.4,0-0.8-0.1-1.2c0-0.3-0.1-0.6-0.1-0.8
			c0-0.2,0-0.5,0-0.8c0-0.1,0-0.2,0-0.2c0-0.5,0-1-0.1-1.6c-0.1-0.9-0.1-1.7,0-2.6c0.1-1.4,0.1-2.6,0.1-3.8c0-1.4,0.2-3.3,1.1-4.1
			c0.8-0.8,2.3-0.9,3.6-0.9c0.4,0,0.8,0,1.2-0.1c0.4,0,1,0.2,1.5,0.5c0.3,0.2,0.7,0.3,0.9,0.4h0.1l0,0c0.8,1.1,0.8,2.3,0.7,3.6
			c0,0.3,0,0.5,0,0.8l0,0c0,1-0.1,2.1-0.1,3.1c0,1.1-0.1,2.2-0.1,3.3c0,0.9,0,1.7,0.1,2.6c0.1,0.6,0.1,1.2,0.1,1.8
			c0,0.7-0.1,1.5-0.1,2.2c-0.1,0.4-0.1,0.7-0.1,1.1s-0.1,0.7-0.1,1.1c-0.2,0.9-0.7,2.2-2.3,2.5c-0.2,0-0.4,0-0.6,0
			c-0.1,0-0.3,0-0.4,0C-164.1,386.3-164.7,386.3-165.3,386.3"/>
	</g>
	<g>
		<path class="st0" d="M-155.4,370.7c0.1,0.6,0,1.2,0.1,1.8c0,0.6,0.2,1.1,0.2,1.6c0,1.7,0,3.2-0.2,5c0,0.6-0.2,1.1-0.2,1.7
			c0,1.2,0.1,2.4,0,3.6c1.2,0.2,2.5-0.1,3.6,0c0,0.6,0.4,1.1,0.1,1.7c-2.1-0.1-4.1-0.1-5.9-0.2c-0.3-1.9,0.1-3.6,0.2-5.5
			c0.1-1.5-0.1-3,0-4.4c0-0.8,0-1.5,0.1-2.3c0.1-1.7-0.2-4.9-0.1-6.6c0-0.3,0.1-0.7,0-1c-0.1-0.3-0.3-0.6-0.1-1
			c0.7,0,1.6-0.2,2.3-0.1C-155.2,366.7-155.5,369.3-155.4,370.7"/>
	</g>
	<g>
		<path class="st0" d="M-157.5,385.9c0.8,0,1.6,0,2.5,0.1c1,0,2.1,0,3.2,0.1c0.1-0.3,0-0.5-0.1-0.8c-0.1-0.2-0.1-0.4-0.1-0.6
			c-0.5-0.1-1,0-1.6,0c-0.6,0-1.3,0.1-1.9,0h-0.2v-0.2c0-0.8,0-1.6,0-2.3c0-0.4,0-0.9,0-1.3c0-0.3,0.1-0.7,0.1-1
			c0-0.2,0.1-0.5,0.1-0.7c0.1-1.3,0.1-2.6,0.1-3.8c0-0.4,0-0.8,0-1.2c0-0.3,0-0.6-0.1-0.9c0-0.2-0.1-0.5-0.1-0.7c0-0.3,0-0.6,0-0.9
			c0-0.3,0-0.6,0-0.9l0,0c-0.1-0.8,0-2,0.1-3.1c0.1-0.8,0.1-1.6,0.1-2.2c-0.4-0.1-1,0-1.5,0c-0.2,0-0.4,0-0.6,0
			c-0.1,0.2,0,0.4,0.1,0.6c0,0.1,0,0.1,0.1,0.2c0,0.2,0,0.4,0,0.6c0,0.1,0,0.3,0,0.4c0,0.8,0,2.1,0,3.2c0,1.2,0.1,2.5,0,3.4
			c0,0.4,0,0.8,0,1.2c0,0.4,0,0.8,0,1.2c0,0.7,0,1.4,0,2.1s0.1,1.5,0,2.2c0,0.5-0.1,0.9-0.1,1.4
			C-157.5,383.3-157.7,384.5-157.5,385.9 M-151.6,386.4L-151.6,386.4c-1.3-0.1-2.4-0.1-3.4-0.1c-0.9,0-1.8,0-2.6-0.1h-0.1v-0.1
			c-0.2-1.4-0.1-2.8,0.1-4.2c0-0.5,0.1-0.9,0.1-1.4c0-0.7,0-1.5,0-2.2c0-0.7-0.1-1.5,0-2.2c0-0.4,0-0.8,0-1.2s0-0.8,0-1.2
			c0-0.9,0-2.1,0-3.3s-0.1-2.4,0-3.3c0-0.1,0-0.3,0-0.4c0-0.2,0-0.4,0-0.6c0,0,0-0.1,0-0.2c-0.1-0.3-0.2-0.6,0-0.9v-0.1h0.1
			c0.2,0,0.4,0,0.7,0c0.6,0,1.2-0.1,1.7,0h0.1v0.1c0,0.7,0,1.5-0.1,2.4c-0.1,1.1-0.2,2.3-0.1,3.1c0,0.3,0,0.6,0,1c0,0.3,0,0.6,0,0.9
			c0,0.2,0,0.5,0.1,0.7c0,0.3,0.1,0.6,0.1,0.9c0,0.4,0,0.8,0,1.2c0,1.2,0,2.5-0.1,3.8c0,0.3-0.1,0.5-0.1,0.8s-0.1,0.6-0.1,0.9
			c0,0.4,0,0.9,0,1.3c0,0.7,0,1.4,0,2.2c0.5,0.1,1.1,0,1.7,0c0.6,0,1.2-0.1,1.8,0h0.2v0.2c0,0.2,0,0.4,0.1,0.6
			C-151.5,385.5-151.4,385.9-151.6,386.4L-151.6,386.4z"/>
	</g>
	<g>
		<path class="st0" d="M-230,376.6c0,0.5,0,1,0,1.5c0,0.4,0.1,0.9,0.1,1.3c0,1.3,0,2.6-0.1,4c0,0.5-0.1,0.9-0.1,1.3
			c0,0.9,0.1,0.8,0,1.8c0.8,0.1,1.6-0.1,2.3,0c0,0.5,0.3,0.9,0.1,1.4c-1.3-0.1-2.6-0.1-3.8-0.1c-0.2-1.5,0-1.8,0.1-3.3
			c0-1.2-0.1-2.3,0-3.5c0-0.6,0-1.2,0-1.8c0-1.4-0.2-3-0.1-4.4c0-0.3,0-0.5,0-0.8c0-0.2-0.2-0.5,0-0.8c0.5,0,1-0.1,1.5,0
			C-229.9,374.3-230.1,375.5-230,376.6"/>
	</g>
	<g>
		<path class="st0" d="M-231.2,387.6c0.5,0,1,0,1.5,0c0.6,0,1.3,0,2,0.1c0-0.2,0-0.4-0.1-0.6c0-0.1-0.1-0.3-0.1-0.4
			c-0.3,0-0.6,0-0.9,0c-0.4,0-0.8,0.1-1.2,0h-0.2v-0.2c0-0.6,0-0.8,0-1c0-0.2,0-0.4,0-0.8c0-0.3,0-0.5,0.1-0.8c0-0.2,0-0.4,0.1-0.6
			c0.1-1.1,0.1-2.1,0.1-3c0-0.3,0-0.6,0-1c0-0.2,0-0.5,0-0.7c0-0.2,0-0.4,0-0.6c0-0.2,0-0.5,0-0.7c0-0.2,0-0.5,0-0.7l0,0
			c-0.1-0.6,0-1.3,0-2c0-0.4,0-0.9,0-1.3c-0.3,0-0.5,0-0.8,0c-0.1,0-0.2,0-0.3,0c0,0.1,0,0.2,0.1,0.4c0,0.1,0,0.1,0,0.2
			c0,0.2,0,0.4,0,0.5s0,0.2,0,0.3c0,0.7,0,1.4,0.1,2.1c0,0.8,0.1,1.5,0.1,2.2c0,0.3,0,0.6,0,0.9s0,0.6,0,0.9c0,0.5,0,1.1,0,1.7
			s0,1.2,0,1.8c0,0.5-0.1,0.9-0.1,1.2C-231.2,386.3-231.3,386.7-231.2,387.6 M-227.5,388.1h-0.1c-0.7,0-1.4-0.1-2.1-0.1
			c-0.6,0-1.1,0-1.6-0.1h-0.2v-0.2c-0.1-1-0.1-1.5,0-2.2c0-0.3,0.1-0.7,0.1-1.2c0-0.6,0-1.2,0-1.7c0-0.6,0-1.2,0-1.7
			c0-0.3,0-0.6,0-0.9c0-0.3,0-0.6,0-0.9c0-0.7,0-1.5-0.1-2.2c0-0.7-0.1-1.5-0.1-2.2c0-0.1,0-0.2,0-0.3c0-0.2,0-0.3,0-0.4v-0.1
			c-0.1-0.2-0.1-0.5,0-0.8V373h0.1c0.1,0,0.3,0,0.4,0c0.4,0,0.8-0.1,1.1,0h0.2v0.2c0,0.5,0,1,0,1.5c0,0.7-0.1,1.3,0,1.9
			c0,0.3,0,0.5,0,0.8c0,0.2,0,0.5,0,0.7c0,0.2,0,0.4,0,0.5c0,0.3,0.1,0.5,0.1,0.8c0,0.3,0,0.6,0,1c0,1,0,2-0.1,3
			c0,0.2,0,0.4-0.1,0.6c0,0.2-0.1,0.5-0.1,0.7c0,0.4,0,0.6,0,0.8c0,0.2,0,0.4,0,0.9c0.3,0,0.6,0,0.9,0c0.4,0,0.8-0.1,1.2,0h0.2v0.2
			c0,0.2,0,0.3,0.1,0.5c0.1,0.3,0.1,0.6,0,0.9L-227.5,388.1z"/>
	</g>
	<g>
		<path class="st0" d="M-223.2,372.7c-0.2-0.3-1.1-0.4-1.5-0.4c-0.5,0-0.7,0.4-0.7,0.8c-0.1,1.7,0,3.3,0.1,4.8
			c0.6-0.1,1.7,0,2.4-0.1c0-1.4,0-3-0.2-4.4C-223.1,373.2-223.1,372.9-223.2,372.7 M-222.8,387.2c0.1-2.1,0-4.4-0.1-6.2
			c0-0.6,0-1.2,0-2c-0.8-0.1-1.6,0-2.3,0c0.2,2.8-0.3,5.7,0.2,8.2c-0.5,0-0.9,0.1-1.4,0.1c-0.1-0.5,0-1,0-1.6c0-0.6,0-1.2,0-1.7
			c0-0.3,0.1-0.7,0.1-1c0-0.9,0-2-0.2-3.1c0-0.3-0.1-0.6-0.1-0.9c-0.1-1.7-0.2-3.7,0-5.5c0-0.4,0.1-1.1,0.3-1.4
			c0.3-0.4,1-0.5,1.5-0.6c0.6,0,1.6,0.1,2.1,0.4c0.5,0.4,0.9,1.1,1,1.9c0.1,0.7,0.1,1.6,0.1,2.4c0,1.8,0.3,3.6,0.2,5.5
			c-0.1,0.9,0,1.8-0.1,2.7c-0.1,0.9,0,1.9,0,2.7C-221.8,387.2-222.3,387.3-222.8,387.2"/>
	</g>
	<g>
		<path class="st0" d="M-224.6,372.5C-224.6,372.5-224.7,372.5-224.6,372.5c-0.2,0-0.5,0-0.5,0.6c-0.1,1.7,0,3.2,0.1,4.6
			c0.3,0,0.6,0,0.9,0c0.4,0,0.8,0,1.1,0c0-1.3,0-2.9-0.2-4.2c0-0.1,0-0.2,0-0.3c0-0.1,0-0.2-0.1-0.3
			C-223.5,372.7-224.2,372.5-224.6,372.5 M-225.5,378.1v-0.2c-0.1-1.5-0.2-3.1-0.1-4.8c0-0.6,0.3-0.9,0.9-1c0.4,0,1.4,0.1,1.7,0.5
			l0,0c0.1,0.1,0.1,0.3,0.1,0.5c0,0.1,0,0.2,0,0.2c0.2,1.4,0.2,3,0.2,4.4v0.2h-0.2c-0.4,0-0.9,0.1-1.4,0.1c-0.4,0-0.8,0-1,0
			L-225.5,378.1z M-224.5,371.8c-0.1,0-0.1,0-0.2,0c-0.5,0-1.1,0.2-1.3,0.5c-0.2,0.2-0.2,0.8-0.3,1.2v0.1c-0.3,1.9-0.2,4,0,5.5
			c0,0.2,0,0.4,0.1,0.6c0,0.1,0,0.2,0.1,0.3c0.1,1.1,0.2,2.1,0.2,3.1c0,0.2,0,0.3-0.1,0.5c0,0.2-0.1,0.4-0.1,0.6c0,0.2,0,0.3,0,0.5
			c0,0.4,0,0.8,0,1.2c0,0.1,0,0.2,0,0.3c0,0.4-0.1,0.7,0,1c0.2,0,0.5,0,0.7-0.1c0.1,0,0.2,0,0.3,0c-0.3-1.5-0.2-3.1-0.2-4.6
			c0-1.1,0.1-2.3,0-3.4v-0.2h0.2c0.3,0,0.6,0,0.9,0c0.4,0,0.9,0,1.3,0h0.2v0.2c0,0.8,0,1.4,0,2c0,0.4,0,0.8,0,1.2
			c0,1.5,0.1,3.2,0,4.9c0.3,0,0.6,0,0.8-0.1h0.1V387c0-0.7-0.1-1.6,0-2.4c0-0.4,0-0.9,0-1.3c0-0.5,0-0.9,0-1.4c0-1,0-2-0.1-2.9
			c-0.1-0.8-0.1-1.7-0.1-2.6c0-0.8,0-1.7-0.1-2.4c-0.1-0.5-0.3-1.3-0.9-1.7C-223.1,371.9-223.9,371.8-224.5,371.8 M-226.3,387.5
			h-0.2v-0.1c-0.1-0.4-0.1-0.9,0-1.3c0-0.1,0-0.2,0-0.3c0-0.4,0-0.8,0-1.2c0-0.2,0-0.4,0-0.5c0-0.2,0-0.4,0.1-0.6
			c0-0.1,0-0.3,0.1-0.4c0-0.9,0-2-0.2-3c0-0.1,0-0.2-0.1-0.3c0-0.2-0.1-0.4-0.1-0.6c-0.1-1.4-0.2-3.6,0-5.5v-0.1
			c0-0.5,0.1-1,0.3-1.4c0.3-0.5,1.2-0.6,1.6-0.7c0.7,0,1.7,0.1,2.2,0.4c0.7,0.5,1,1.5,1.1,2c0.1,0.7,0.1,1.6,0.1,2.5
			c0,0.8,0,1.6,0.1,2.5c0.1,1,0.1,2,0.1,3c0,0.5,0,0.9,0,1.4s0,0.9,0,1.4c-0.1,0.8-0.1,1.6,0,2.4v0.5h-0.2c-0.1,0-0.2,0-0.3,0
			c-0.4,0.1-0.8,0.1-1.1,0l-0.2-0.2v-0.2c0.1-1.7,0-3.5,0-5c0-0.4,0-0.8,0-1.2c0-0.5,0-1.1,0-1.8c-0.4,0-0.7,0-1.1,0
			c-0.3,0-0.5,0-0.8,0c0.1,1.1,0,2.2,0,3.2c0,1.7-0.1,3.3,0.2,4.7v0.2h-0.2c-0.2,0-0.3,0-0.5,0C-225.7,387.5-226,387.5-226.3,387.5"
			/>
	</g>
	<g>
		<path class="st0" d="M-135.2,385.9c0.2,0,0.3-0.2,0.5-0.3c0.5-0.3,0.6-0.5,0.7-1.2c0-0.8,0.1-1.7,0.1-2.3c0-0.4-0.1-1.7-0.1-2.2
			c0-0.6,0.1-1.2,0.1-1.8c0.1-1.2,0-2-0.1-3.4c-0.1-0.6,0-1.3-0.3-1.7c-0.2-0.3-0.8-0.5-1.2-0.5c-0.5,0-1.1,0.2-1.5,0.3
			c0,0.8,0.1,1.7,0,2.4c0,0.3-0.1,0.6,0,0.8c0,2.1-0.1,4.4,0,6.7c0.1,1.5,0,2.4,0,3.5c0.5,0.1,0.9-0.1,1.3-0.2
			C-135.5,385.9-135.3,385.9-135.2,385.9 M-138.5,385.1c0.1-0.8,0.1-1.7,0.2-2.4c-0.2-0.7,0-2.2,0-2.8c0-0.4,0-0.9,0-1.3
			c0-1.5,0-3-0.1-4.4c0-0.9-0.1-1.7,0-2.5c0.4,0,1.3-0.1,2.1-0.1c0.4,0,1,0,1.5,0.1c0.2,0.1,0.6,0.2,0.9,0.3c1,0.5,1.1,1.8,1.3,3
			c0.1,1.4,0,2.8,0.1,4.3c0,1.1,0,2.8-0.1,3.8c0,0.5-0.1,1-0.2,1.5c-0.1,0.5-0.2,1-0.3,1.3c-0.1,0.4-0.5,0.8-0.8,1
			c-0.6,0.3-1.3,0.3-2.1,0.4c-0.9,0.2-1.8,0.3-2.4,0.3C-138.6,386.8-138.6,385.9-138.5,385.1"/>
	</g>
	<g>
		<path class="st0" d="M-136.7,385.9c0.3,0,0.6-0.1,0.8-0.2c0.1,0,0.1,0,0.2-0.1c0.1,0,0.2,0,0.3,0s0.1,0,0.2,0l0,0
			c0.1,0,0.1-0.1,0.2-0.1c0.1-0.1,0.1-0.1,0.2-0.2c0.4-0.2,0.5-0.4,0.6-1c0-0.7,0.1-1.6,0.1-2.3c0-0.2,0-0.5,0-0.8
			c0-0.5-0.1-1.1,0-1.4c0-0.4,0-0.8,0.1-1.2c0-0.2,0-0.4,0-0.6c0.1-1.2,0-2-0.1-3.3c0-0.2,0-0.3,0-0.5c0-0.4-0.1-0.9-0.2-1.1
			c-0.1-0.2-0.7-0.4-1-0.4c-0.2,0-0.5,0.1-0.7,0.1s-0.4,0.1-0.6,0.1c0,0.4,0,0.8,0,1.1c0,0.4,0,0.7,0,1.1c0,0.1,0,0.1,0,0.2
			c0,0.2,0,0.4,0,0.6l0,0l0,0c0,0.6,0,1.1,0,1.7c0,1.6-0.1,3.3,0,5c0,1,0,1.7,0,2.5C-136.7,385.4-136.7,385.7-136.7,385.9
			 M-136.7,386.4c-0.1,0-0.2,0-0.3,0h-0.2v-0.2c0-0.4,0-0.7,0-1.1c0-0.7,0-1.4,0-2.4c-0.1-1.7,0-3.4,0-5c0-0.6,0-1.2,0-1.7
			c0-0.2,0-0.5,0-0.7v-0.2c0-0.3,0-0.7,0-1.1s0-0.9,0-1.3v-0.2h0.2c0.2,0,0.4-0.1,0.7-0.1c0.3-0.1,0.5-0.1,0.8-0.1
			c0.4,0,1.2,0.2,1.4,0.6c0.2,0.3,0.2,0.8,0.3,1.3c0,0.2,0,0.3,0,0.5c0.1,1.4,0.2,2.2,0.1,3.4c0,0.2,0,0.4,0,0.6
			c0,0.4-0.1,0.8-0.1,1.2c0,0.3,0,0.9,0,1.4c0,0.3,0,0.6,0,0.8c0,0.7-0.1,1.6-0.1,2.3c-0.1,0.8-0.2,1-0.8,1.4
			c-0.1,0-0.1,0.1-0.2,0.1c-0.1,0.1-0.2,0.2-0.3,0.2c-0.1,0-0.2,0-0.3,0s-0.1,0-0.2,0s-0.1,0-0.2,0.1
			C-136,386.3-136.3,386.4-136.7,386.4 M-138.3,387.2L-138.3,387.2c0.5,0,1.2-0.1,2.2-0.3c0.2,0,0.5-0.1,0.7-0.1
			c0.5,0,1-0.1,1.4-0.3c0.2-0.1,0.6-0.5,0.7-0.9c0.1-0.2,0.1-0.4,0.2-0.6c0-0.2,0.1-0.4,0.1-0.7c0.1-0.3,0.1-0.7,0.2-1.1v-0.3
			c0-1,0.1-2.7,0.1-3.8c0-0.5,0-1,0-1.5c0-1,0-1.9-0.1-2.8c-0.1-1.2-0.2-2.4-1.1-2.9c-0.2-0.1-0.6-0.2-0.8-0.3
			c-0.4-0.1-0.8-0.1-1.2-0.1c-0.1,0-0.2,0-0.3,0c-0.3,0-0.7,0-1,0.1c-0.3,0-0.6,0-0.8,0c0,0.5,0,1.1,0,1.7c0,0.2,0,0.4,0,0.5v0.6
			c0.1,1.3,0.1,2.6,0.1,3.9c0,0.3,0,0.6,0,0.9c0,0.1,0,0.3,0,0.4c0,0.1,0,0.3,0,0.5c0,0.7-0.1,1.7,0,2.2l0,0l0,0
			c-0.1,0.5-0.1,1-0.2,1.6c0,0.3,0,0.6-0.1,0.8l0,0C-138.4,386-138.4,386.7-138.3,387.2 M-138.3,387.7c-0.1,0-0.1,0-0.2,0h-0.2v-0.2
			c-0.1-0.6-0.1-1.4,0-2.4c0-0.3,0-0.5,0.1-0.8c0-0.5,0.1-1.1,0.2-1.6c-0.1-0.6-0.1-1.6,0-2.3c0-0.2,0-0.4,0-0.5s0-0.3,0-0.4
			c0-0.3,0-0.6,0-0.9c0-1.3,0-2.6-0.1-3.8v-0.6c0-0.2,0-0.4,0-0.5c0-0.7-0.1-1.3,0-2v-0.2h0.2c0.2,0,0.6,0,1-0.1c0.3,0,0.7,0,1-0.1
			c0.1,0,0.2,0,0.3,0c0.4,0,0.9,0,1.3,0.1c0.2,0.1,0.7,0.2,0.9,0.3c1.1,0.6,1.3,1.9,1.4,3.2c0.1,0.9,0.1,1.9,0.1,2.8
			c0,0.5,0,1,0,1.5c0,1.1,0,2.8-0.1,3.8v0.3c0,0.4-0.1,0.8-0.2,1.2c-0.1,0.2-0.1,0.4-0.1,0.6c0,0.3-0.1,0.5-0.2,0.7
			c-0.1,0.4-0.5,0.9-0.9,1.1c-0.5,0.2-1,0.3-1.5,0.3c-0.2,0-0.4,0-0.7,0.1C-137.1,387.6-137.8,387.7-138.3,387.7"/>
	</g>
	<g>
		<path class="st0" d="M-126.6,373.8c-0.9,0-2-0.2-2.9,0c0,1.5,0,3.4,0,5c0.3,0.1,0.6,0.1,1,0.1c0.5,0,1.1-0.1,1.5,0.1
			c0,0.3,0,0.6,0,0.8c-0.8,0.1-1.8,0.1-2.5,0.3c-0.1,1.2-0.2,1.4-0.1,2.8c0,1,0.1,2.1,0.2,3.1c0.8,0,1.7-0.1,2.6-0.1
			c0,0.4,0.1,0.8,0.1,1.2c-0.3,0.1-0.7,0.1-1.1,0.1c-0.3,0-0.7,0-1,0c-0.6,0-1.4,0.2-2,0.1c-0.2-0.3-0.1-0.6-0.1-0.9
			c0-0.9-0.1-1.8-0.1-2.8c0-0.5,0.1-0.3,0.1-0.9c0-0.6,0-1.2,0-1.9c0-1.2,0-2.3,0-3.6c0-0.6,0-1.2,0-1.8c0-0.9,0-1.8,0.1-2.6
			c1-0.2,2.4-0.2,3.5-0.3c0.3,0,0.7,0,0.9,0.1C-126.4,373-126.5,373.4-126.6,373.8"/>
	</g>
	<g>
		<path class="st0" d="M-130.7,387.1c0.3,0,0.8,0,1.2-0.1c0.2,0,0.5-0.1,0.7-0.1s0.3,0,0.5,0s0.3,0,0.5,0h0.1c0.2,0,0.5,0,0.7-0.1
			c0-0.1,0-0.3-0.1-0.4c0-0.1,0-0.2-0.1-0.4c-0.2,0-0.5,0-0.7,0c-0.6,0-1.2,0.1-1.7,0.1h-0.2v-0.2c-0.1-0.9-0.1-2-0.2-3.1
			c-0.1-1.2,0-1.5,0-2.3c0-0.2,0-0.3,0.1-0.5v-0.1h0.1c0.5-0.2,1.3-0.2,2-0.3c0.2,0,0.3,0,0.4,0c0-0.2,0-0.3,0-0.5
			c-0.2-0.1-0.5-0.1-0.8-0.1c-0.2,0-0.3,0-0.5,0h-0.1c-0.3,0-0.6,0-0.9-0.1h-0.1v-0.1c0-0.6,0-1.3,0-2c0-1,0-2.1,0-3v-0.2h0.2
			c0.7-0.1,1.5-0.1,2.3,0c0.2,0,0.4,0,0.5,0c0.1-0.2,0.1-0.5,0.2-0.8c-0.2,0-0.5,0-0.7,0s-0.4,0-0.7,0c-0.9,0-1.8,0.1-2.6,0.2
			c0,0.8,0,1.6-0.1,2.4c0,0.3,0,0.6,0,0.9c0,0.3,0,0.6,0,0.9c-0.1,0.9,0,1.7,0,2.6c0,0.3,0,0.7,0,1c0,0.3,0,0.6,0,1
			c0,0.3,0,0.6,0,0.9c0,0.3,0,0.4-0.1,0.5c0,0.1,0,0.1,0,0.4c0,0.3,0,0.6,0.1,0.9c0,0.6,0.1,1.2,0.1,1.9c0,0.1,0,0.1,0,0.2
			C-130.7,386.8-130.7,386.9-130.7,387.1 M-130.6,387.5C-130.7,387.5-130.7,387.5-130.6,387.5h-0.2l-0.2-0.1
			c-0.2-0.3-0.1-0.5-0.1-0.8c0-0.1,0-0.1,0-0.2c0-0.6-0.1-1.2-0.1-1.8c0-0.3,0-0.6-0.1-0.9c0-0.3,0-0.4,0-0.5c0-0.1,0-0.2,0.1-0.4
			c0-0.3,0-0.6,0-0.9s0-0.6,0-0.9s0-0.7,0-1c0-0.8,0-1.7,0-2.6c0-0.3,0-0.6,0-0.9c0-0.3,0-0.6,0-1c0-0.9,0-1.8,0.1-2.6v-0.2h0.2
			c0.8-0.1,1.9-0.2,2.8-0.2c0.2,0,0.5,0,0.7,0c0.3,0,0.7,0,1,0.1h0.2v0.2c0,0.5-0.1,0.9-0.3,1.3l-0.1,0.1h-0.1c-0.2,0-0.5,0-0.7,0
			c-0.7,0-1.4-0.1-2,0c0,0.9,0,1.9,0,2.8c0,0.6,0,1.3,0,1.8c0.2,0,0.4,0,0.6,0h0.2c0.1,0,0.3,0,0.4,0c0.4,0,0.8,0,1.1,0.2h0.1v0.1
			c0.1,0.3,0,0.6,0,0.9v0.1h-0.1c-0.2,0-0.4,0-0.6,0c-0.6,0-1.3,0.1-1.7,0.2c0,0.1,0,0.3,0,0.4c-0.1,0.8-0.1,1.1,0,2.2
			c0,1,0.1,2,0.2,2.9c0.5,0,1,0,1.5-0.1c0.3,0,0.6,0,0.9-0.1h0.2v0.2c0,0.2,0,0.3,0.1,0.5c0,0.2,0.1,0.4,0.1,0.7v0.1h-0.1
			c-0.3,0.1-0.7,0.1-1,0.1h-0.1c-0.2,0-0.3,0-0.5,0s-0.3,0-0.5,0s-0.5,0-0.7,0.1C-129.9,387.4-130.3,387.5-130.6,387.5"/>
	</g>
	<g>
		<path class="st0" d="M-172.1,370.5c-0.1,1.1-0.2,2.1-0.2,3.1c0,0.5,0.1,1.1,0.1,1.6s-0.1,1,0,1.5c0.2,3,0.3,5.6,0.4,8.5
			c-1.1,0.1-1.8,0.1-2.8,0.2c-0.1,0-0.2-0.1-0.3-0.2c-0.4-1.2-0.9-2.3-1.3-3.5c-0.4-1.2-0.9-2.4-1.2-3.7c-0.3-1.2-0.8-1.8-1-3.1
			c-0.1-0.6-0.4-1-0.6-1.7c-0.2-0.6-0.3-1.3-0.4-1.9c-0.2-0.6-0.5-1.2-0.7-1.9c-0.5-1.3-0.6-2.5-0.6-2.5c-0.1,3.7-0.1,7.2,0,11
			c0,0.2-0.1,0.4-0.1,0.6c0,1.4-0.2,2.7-0.1,4.3c0.1,1.2,0.1,2.3-0.1,3.3c-0.9,0.1-1.5,0.2-2.2-0.1c0.7-5.3,0.2-10.9,0.2-16.7
			c0-1.3-0.1-2.7,0.1-4c0-0.6,0-1.1,0-1.7c0.1-0.6-0.1-1.1,0.2-1.7c0.8,0.1,1.2-0.1,2.2-0.1c0.3,0.4,0.4,0.9,0.6,1.3
			c0.5,1.3,0.9,2.7,1.5,4c0.3,1,0.5,1.9,0.7,2.9s0.8,2.8,1.2,3.7c0.1,0.3,0.2,0.9,0.3,1.1c0.2,0.5,0.3,1,0.4,1.5
			c0.4,1.7,1.3,4.3,1.5,5.4c0.2-3.2-0.3-8.6-0.3-12c0-1.5-0.1-3,0-4.6c0-0.7,0.1-1.7,0.1-2.5c0-0.7-0.1-1.4,0.2-2.1
			c0.6-0.1,1.5-0.1,2.2,0C-171.8,363.7-171.9,367.2-172.1,370.5"/>
	</g>
	<g>
		<path class="st0" d="M-180.7,366.8L-180.7,366.8L-180.7,366.8z M-182.7,385.8c0.5,0.2,1.1,0.1,1.8,0.1l0,0
			c0.2-0.9,0.2-1.8,0.1-3.2c-0.1-1,0-1.9,0-2.8c0-0.5,0.1-1,0.1-1.6c0-0.1,0-0.2,0-0.3s0-0.2,0-0.3c-0.1-4.4-0.1-7.7,0-11.1l0,0
			c0-0.1,0-0.1,0-0.1l0.1-0.1h0.2v0.1l0,0l0,0c0,0.1,0.1,1.2,0.5,2.4c0.1,0.3,0.2,0.6,0.3,0.9c0.1,0.3,0.3,0.7,0.4,1
			c0.1,0.3,0.1,0.5,0.2,0.8c0.1,0.4,0.1,0.8,0.3,1.2c0.1,0.3,0.2,0.5,0.3,0.7c0.1,0.3,0.3,0.6,0.3,1c0.1,0.7,0.3,1.3,0.5,1.8
			c0.2,0.4,0.3,0.8,0.4,1.3c0.2,0.9,0.5,1.7,0.8,2.6c0.1,0.4,0.3,0.7,0.4,1.1c0.2,0.7,0.5,1.4,0.8,2.1c0.2,0.5,0.4,0.9,0.5,1.4
			l0.1,0.1c0.5,0,0.9-0.1,1.3-0.1c0.4,0,0.8,0,1.3-0.1c0-0.7-0.1-1.4-0.1-2c-0.1-2.1-0.1-4.1-0.3-6.3c0-0.5,0-1,0-1.5l0,0
			c0-0.3,0-0.6-0.1-1c0-0.2,0-0.4,0-0.6c-0.1-0.8,0-1.5,0.1-2.3c0-0.3,0.1-0.5,0.1-0.8c0.1-3.1,0.3-6.5,0.4-9.7
			c-0.6-0.1-1.3-0.1-1.9,0c-0.2,0.5-0.1,0.9-0.1,1.5c0,0.2,0,0.3,0,0.5c0,0.5-0.1,1.2-0.1,1.7c0,0.3,0,0.5-0.1,0.7
			c0.1,1.4,0.1,2.5,0.1,3.6c0,0.4,0,0.9,0,1.3c0,1.4,0.1,3,0.2,4.8c0.1,2.6,0.2,5.3,0.1,7.2l-0.1,1.2l-0.3-1.2
			c-0.1-0.5-0.3-1.2-0.6-2c-0.3-1.1-0.7-2.4-0.9-3.3l-0.1-0.2c-0.1-0.4-0.2-0.8-0.4-1.2c-0.1-0.2-0.2-0.4-0.2-0.7
			c0-0.2-0.1-0.3-0.1-0.4c-0.4-0.9-1-2.7-1.2-3.7c-0.2-0.8-0.4-1.6-0.6-2.5l-0.1-0.5c-0.3-0.7-0.6-1.5-0.8-2.2
			c-0.2-0.6-0.4-1.2-0.6-1.8c-0.1-0.1-0.1-0.3-0.2-0.5c-0.1-0.3-0.2-0.5-0.3-0.8c-0.4,0-0.7,0-1,0s-0.6,0.1-1,0
			c-0.1,0.3-0.1,0.6-0.1,0.9c0,0.2,0,0.4,0,0.6c0,0.3,0,0.6,0,0.9c0,0.2,0,0.5,0,0.7c-0.1,1-0.1,2.1-0.1,3.1c0,0.3,0,0.6,0,0.9
			c0,1.6,0,3.3,0.1,4.9C-182.4,378.2-182.3,382.1-182.7,385.8 M-181.9,386.3c-0.4,0-0.7-0.1-1.1-0.2l-0.1-0.1v-0.1
			c0.5-3.8,0.4-7.6,0.3-11.8c0-1.6-0.1-3.2-0.1-4.9c0-0.3,0-0.6,0-0.9c0-1,0-2.1,0.1-3.1c0-0.2,0-0.5,0-0.7c0-0.3,0-0.6,0-1
			c0-0.2,0-0.4,0-0.6c0-0.4,0-0.7,0.2-1.1v-0.1h0.1c0.4,0,0.7,0,1,0s0.7-0.1,1.1,0h0.1v0.1c0.2,0.3,0.3,0.6,0.4,0.9
			c0.1,0.2,0.1,0.3,0.2,0.5c0.2,0.6,0.4,1.2,0.7,1.8c0.5,0.6,0.7,1.4,1,2.1l0.1,0.5c0.2,0.8,0.4,1.6,0.6,2.5c0.2,1,0.8,2.8,1.2,3.7
			c0.1,0.1,0.1,0.3,0.1,0.5c0.1,0.2,0.1,0.5,0.2,0.6c0.2,0.4,0.3,0.9,0.4,1.3l0.1,0.2c0.2,1,0.6,2.2,0.9,3.3c0.1,0.3,0.2,0.7,0.3,1
			c0-1.8-0.1-3.9-0.2-6.1c-0.1-1.8-0.2-3.4-0.2-4.8c0-0.4,0-0.9,0-1.3c0-1.1,0-2.2,0.1-3.3c0-0.2,0-0.5,0.1-0.7
			c0-0.6,0.1-1.2,0.1-1.7c0-0.2,0-0.3,0-0.5c0-0.6,0-1.1,0.2-1.7v-0.1h0.1c0.6-0.1,1.6-0.1,2.2,0h0.2v0.2c-0.1,3.2-0.3,6.7-0.4,9.8
			l0,0c0,0.3,0,0.6-0.1,0.8c-0.1,0.8-0.1,1.5-0.1,2.2c0,0.2,0,0.4,0,0.5c0,0.3,0.1,0.7,0.1,1v0.1c0,0.5-0.1,0.9,0,1.4
			c0.2,2.2,0.2,4.2,0.3,6.3c0,0.7,0.1,1.5,0.1,2.2v0.2h-0.2c-0.6,0-1.1,0.1-1.5,0.1c-0.4,0-0.8,0-1.3,0.1c-0.2,0-0.4-0.1-0.5-0.3
			c-0.2-0.5-0.3-0.9-0.5-1.4c-0.3-0.7-0.5-1.4-0.8-2.2c-0.1-0.4-0.2-0.7-0.4-1.1c-0.3-0.8-0.6-1.7-0.8-2.6c-0.1-0.5-0.3-0.9-0.4-1.3
			c-0.2-0.6-0.4-1.1-0.5-1.9c-0.1-0.3-0.2-0.6-0.3-0.9c-0.1-0.2-0.2-0.5-0.3-0.8c-0.1-0.4-0.2-0.8-0.3-1.2c0-0.2-0.1-0.5-0.2-0.8
			c-0.1-0.3-0.2-0.6-0.3-1c-0.1-0.3-0.2-0.6-0.3-0.9c-0.1-0.2-0.2-0.5-0.3-0.8c0,2.8,0,5.7,0.1,9.3c0,0.1,0,0.2,0,0.3
			c0,0.1,0,0.2,0,0.3c0,0.5,0,1.1-0.1,1.6c-0.1,0.8-0.1,1.7,0,2.7c0.1,1.4,0.1,2.4-0.1,3.4v0.1h-0.3
			C-181.3,386.3-181.6,386.3-181.9,386.3"/>
	</g>
	<g>
		<path class="st0" d="M-205.3,394.7c-0.5-0.7-2.2-1.2-3.3-1.2c-1.4,0.1-1.8,1.1-1.8,2.2c-0.2,4.7-0.1,9.2,0.3,13.5
			c1.7-0.2,3.9-0.1,5.8-0.3c0-3.9-0.1-8.4-0.6-12.4C-205.1,395.9-205.1,395.2-205.3,394.7 M-204.1,430.7c0.3-5.9-0.2-7.8-0.3-12.9
			c-0.1-1.6-0.1-3.3-0.1-5.5c-2.1-0.2-3.5,0.1-5.4,0c0.1,2-0.1,3.7-0.2,5.5c-0.1,5.1-0.4,7.7,0.6,13c-1.4,0.1-2.8,0.5-4.1,0.5
			c-0.4-1.4-0.2-2.9-0.1-4.5c0.2-2.4,0.1-5,0-7.5c-0.1-2.5,0-4.1-0.2-6.6c-0.4-4.8-0.5-10.5,0.1-15.5c0.1-1.2,0.4-3.2,1-4.1
			c0.7-1.1,2.9-1.5,4-1.6c1.7-0.1,3.9,0.1,5,0.9c1.5,1.1,2.4,3.3,2.8,5.4c0.3,1.9,0.2,4.5,0.2,6.8c-0.1,5,0.7,8.2,0.5,13.4
			c-0.2,2.6-0.1,5.2-0.3,7.7c-0.3,2.6,0,2.6,0,4.9C-201.4,430.6-202.9,431-204.1,430.7"/>
	</g>
	<g>
		<path class="st0" d="M-178.2,406.8c-0.1,1.8-0.4,3.4-0.3,5.1c0.1,0.9,0.2,1.8,0.2,2.6c-0.1,0.8-0.1,1.6-0.1,2.4
			c0.4,4.9,0.5,8,0.7,12.8c-1.9,0.2-3.1,0.2-4.8,0.3c-0.2,0-0.4-0.1-0.5-0.3c-0.7-2-1.6-3.8-2.2-5.8c-0.7-2-1.5-2.7-2-4.8
			c-0.5-2-1.3-3-1.6-5.2c-0.2-1-0.7-1.7-1-2.8c-0.3-1-0.5-2.1-0.7-3.2c-0.3-1-0.8-2-1.1-3.1c-0.4-1-0.6-3-0.9-4.1
			c-0.1,6.1-0.1,11.8,0,18.2c0,0.3-0.1-0.6-0.1-0.3c0,2.4-0.4,4.4-0.2,7.1c0.1,2,0.1,4.1-0.2,5.9c-1.5,0.2-2.6,0.3-3.7-0.2
			c1.1-8.7,0.5-17.1,0.5-26.6c0-2.2-0.1-4.4,0.1-6.6c0.1-0.9,0.1-1.8,0.2-2.8c0.1-0.9-0.3-1.9,0.1-2.8c1.4,0.1,2.1-0.2,3.7-0.1
			c0.5,0.7,0.7,1.5,1,2.2c0.9,2.2,1.6,4.4,2.5,6.6c0.5,1.7,0.9,3.2,1.3,4.9c0.3,1.7,1.4,4.6,2.1,6.1c0.2,0.5,0.3,1.4,0.6,1.9
			c0.3,0.8,0.5,1.7,0.7,2.4c0.5,2.2,2,4.2,2.5,6.6c0.3-5.2-0.5-12-0.5-17.6c0-2.5-0.1-5,0.1-7.5c0.1-1.1,0.2-2.8,0.2-4.1
			c0-1.2-0.2-2.4,0.3-3.5c1.1-0.2,2.6-0.2,3.7,0C-177.7,395.7-177.9,401.4-178.2,406.8"/>
	</g>
	<g>
		<path class="st0" d="M-170.2,390.3c-0.1,0.1,0.6,0.3,0.5,0.9c-1,3-0.5,5.1-0.4,5.5c0.1,2.8,0,5.5,0.5,8.2c0.4,2.8,0.1,5.6,0.1,8.4
			c0,2.8,0.3,3.3,0.2,6.2c-0.1,3.4,0,5.5-0.1,7.4c0,0.8,0.3,1.5,0.2,2.1c0.7,0.1-1.4,0.2-2.8,0.2c-1,0-1.7-0.3-1.2-0.4
			c0.1-0.7,0.1-1.8,0.1-2.7c-0.1-2.4-0.2-4.7-0.2-6.3c-0.1-2.5,0.2-2.7,0.2-5.3c-0.1-2.4,0-5-0.2-7.7c-0.2-2.5-0.1-8.1-0.1-12.1
			c0-2.4-0.5-3.6-0.2-4.1C-173.1,389.6-169.1,390.1-170.2,390.3"/>
	</g>
	<g>
		<path class="st0" d="M-152.6,394.7c-2.5-0.1-6.1-1-8.5-0.6c-0.1,1.9-0.3,4.4-0.2,6.6c0,2.3,0.3,5,0.3,7.1c0.8,0.3,1.7,0.2,2.7,0.2
			c1.3,0.1,3.5,0.1,4.6,0.7c0.1,0.8,0.1,1.5-0.1,2.2c-2.1,0.2-5.6,0.1-7.5,0.7c-0.3,3.1-0.4,4.5-0.1,8.1c0.1,2.7,0.6,5.8,0.8,8.4
			c2.1,0,5.2,0.1,7.6,0c0.1,1,0.4,1.9,0.4,2.9c-0.9,0.3-1.9,0.3-2.9,0.3c-0.9,0.1-2.5-0.1-3.3-0.1c-1.7,0.1-3.9,0.1-5.5,0.1
			c-0.5-0.7-0.3-1.5-0.3-2.3c-0.1-2.4-0.3-4.9-0.4-7.3c-0.1-1.4,0.2-2.9,0.3-4.4c0-1.6,0.1-2.1,0.1-3.8c0-3.1-0.1-6.1,0.1-9.4
			c0.1-1.5-0.1-3.2,0-4.9c0.1-2.4,0.1-5.4,0.2-7.6c2.8-0.4,6.9-0.2,9.8-0.4c0.9-0.1,2,0.1,2.7,0.3
			C-152,392.7-152.2,393.8-152.6,394.7"/>
	</g>
	<g>
		<path class="st0" d="M-145.8,400.5c0.1,1.2,0,2.4,0.1,3.6c0.1,1.1,0.2,2.1,0.2,3.1c-0.1,3.2-0.1,7.9-0.2,11.3
			c-0.1,1.1-0.3,2.2-0.3,3.3c0,2.2,0.2,4.3,0.1,6.7c1.8,0.3,3.9-0.3,5.6,0.1c-0.1,1.2,0.6,2.2,0.2,3.3c-3.2-0.2-6.2-0.2-9.1-0.3
			c-0.4-3.6,0.1-6.7,0.3-10.4c0.1-2.8-0.2-5.7-0.1-8.4c0.1-1.5,0.1-4.6,0.1-6.1c0.1-3.4-0.5-7.4-0.3-10.6c0-0.7,0.1-1.3,0.1-1.9
			c-0.1-0.6-0.4-1.2-0.1-1.9c1.1,0,2.5-0.4,3.6-0.1C-145.6,394.9-146,397.8-145.8,400.5"/>
	</g>
	<g>
		<path class="st0" d="M-149.1,431.3c1.3,0.1,2.5,0.1,3.8,0.1c1.6,0,3.3,0.1,5,0.2c0.2-0.6,0.1-1.2-0.1-1.8
			c-0.1-0.4-0.2-0.8-0.2-1.2c-0.8-0.1-1.7-0.1-2.6,0c-1,0.1-1.9,0.1-2.9,0h-0.1v-0.2c0.1-1.5,0-2.9,0-4.2c0-0.8,0-1.6,0-2.5
			c0-0.6,0.1-1.2,0.1-1.8c0.1-0.5,0.1-1,0.1-1.4c0.1-2.5,0.2-5.6,0.2-8.3c0-1.1,0-2.1,0-3c0-0.6-0.1-1.1-0.1-1.8
			c0-0.4-0.1-0.9-0.1-1.3c-0.1-0.6-0.1-1.2-0.1-1.8c0-0.6,0-1.2-0.1-1.8l0,0c-0.1-1.5-0.1-3.1,0-4.8c0.1-1.2,0.1-2.4,0.1-3.5
			c-0.7-0.1-1.5,0-2.4,0c-0.3,0-0.6,0.1-0.9,0.1c-0.2,0.5,0,0.9,0.1,1.3c0,0.1,0.1,0.2,0.1,0.4c0,0.4,0,0.8,0,1.2c0,0.3,0,0.5,0,0.8
			c-0.1,1.6,0.1,3.3,0.2,5.2c0.1,1.8,0.2,3.7,0.2,5.4c0,0.8,0,1.9-0.1,3.1c0,1.1,0,2.3-0.1,3c-0.1,1.3,0,2.8,0,4.1
			c0,1.4,0.1,2.9,0,4.3c-0.1,1-0.1,1.9-0.2,2.8C-149.2,426.4-149.4,428.7-149.1,431.3 M-140,432h-0.1c-1.8-0.1-3.5-0.1-5.1-0.2
			c-1.4,0-2.7-0.1-4-0.1h-0.1v-0.1c-0.3-2.7-0.1-5.1,0.1-7.7c0.1-0.9,0.2-1.8,0.2-2.7c0.1-1.4,0-2.8,0-4.2s-0.1-2.8,0-4.2
			c0-0.7,0-1.9,0.1-3c0-1.1,0-2.3,0.1-3.1c0.1-1.7-0.1-3.6-0.2-5.4c-0.1-1.8-0.2-3.6-0.2-5.2c0-0.3,0-0.5,0-0.8c0-0.4,0.1-0.8,0-1.1
			c0-0.1-0.1-0.2-0.1-0.3c-0.1-0.5-0.3-1,0-1.6v-0.1h0.1c0.3,0,0.7-0.1,1-0.1c0.9-0.1,1.8-0.2,2.6,0h0.1v0.1c0,1.2,0,2.5-0.1,3.7
			c-0.1,1.7-0.2,3.2,0,4.7c0.1,0.6,0.1,1.2,0.1,1.8s0,1.2,0.1,1.7c0,0.4,0.1,0.9,0.1,1.3c0.1,0.6,0.1,1.2,0.1,1.8c0,0.9,0,1.9,0,3
			c0,2.8-0.1,5.9-0.2,8.3c0,0.5-0.1,1-0.1,1.5c-0.1,0.6-0.1,1.2-0.1,1.8c0,0.8,0,1.7,0,2.4c0,1.3,0.1,2.6,0,4.1
			c0.9,0.1,1.8,0.1,2.7,0c0.9-0.1,1.9-0.1,2.8,0h0.1v0.1c0,0.4,0.1,0.9,0.2,1.3c0.1,0.7,0.3,1.3,0,2.1L-140,432z"/>
	</g>
	<g>
		<path class="st0" d="M-224.5,429.3c0.4-0.1,0.8-0.5,1.3-0.8c1.3-0.7,1.6-1.3,1.8-3.2c0.1-2.1,0.2-4.4,0.2-6.2
			c0-1.1-0.2-1.9-0.2-3.1c0-1.5,0.2-3,0.3-4.8c0.2-3.3,0.1-5.3-0.3-8.9c-0.2-1.6-0.1-4-0.8-5.1c-0.4-0.7-2.2-1.3-3.1-1.3
			c-1.3,0.1-2.5,0.8-3.7,0.8c-0.1,2.1,0.3,4.7,0.2,6.7c-0.1,0.8-0.2,1.5-0.1,2.2c-0.1,5.4-0.4,9-0.1,15c0.2,3.9,0,6.3,0,9.3
			c1.4,0.3,2.1-0.3,3.1-0.6C-225.3,429.3-224.8,429.4-224.5,429.3 M-232.4,427.4c0.2-2.2,0.2-4.4,0.6-6.4c-0.5-1.8-0.1-3.1,0-4.7
			c0-1.1-0.1-2.3,0-3.5c0.1-3.9-0.2-7.9-0.4-11.8c-0.1-2.3-0.4-4.5-0.1-6.5c1.5-0.2,3.3-0.4,5-0.5c1.1,0,2.4-0.4,3.7-0.1
			c0.6,0.2,2.2,0.5,2.8,0.8c2.7,1.3,3,5.2,3.3,8.5c0.3,3.7,0.1,7.3,0.2,11.4c0,2.9-0.1,4.6-0.2,7.4c-0.1,1.3-0.6,2.7-0.9,3.9
			c-0.4,1.3-0.5,2.2-0.9,3.1c-0.4,0.9-1.3,2-2.1,2.4c-1.6,0.8-3.5,1.2-5.6,1.5c-1.9,0.3-3.7,1.1-5.6,1
			C-233,432-232.7,429.5-232.4,427.4"/>
	</g>
	<g>
		<path class="st0" d="M-130.3,396.2c-0.4-0.6-1.9-1.1-2.9-1c-1.2,0.1-1.6,1-1.6,1.9c-0.2,4-0.1,9.1,0.2,12.7
			c1.5-0.2,3.5-0.1,5.1-0.3c0-3.4-0.1-8.3-0.5-11.8C-130.1,397.2-130.1,396.6-130.3,396.2 M-129.3,433.7c0.2-5.2-0.1-12-0.2-16.4
			c-0.1-1.4-0.1-2.9-0.1-4.8c-1.8-0.2-3.1,0.1-4.8,0c0.5,6.7-0.7,13.7,0.5,19.8c-1.3,0.1-2.3,0.3-3.4,0.3c-0.3-1.2-0.1-3,0-4.5
			c0.1-1.4-0.1-3-0.1-4.2c0-0.8-0.1-1.7,0-2.6c0.1-2.2,0.1-3.6-0.2-6.2c-0.1-0.7-0.1-2-0.2-2.7c-0.3-4.1-0.5-10,0.1-14.4
			c0.1-1.1,0.2-2.6,0.8-3.4c0.6-0.9,2.5-1.3,3.6-1.4c1.5-0.1,3.3,0.3,4.3,0.9c1.3,0.9,2.1,2.8,2.4,4.5c0.3,1.7,0.3,4.9,0.3,6.9
			c-0.1,4.3,0.6,8.9,0.4,13.4c-0.2,2.2-0.1,5.2-0.2,7.4c-0.2,2.2-0.1,5.1-0.1,7.1C-127,433.7-128.2,434-129.3,433.7"/>
	</g>
	<g>
		<path class="st0" d="M-133.1,395.4c-0.1,0-0.1,0-0.2,0c-1.2,0.1-1.5,1-1.5,1.7c-0.2,4.2-0.1,9.1,0.2,12.5c0.7-0.1,1.4-0.1,2.1-0.1
			c0.9,0,1.8,0,2.7-0.1c0-2.1,0-7.9-0.5-11.6c0-0.2-0.1-0.4-0.1-0.6c0-0.3-0.1-0.7-0.2-0.9C-130.8,395.8-132.1,395.4-133.1,395.4
			 M-134.8,410v-0.2c-0.3-3.4-0.4-8.5-0.2-12.8c0-1.2,0.6-2,1.8-2c1.1-0.1,2.6,0.4,3.1,1.1l0,0c0.2,0.3,0.2,0.6,0.2,1
			c0,0.2,0,0.4,0.1,0.6c0.4,2.6,0.5,6.5,0.5,11.8v0.2h-0.1c-0.9,0.1-1.9,0.1-2.9,0.2c-0.8,0-1.6,0-2.3,0.1H-134.8z M-129.1,433.6
			c0.7,0.1,1.6,0,2.4-0.1c0.2,0,0.4-0.1,0.5-0.1V433c-0.1-1.9-0.1-4.5,0.1-6.6c0.1-1.1,0.1-2.4,0.1-3.6c0-1.3,0-2.6,0.1-3.7
			c0.1-2.4,0-4.8-0.2-7.2c-0.1-2-0.3-4.1-0.2-6.2c0-2.1,0-5.2-0.3-6.9c-0.2-1.2-0.9-3.4-2.4-4.4c-1-0.6-2.7-1-4.2-0.9
			c-1.3,0.1-2.9,0.5-3.4,1.3c-0.4,0.7-0.6,1.9-0.7,3v0.3c-0.6,4.5-0.4,10.6-0.1,14.4c0,0.3,0,0.7,0,1c0,0.6,0,1.2,0.1,1.7
			c0.3,2.5,0.3,3.9,0.2,5.8v0.4c0,0.6,0,1.2,0,1.7c0,0.3,0,0.6,0,0.8c0,0.5,0,1,0.1,1.6c0,0.9,0.1,1.7,0,2.6c0,0.2,0,0.4,0,0.6
			c-0.1,1.3-0.2,2.7,0,3.7c0.7,0,1.4-0.1,2.1-0.1c0.3,0,0.6-0.1,1-0.1c-0.7-3.6-0.6-7.4-0.5-11.4c0.1-2.7,0.2-5.5,0-8.2v-0.2h0.2
			c0.7,0,1.4,0,2.1,0c0.8,0,1.7-0.1,2.7,0h0.2v0.2c0,1.9,0,3.4,0.1,4.8c0,0.8,0,1.6,0.1,2.5C-129.1,424-128.9,429.3-129.1,433.6
			 M-128.3,434c-0.3,0-0.7,0-1-0.1h-0.1v-0.1c0.2-4.3,0-9.6-0.1-13.9c0-0.9-0.1-1.7-0.1-2.5c-0.1-1.3-0.1-2.8-0.1-4.6
			c-0.9-0.1-1.8,0-2.5,0c-0.6,0-1.2,0.1-1.9,0c0.2,2.7,0.1,5.4,0,8.1c-0.1,4.1-0.2,7.9,0.5,11.5v0.2h-0.2c-0.4,0-0.8,0.1-1.1,0.1
			c-0.8,0.1-1.5,0.1-2.3,0.1h-0.1v-0.1c-0.3-1.1-0.2-2.6-0.1-3.9c0-0.2,0-0.4,0-0.6c0-0.8,0-1.7,0-2.6c0-0.6-0.1-1.1-0.1-1.6
			c0-0.3,0-0.5,0-0.8c0-0.6,0-1.2,0-1.7v-0.4c0.1-1.9,0.1-3.3-0.2-5.8c-0.1-0.4-0.1-1.1-0.1-1.7c0-0.4,0-0.7,0-1
			c-0.3-3.8-0.5-9.9,0.1-14.5v-0.3c0.1-1.1,0.2-2.4,0.7-3.1c0.7-1.1,3-1.4,3.7-1.5c1.6-0.1,3.4,0.3,4.4,0.9c1.6,1.1,2.3,3.4,2.5,4.6
			c0.3,1.7,0.3,4.9,0.3,7c-0.1,2,0.1,4.1,0.2,6.1c0.2,2.4,0.3,4.8,0.2,7.2c-0.1,1.1-0.1,2.4-0.1,3.7c0,1.3,0,2.6-0.1,3.7
			c-0.2,2-0.1,4.6-0.1,6.5v0.7h-0.2c-0.2,0-0.4,0.1-0.7,0.1C-127.2,433.9-127.8,434-128.3,434"/>
	</g>
	<g>
		<path class="st0" d="M-145.9,367.8c-0.2-0.3-1.1-0.6-1.7-0.5c-0.7,0.1-1,0.5-1,1c-0.1,2.1-0.1,4.7,0.1,6.6c0.9-0.1,2,0,3-0.1
			c0-1.7,0-4.3-0.3-6.1C-145.8,368.4-145.8,368-145.9,367.8 M-145.3,386.6c0.1-2.7,0-5.5-0.1-7.8c0-0.7,0-1.5,0-2.5
			c-1.1-0.1-1.8,0.1-2.8,0c0.3,3.5-0.4,5.8,0.3,9c-0.8,0.1-1.4,0.1-2,0.1c-0.2-0.6-0.1-1.6,0-2.3c0-0.7-0.1-1.5-0.1-2.2
			c0-0.4,0-0.3,0-0.7c0-1.1,0.1-1.2-0.1-2.5c-0.1-0.4-0.1-1-0.1-1.4c-0.2-2.1-0.3-5.2,0.1-7.5c0.1-0.6,0.1-1.3,0.4-1.7
			c0.3-0.5,1.5-0.7,2.1-0.7c0.9-0.1,1.9,0.1,2.6,0.5c0.8,0.5,1.2,1.4,1.4,2.3c0.2,0.9,0.2,2.5,0.2,3.6c-0.1,2.2,0.4,4.6,0.2,6.9
			c-0.1,1.2,0,2-0.1,3.1c-0.1,1.2-0.1,2.6,0,3.7C-143.9,386.5-144.7,386.7-145.3,386.6"/>
	</g>
	<g>
		<path class="st0" d="M-147.6,367.5L-147.6,367.5c-0.7,0-0.9,0.5-0.9,0.8c-0.1,2.2-0.1,4.6,0.1,6.4c0.4,0,0.8,0,1.2,0
			c0.5,0,1,0,1.5-0.1c0-2.7-0.1-4.6-0.3-5.9c0-0.1,0-0.2,0-0.3c0-0.2,0-0.3-0.1-0.4C-146.2,367.7-147,367.5-147.6,367.5
			 M-148.6,375.1v-0.2c-0.2-1.8-0.2-4.4-0.1-6.6c0-0.7,0.4-1.1,1.1-1.1c0.7,0,1.6,0.2,1.9,0.6l0,0c0.1,0.2,0.1,0.4,0.2,0.6
			c0,0.1,0,0.2,0,0.3c0.2,1.4,0.3,3.4,0.3,6.1v0.2h-0.2c-0.5,0.1-1.1,0.1-1.7,0.1c-0.5,0-0.9,0-1.3,0.1L-148.6,375.1z M-145.1,386.4
			c0.4,0.1,0.9,0,1.3-0.1c0.1,0,0.2,0,0.2,0v-0.1c0-1-0.1-2.4,0-3.4c0.1-0.6,0.1-1,0.1-1.5s0-1,0.1-1.6c0.1-1.2,0-2.5-0.1-3.7
			c-0.1-1.1-0.2-2.2-0.1-3.2c0-1.1,0-2.7-0.2-3.5c-0.1-0.6-0.5-1.7-1.4-2.2c-0.6-0.3-1.6-0.5-2.5-0.5c-0.7,0.1-1.7,0.3-2,0.6
			c-0.2,0.3-0.3,1-0.4,1.5v0.2c-0.4,2.3-0.3,5.5-0.1,7.4c0,0.2,0,0.3,0,0.5c0,0.3,0,0.6,0.1,0.9c0.2,1.2,0.2,1.4,0.1,2.2v0.4
			c0,0.3,0,0.3,0,0.4c0,0.1,0,0.1,0,0.3c0,0.3,0,0.5,0,0.8c0,0.4,0,0.9,0,1.4v0.3c-0.1,0.6-0.1,1.3,0,1.8c0.4,0,0.8,0,1.2-0.1
			c0.2,0,0.3,0,0.5,0c-0.4-1.8-0.3-3.4-0.3-5c0-1.2,0.1-2.4,0-3.8v-0.2h0.2c0.4,0,0.8,0,1.2,0c0.5,0,1,0,1.6,0h0.2v0.2
			c0,1,0,1.8,0,2.5c0,0.5,0,1,0.1,1.5C-145.1,382.2-145,384.4-145.1,386.4 M-144.8,386.8c-0.2,0-0.4,0-0.6-0.1h-0.1v-0.1
			c0.1-2.1,0-4.3,0-6.3c0-0.5,0-1-0.1-1.5c0-0.7,0-1.4,0-2.3c-0.5,0-1,0-1.4,0c-0.3,0-0.7,0-1,0c0.1,1.4,0,2.5,0,3.7
			c-0.1,1.7-0.1,3.2,0.3,5.1v0.2l-0.3-0.1c-0.2,0-0.5,0-0.7,0.1c-0.5,0-0.9,0.1-1.3,0.1h-0.1v-0.1c-0.2-0.6-0.1-1.4,0-2.1v-0.3
			c0-0.4,0-0.9,0-1.3c0-0.3,0-0.6,0-0.8c0-0.2,0-0.2,0-0.3c0-0.1,0-0.2,0-0.4v-0.4c0-0.8,0-0.9-0.1-2.1c0-0.2-0.1-0.6-0.1-0.9
			c0-0.2,0-0.4,0-0.5c-0.2-2-0.3-5.1,0.1-7.5v-0.2c0.1-0.6,0.1-1.3,0.5-1.7c0.4-0.6,1.7-0.7,2.2-0.8c0.9-0.1,2,0.1,2.7,0.5
			c1,0.6,1.4,1.8,1.5,2.5c0.2,0.9,0.2,2.5,0.2,3.6c0,1,0,2.1,0.1,3.2c0.1,1.2,0.2,2.5,0.1,3.7c-0.1,0.6-0.1,1.1-0.1,1.6s0,1-0.1,1.6
			c-0.1,1.1-0.1,2.4,0,3.4v0.4h-0.2c-0.1,0-0.3,0-0.4,0C-144.1,386.7-144.4,386.8-144.8,386.8"/>
	</g>
</g>
</svg>
