<?xml version="1.0" encoding="utf-8"?>
<!-- Generator: Adobe Illustrator 19.0.0, SVG Export Plug-In . SVG Version: 6.00 Build 0)  -->
<svg version="1.1" id="Capa_1" xmlns="http://www.w3.org/2000/svg" xmlns:xlink="http://www.w3.org/1999/xlink" x="0px" y="0px"
	 width="112.4px" height="75.8px" viewBox="-249 359.2 112.4 75.8" style="enable-background:new -249 359.2 112.4 75.8;"
	 xml:space="preserve">
<style type="text/css">
	.st0{fill:#FFFFFF;}
	.st1{fill:#FF5100;}
</style>
<g>
	<g>
		<path class="st0" d="M-148.4,422.1c-1.1,0.2-2.6,0.5-3.4,0.1s-1.4-0.9-1.6-1.1c-0.2-0.1-0.7,1.5-1.8,2.3c-1.7,1.3-5.4,1.9-7.7-0.1
			c-2.2-2-2.6-5.1-2.2-6.3c0.3-1.2,0.7-2.6,2-3.8c1-1,3.4-2.1,4.8-2.5l1.5-0.4l0.8-0.1c0,0-0.1-0.6-0.3-1.5
			c-0.3-0.9-1.2-1.8-2.6-1.6c-1.3,0.2-2.7,0.7-3.8,1.3c-1.5,0.9-2.7,2-2.7,2l-1.2-4.5c0,0,4.3-2.8,7.9-3.4c3.9-0.6,6.9-0.3,8.3,3
			c1.4,3.3,2,7.9,2.2,8.9c0.2,0.9,0.7,2.1,0.9,2.2c0.3,0.1,1.1-0.1,1.4-0.1c0.3-0.1,1.3,4.2,1.3,4.2S-147.4,421.9-148.4,422.1
			 M-169.6,425l-7.4-0.8l3.3-29l7.4,0.8L-169.6,425z M-177.5,406.6c0,0.2-0.2,0.4-0.4,0.5c-0.2,0.1-0.4,0-0.6-0.2
			c-0.6-0.7-1.4-1.4-2.1-2c-0.2-0.1-0.3-0.3-0.2-0.5c0-0.2,0.2-0.4,0.4-0.4l1.6-0.5c0.3-0.1,0.6-0.2,0.9-0.3
			c0.2-0.1,0.4-0.1,0.5,0.1c0.2,0.1,0.2,0.3,0.2,0.5L-177.5,406.6z M-177.6,417.3c-0.1,1.4-0.4,2.7-0.9,3.9
			c-0.6,1.2-1.4,2.3-2.4,3.1c-1,0.9-2.3,1.5-3.9,2c-1.3,0.4-2.5,0.5-3.8,0.3c-1.3-0.2-2.4-0.6-3.6-1.2c-1.1-0.6-2.1-1.5-2.9-2.7
			c-0.8-1.1-1.5-2.5-1.9-4c-0.4-1.6-0.6-3.2-0.5-4.6c0.1-1.5,0.5-2.8,1.1-4c0.6-1.2,1.4-2.2,2.4-3c1-0.8,2.2-1.4,3.5-1.8
			c1.3-0.4,2.6-0.5,3.9-0.3c1.3,0.2,2.5,0.6,3.5,1.2c1.1,0.7,2.1,1.5,2.9,2.7c0.8,1.1,1.5,2.5,1.9,4.1
			C-177.6,414.4-177.5,415.8-177.6,417.3 M-202.6,426l-13.5-9.1l4.8,12.5l-7.1,2.3l-9.6-24.8l6.8-2.2l12.6,8.3l-4.2-9.5l6.8-2.3
			l9.4,22.9L-202.6,426z M-244.6,393c-3.8-9.2,0.3-16.2,3.7-19.2c2.5-2.3,6.9-4.1,10.4-5.2l3.3,6.7c0,0-6.1,0.1-9.9,5.9
			c-1.8,3.1-0.8,7.9,2.9,11.4c3.5,3.4,9.5,1.2,10.8,0.5c2.2-1.2,2.8-3.1,2.8-3.1l3.2,6.5c0,0-3.2,4.2-10.9,5.8
			C-232.5,403.2-240.6,401.8-244.6,393 M-226.7,378.4L-226.7,378.4l3.9,10l0,0c-0.2,0.3-0.4,0.6-0.5,0.9l0,0l0,0c0,0,0,0,0,0.1l0,0
			c-0.1,0.2-0.5,0.9-1.4,1.5c-0.5,0.3-2.5,1-4.4,1c-1.1,0-2.3-0.3-3.1-1.1c-1.7-1.6-2.3-3.2-2.6-4.2c-0.4-1.3-0.3-2.6,0.2-3.5l0,0
			l0.1-0.1l0,0l0,0c2.9-4.3,7.4-4.5,7.6-4.5C-226.9,378.5-226.8,378.5-226.7,378.4 M-215.3,404.7l0.1,0.2c0.1,0.2,0,0.4-0.2,0.5
			c-0.2,0.1-0.5,0.1-0.7-0.1l-0.1-0.1c0,0,0,0,0,0.1c0,0,0,0,0-0.1c-0.3-0.2-3.6-2.4-3.6-2.4c-0.2-0.1-0.3-0.3-0.3-0.5l0,0
			c0-0.2,0.1-0.4,0.3-0.5c0.6-0.4,1.2-0.7,1.7-1.1c0.2-0.2,0.6-0.1,0.8,0.1c0.5,0.6,1.1,0.9,1.8,1c0.2,0,0.4,0.1,0.4,0.3
			c0.1,0.2,0.1,0.4,0,0.5v0.1v0.1C-215.5,403.4-215.5,404.1-215.3,404.7 M-217.4,372.9l0.6,1.3c0,0,0.3-1.3,1-1.9s2.4-1.5,3.4-1.9
			c0.9-0.3,1.9-0.6,1.9-0.6l2.4,6.2c0,0-1.5-0.3-2.8,0.4c-1.4,0.7-2.7,1.8-2.8,3.2c-0.1,1.4,0.3,2.9,0.5,3.7c0.3,0.8,4.8,13,4.8,13
			l-7,2.6l-8.9-23.4L-217.4,372.9z M-192.7,403.8c-1,0.4-1.9,1-2.7,1.7l0,0c-1.3,1.1-2.4,2.3-3.1,3.8l-0.3,0.6
			c-0.1,0.2-0.3,0.3-0.5,0.3s-0.4-0.1-0.5-0.3l-3.8-9.3c-0.4-0.9-1.3-1.6-2.3-1.6c-0.2,0-0.4-0.1-0.5-0.3c-0.1-0.2-0.1-0.4,0-0.6
			l0.2-0.3c0.1-0.2,0.4-0.4,0.6-0.3c1.9,0.5,3.8,0.5,5.4,0.4h0.7c0.7,0,1.3-0.1,1.9-0.3c0.1,0,0.2,0,0.4,0c0.3,0.1,0.6,0.2,0.9,0.2
			h1.9c0.3,0,0.5,0.2,0.5,0.4v0.1v0.1l1.3,4.8C-192.3,403.4-192.4,403.7-192.7,403.8 M-201,377.3v6.9v3.4c0,0.6,0.1,1.7,1.7,1.7
			c1.6,0,2.9-1.8,3.2-2.6c0.3-0.8,0.3-1.9,0.3-6.4v-6.1h7.5v20.6h-7.8c0,0,0.2-0.5,0.3-1.1c0.1-0.5,0.1-1.1,0.1-1.1
			s-1.1,2.2-3.8,2.2c-2.7,0.1-6,0.4-7.9-1.9c-1.9-2.3-1.4-6.1-1.4-7.5c0-1.5,0.2-8.2,0.2-8.2h7.6V377.3z M-185.1,363.4
			c2.1,0,3.8,1.7,3.8,3.8s-1.7,3.8-3.8,3.8c-2.1,0-3.8-1.7-3.8-3.8S-187.2,363.4-185.1,363.4 M-180.2,370.9c0,0,4.3,14.7,5,17.3
			s1.6,5.6,0.7,7.5c-0.9,2-2.7,4.2-5.2,4.9c-2.4,0.7-9.9,2.7-9.9,2.7l-1.7-6c0,0,0.7,0.1,3-0.5c2.7-0.7,4.8-1.4,5.8-1.9
			c0.9-0.4,0.9-1,0.2-3.5c-0.7-2.4-5.2-18.6-5.2-18.6L-180.2,370.9z M-172.6,370.3l7.4,0.5l-1.4,20.6l-7.4-0.5L-172.6,370.3z
			 M-168.5,361.9c2.1,0,3.8,1.7,3.8,3.8s-1.7,3.8-3.8,3.8s-3.8-1.7-3.8-3.8S-170.6,361.9-168.5,361.9 M-144.5,414.3
			c-0.3-0.2-0.6-0.3-0.9-0.4h-0.1l-0.1-0.4c-0.3-1.8-1-5.7-2.3-8.7c-2.6-6.2-9.1-5.2-11.6-4.8c-1.3,0.2-2.7,0.6-4.2,1.3l-0.2,0.1
			l0.5-4.6c0.1-0.6-0.1-1.3-0.4-1.9l0,0l0.2-2.9l1.6-23.6h-0.1v-0.1c0.3-0.7,0.4-1.5,0.4-2.2c0-3.8-3.1-6.8-6.8-6.8
			c-3.8,0-6.8,3.1-6.8,6.8c0,0.5-0.1,1.3-0.1,1.4l-0.5,6.9h-0.2l-1.1-3.9c-0.2-0.7-0.6-1.2-1.1-1.6h-0.1v-0.1
			c0.1-0.4,0.1-0.8,0.1-1.2c0-3.8-3.1-6.8-6.8-6.8c-3.8,0-6.8,3.1-6.8,6.8c0,1.4,0.4,2.7,1.2,3.8l0.1,0.2h-5.2c-1.7,0-3,1.4-3,3v0.9
			l-0.2-0.2c-0.5-0.5-1.2-0.7-1.9-0.7h-4.5l-2.1-5.5c-0.6-1.5-2.1-2.2-3.6-1.8c0,0-1.1,0.3-2.2,0.7c-1.1,0.4-3,1.4-4.2,2.3l0,0l0,0
			c-0.3,0-0.6,0.1-0.8,0.2l-6.8,2.6l-2.7-5.4c-0.5-1-1.5-1.6-2.5-1.6c-0.3,0-0.6,0-0.8,0.1c-2.3,0.7-8,2.7-11.5,5.8
			c-4.9,4.2-8.8,12.6-4.7,22.5v0.1c4.6,9.9,12.9,11,16.3,11.1h0.2l-0.1,0.2l0,0c-0.4,0.8-0.4,1.6-0.1,2.4l9.6,24.8
			c0.6,1.5,2.2,2.3,3.8,1.8l7.1-2.3c0.8-0.3,1.4-0.8,1.8-1.6c0.4-0.7,0.4-1.6,0.1-2.4l-1.4-3.6l5.6,3.8c0.8,0.5,1.7,0.7,2.6,0.4
			l5.9-1.9c0.1,0,0.2-0.1,0.3-0.1h0.1h0.1c0.5,0.4,1.1,0.8,1.6,1.2c1.5,0.9,3,1.4,4.7,1.6c1.7,0.2,3.3,0.1,5-0.4
			c2-0.6,3.6-1.4,4.9-2.5l0.1-0.1l0.1,0.1c0.4,0.3,1,0.5,1.5,0.6l7.4,0.8c1.7,0.2,3.1-1,3.3-2.7l0.2-1.4l0.2,0.2
			c0.4,0.5,0.8,1,1.3,1.4c3.6,3.1,9,2.1,11.5,0.2c0.1-0.1,0.5-0.5,0.8-0.7c0.3-0.3,0.3-0.3,0.4-0.2c0.1,0.1,0.1,0.1-0.1,0.3
			c1.5,0.4,3.1,0.2,4.6-0.1c1.3-0.2,3.4-1.2,4.2-1.5c1.3-0.6,2-2,1.7-3.4C-143,415.9-143.3,415-144.5,414.3"/>
	</g>
	<g>
		<path class="st0" d="M-158,415.5c-0.6,0.6-1.2,1.3-0.8,2.3c0.4,1.1,1.1,1.7,2.4,1.4c1.3-0.3,1.7-0.9,1.9-1.6
			c0.2-0.7-0.5-3.2-0.5-3.2S-157.3,414.7-158,415.5"/>
	</g>
	<g>
		<path class="st0" d="M-185,413.5c-0.3-0.9-0.7-1.7-1.1-2.3c-0.4-0.6-0.8-1.1-1.2-1.4c-0.4-0.3-0.8-0.4-1.2-0.5
			c-0.4,0-0.8,0.1-1.1,0.4c-0.4,0.5-0.6,0.9-0.8,1.5c-0.2,0.5-0.3,1.2-0.3,1.9c0,0.7,0,1.5,0.2,2.4c0.1,0.9,0.4,1.7,0.7,2.7
			c0.3,0.9,0.7,1.6,1.1,2.2c0.4,0.6,0.8,1.1,1.2,1.4c0.4,0.3,0.8,0.5,1.2,0.5c0.4,0,0.8-0.1,1.1-0.4c0.4-0.4,0.7-0.8,0.9-1.4
			c0.2-0.6,0.3-1.2,0.3-2c0-0.7-0.1-1.5-0.2-2.3C-184.5,415.2-184.7,414.4-185,413.5"/>
	</g>
	<g>
		<path class="st1" d="M-217.4,396.4l-3.2-6.5c0,0-0.6,1.9-2.8,3.1c-1.4,0.8-7.3,2.9-10.8-0.5c-3.6-3.4-4.7-8.3-2.9-11.4
			c3.8-5.8,9.9-5.9,9.9-5.9l-3.3-6.7c-3.6,1.1-7.9,2.9-10.4,5.2c-3.4,3.1-7.6,10-3.7,19.2c4,8.9,12.1,10.3,16.3,9.3
			C-220.5,400.6-217.4,396.4-217.4,396.4"/>
	</g>
	<g>
		<path class="st1" d="M-208.4,396.3c0,0-4.6-12.2-4.8-13c-0.3-0.8-0.7-2.3-0.5-3.7s1.5-2.4,2.8-3.2c1.4-0.7,2.8-0.4,2.8-0.4
			l-2.4-6.2c0,0-1,0.3-1.9,0.6c-0.9,0.3-2.6,1.3-3.4,1.9c-0.7,0.6-1,1.9-1,1.9l-0.6-1.3l-6.9,2.6l8.9,23.4L-208.4,396.3z"/>
	</g>
	<g>
		<path class="st1" d="M-201,377.3h-7.5c0,0-0.2,6.7-0.2,8.2s-0.5,5.2,1.4,7.5c1.8,2.3,5.2,2,7.9,1.9c2.7-0.1,3.8-2.2,3.8-2.2
			s0,0.5-0.1,1.1c-0.1,0.5-0.3,1.1-0.3,1.1h7.8v-20.7h-7.5v6.2c0,4.5,0,5.6-0.3,6.4c-0.3,0.8-1.6,2.6-3.2,2.6
			c-1.6,0-1.7-1.1-1.7-1.7v-3.4v-7H-201z"/>
	</g>
	<g>
		<path class="st1" d="M-185.1,371c2.1,0,3.8-1.7,3.8-3.8s-1.7-3.8-3.8-3.8c-2.1,0-3.8,1.7-3.8,3.8S-187.2,371-185.1,371"/>
	</g>
	<g>
		<path class="st1" d="M-168.5,369.5c2.1,0,3.8-1.7,3.8-3.8s-1.7-3.8-3.8-3.8s-3.8,1.7-3.8,3.8S-170.6,369.5-168.5,369.5"/>
	</g>
	<g>
		<path class="st1" d="M-182.2,391.5c0.7,2.5,0.7,3.1-0.2,3.5c-1,0.5-3.1,1.1-5.8,1.8c-2.2,0.6-3,0.5-3,0.5l1.7,6c0,0,7.5-2,9.9-2.7
			c2.4-0.7,4.2-2.9,5.2-4.9c0.9-2,0.1-5-0.7-7.5c-0.7-2.6-5-17.3-5-17.3l-7.2,1.9C-187.4,372.8-182.9,389.1-182.2,391.5"/>
	</g>
</g>
<rect x="-179.8" y="377.1" transform="matrix(-6.753361e-002 0.9977 -0.9977 -6.753361e-002 199.0159 575.7555)" class="st1" width="20.6" height="7.5"/>
<polygon class="st1" points="-212.9,403.5 -208.7,412.9 -221.3,404.7 -228.1,406.9 -218.5,431.6 -211.3,429.3 -216.1,416.8 
	-202.6,426 -196.6,424 -206,401.2 "/>
<g>
	<g>
		<path class="st1" d="M-184.4,420.3c-0.2,0.6-0.5,1-0.9,1.4c-0.3,0.3-0.7,0.4-1.1,0.4c-0.4,0-0.8-0.2-1.2-0.5
			c-0.4-0.3-0.8-0.8-1.2-1.4s-0.8-1.3-1.1-2.2c-0.3-0.9-0.6-1.8-0.7-2.7c-0.1-0.9-0.2-1.6-0.2-2.4c0-0.7,0.1-1.3,0.3-1.9
			c0.2-0.5,0.5-1,0.8-1.3c0.3-0.3,0.7-0.4,1.1-0.4s0.8,0.2,1.2,0.5c0.4,0.3,0.8,0.8,1.2,1.4c0.4,0.6,0.8,1.4,1.1,2.3
			c0.3,0.8,0.5,1.6,0.7,2.5c0.2,0.8,0.2,1.6,0.2,2.3C-184.1,419.1-184.2,419.7-184.4,420.3 M-179.9,408.8c-0.8-1.1-1.8-2-2.9-2.7
			c-1.1-0.6-2.2-1-3.5-1.2c-1.3-0.2-2.6-0.1-3.9,0.3c-1.3,0.4-2.5,1-3.5,1.8c-1,0.8-1.8,1.8-2.4,3c-0.6,1.2-1,2.5-1.1,4
			c-0.1,1.5,0,3,0.5,4.6c0.4,1.6,1,2.9,1.9,4c0.8,1.1,1.8,2,2.9,2.7c1.1,0.7,2.3,1.1,3.6,1.2c1.3,0.2,2.5,0,3.8-0.3
			c1.6-0.4,2.9-1.1,3.9-2c1-0.9,1.8-1.9,2.4-3.1c0.5-1.2,0.9-2.5,0.9-3.9c0.1-1.4-0.1-2.9-0.5-4.3
			C-178.5,411.3-179.1,410-179.9,408.8"/>
	</g>
</g>
<polygon class="st1" points="-173.7,395.3 -177,424.2 -169.6,425 -166.4,396.1 "/>
<g>
	<g>
		<path class="st1" d="M-154.5,417.6c-0.2,0.7-0.6,1.3-1.9,1.6c-1.3,0.3-2-0.3-2.4-1.4s0.2-1.7,0.8-2.3c0.7-0.7,3-1.1,3-1.1
			S-154.3,416.8-154.5,417.6 M-146.1,416.5c-0.3,0.1-1.1,0.2-1.4,0.1s-0.7-1.3-0.9-2.2c-0.2-0.9-0.9-5.6-2.2-8.9
			c-1.3-3.3-4.4-3.6-8.3-3c-3.6,0.5-7.9,3.4-7.9,3.4l1.2,4.5c0,0,1.2-1.2,2.7-2c1.1-0.7,2.5-1.1,3.8-1.3c1.4-0.2,2.4,0.7,2.6,1.6
			c0.3,0.9,0.3,1.5,0.3,1.5l-0.8,0.1l-1.5,0.4c-1.5,0.4-3.8,1.5-4.8,2.5c-1.3,1.2-1.7,2.6-2,3.8c-0.3,1.2,0,4.3,2.2,6.3
			s6,1.3,7.7,0.1c1.1-0.9,1.7-2.4,1.8-2.3c0.2,0.1,0.8,0.7,1.6,1.1c0.9,0.4,2.4,0.1,3.4-0.1c1.1-0.2,3.6-1.3,3.6-1.3
			S-145.9,416.4-146.1,416.5"/>
	</g>
	<g>
		<path class="st1" d="M-138.6,422.5h-0.3v-0.4h0.3c0.1,0,0.2,0,0.3,0c0.1,0,0.1,0,0.1,0.1v0.1c0,0.1,0,0.1,0,0.1l-0.1,0.1
			C-138.3,422.5-138.4,422.5-138.6,422.5 M-138.1,422.9c0-0.1-0.1-0.1-0.2-0.1c0.2,0,0.3-0.1,0.3-0.2c0.1-0.1,0.1-0.2,0.1-0.3
			s0-0.2-0.1-0.3c-0.1-0.1-0.1-0.1-0.2-0.2c-0.1,0-0.2,0-0.4,0h-0.7v1.7h0.4v-0.7h0.1c0.1,0,0.1,0,0.2,0c0,0,0.1,0,0.1,0.1
			c0,0,0.1,0.1,0.2,0.3l0.2,0.4h0.4l-0.2-0.3C-137.9,423-138,422.9-138.1,422.9"/>
	</g>
	<g>
		<path class="st1" d="M-138.4,424c-0.8,0-1.4-0.6-1.4-1.4c0-0.8,0.6-1.4,1.4-1.4c0.8,0,1.4,0.6,1.4,1.4
			C-137,423.4-137.6,424-138.4,424 M-138.4,420.8c-1,0-1.8,0.8-1.8,1.8s0.8,1.8,1.8,1.8s1.8-0.8,1.8-1.8S-137.4,420.8-138.4,420.8"
			/>
	</g>
</g>
</svg>
