<?xml version="1.0" encoding="utf-8"?>
<!-- Generator: Adobe Illustrator 22.0.1, SVG Export Plug-In . SVG Version: 6.00 Build 0)  -->
<svg version="1.1" id="Capa_1" xmlns="http://www.w3.org/2000/svg" xmlns:xlink="http://www.w3.org/1999/xlink" x="0px" y="0px"
	 viewBox="0 0 37 25" style="enable-background:new 0 0 37 25;" xml:space="preserve">
<style type="text/css">
	.st0{fill:#FFFFFF;}
	.st1{fill:#EB5A3B;}
	.st2{fill:#3A87C8;}
</style>
<rect y="20.7" class="st0" width="37" height="2.2"/>
<rect y="22.8" class="st1" width="37" height="2.2"/>
<rect y="15.8" class="st0" width="37" height="2.2"/>
<rect y="17.9" class="st1" width="37" height="2.7"/>
<rect y="11.4" class="st0" width="37" height="2.2"/>
<rect y="13.6" class="st1" width="37" height="2.2"/>
<rect y="7.1" class="st0" width="37" height="2.2"/>
<rect y="9.2" class="st1" width="37" height="2.2"/>
<rect y="2.2" class="st0" width="37" height="2.2"/>
<rect y="4.3" class="st1" width="37" height="2.7"/>
<rect class="st1" width="37" height="2.2"/>
<rect class="st2" width="20.7" height="15.8"/>
<polygon class="st0" points="2.3,1.3 2.5,1.8 3.1,1.8 2.6,2.2 2.8,2.7 2.3,2.4 1.8,2.7 2,2.2 1.6,1.8 2.1,1.8 "/>
<polygon class="st0" points="5.6,1.3 5.7,1.8 6.3,1.8 5.9,2.2 6,2.7 5.6,2.4 5.1,2.7 5.3,2.2 4.8,1.8 5.4,1.8 "/>
<polygon class="st0" points="8.8,1.3 9,1.8 9.6,1.8 9.1,2.2 9.3,2.7 8.8,2.4 8.4,2.7 8.5,2.2 8.1,1.8 8.7,1.8 "/>
<polygon class="st0" points="12.1,1.3 12.3,1.8 12.8,1.8 12.4,2.2 12.6,2.7 12.1,2.4 11.6,2.7 11.8,2.2 11.3,1.8 11.9,1.8 "/>
<polygon class="st0" points="15.4,1.3 15.5,1.8 16.1,1.8 15.6,2.2 15.8,2.7 15.4,2.4 14.9,2.7 15.1,2.2 14.6,1.8 15.2,1.8 "/>
<polygon class="st0" points="18.6,1.3 18.8,1.8 19.4,1.8 18.9,2.2 19.1,2.7 18.6,2.4 18.2,2.7 18.3,2.2 17.9,1.8 18.4,1.8 "/>
<polygon class="st0" points="4,2.9 4.2,3.4 4.7,3.4 4.3,3.7 4.4,4.3 4,3.9 3.5,4.3 3.7,3.7 3.2,3.4 3.8,3.4 "/>
<polygon class="st0" points="7.2,2.9 7.4,3.4 8,3.4 7.5,3.7 7.7,4.3 7.2,3.9 6.8,4.3 7,3.7 6.5,3.4 7.1,3.4 "/>
<polygon class="st0" points="10.5,2.9 10.7,3.4 11.3,3.4 10.8,3.7 11,4.3 10.5,3.9 10,4.3 10.2,3.7 9.8,3.4 10.3,3.4 "/>
<polygon class="st0" points="13.8,2.9 14,3.4 14.5,3.4 14.1,3.7 14.2,4.3 13.8,3.9 13.3,4.3 13.5,3.7 13,3.4 13.6,3.4 "/>
<polygon class="st0" points="17,2.9 17.2,3.4 17.8,3.4 17.3,3.7 17.5,4.3 17,3.9 16.6,4.3 16.8,3.7 16.3,3.4 16.9,3.4 "/>
<polygon class="st0" points="2.3,4.4 2.5,4.9 3.1,4.9 2.6,5.2 2.8,5.8 2.3,5.4 1.8,5.8 2,5.2 1.6,4.9 2.1,4.9 "/>
<polygon class="st0" points="5.6,4.4 5.7,4.9 6.3,4.9 5.9,5.2 6,5.8 5.6,5.4 5.1,5.8 5.3,5.2 4.8,4.9 5.4,4.9 "/>
<polygon class="st0" points="8.8,4.4 9,4.9 9.6,4.9 9.1,5.2 9.3,5.8 8.8,5.4 8.4,5.8 8.5,5.2 8.1,4.9 8.7,4.9 "/>
<polygon class="st0" points="12.1,4.4 12.3,4.9 12.8,4.9 12.4,5.2 12.6,5.8 12.1,5.4 11.6,5.8 11.8,5.2 11.3,4.9 11.9,4.9 "/>
<polygon class="st0" points="15.4,4.4 15.5,4.9 16.1,4.9 15.6,5.2 15.8,5.8 15.4,5.4 14.9,5.8 15.1,5.2 14.6,4.9 15.2,4.9 "/>
<polygon class="st0" points="18.6,4.4 18.8,4.9 19.4,4.9 18.9,5.2 19.1,5.8 18.6,5.4 18.2,5.8 18.3,5.2 17.9,4.9 18.4,4.9 "/>
<polygon class="st0" points="4,5.9 4.2,6.5 4.7,6.5 4.3,6.8 4.4,7.4 4,7 3.5,7.4 3.7,6.8 3.2,6.5 3.8,6.5 "/>
<polygon class="st0" points="7.2,5.9 7.4,6.5 8,6.5 7.5,6.8 7.7,7.4 7.2,7 6.8,7.4 7,6.8 6.5,6.5 7.1,6.5 "/>
<polygon class="st0" points="10.5,5.9 10.7,6.5 11.3,6.5 10.8,6.8 11,7.4 10.5,7 10,7.4 10.2,6.8 9.8,6.5 10.3,6.5 "/>
<polygon class="st0" points="13.8,5.9 14,6.5 14.5,6.5 14.1,6.8 14.2,7.4 13.8,7 13.3,7.4 13.5,6.8 13,6.5 13.6,6.5 "/>
<polygon class="st0" points="17,5.9 17.2,6.5 17.8,6.5 17.3,6.8 17.5,7.4 17,7 16.6,7.4 16.8,6.8 16.3,6.5 16.9,6.5 "/>
<polygon class="st0" points="2.3,7.4 2.5,8 3.1,8 2.6,8.3 2.8,8.9 2.3,8.5 1.8,8.9 2,8.3 1.6,8 2.1,8 "/>
<polygon class="st0" points="5.6,7.4 5.7,8 6.3,8 5.9,8.3 6,8.9 5.6,8.5 5.1,8.9 5.3,8.3 4.8,8 5.4,8 "/>
<polygon class="st0" points="8.8,7.4 9,8 9.6,8 9.1,8.3 9.3,8.9 8.8,8.5 8.4,8.9 8.5,8.3 8.1,8 8.7,8 "/>
<polygon class="st0" points="12.1,7.4 12.3,8 12.8,8 12.4,8.3 12.6,8.9 12.1,8.5 11.6,8.9 11.8,8.3 11.3,8 11.9,8 "/>
<polygon class="st0" points="15.4,7.4 15.5,8 16.1,8 15.6,8.3 15.8,8.9 15.4,8.5 14.9,8.9 15.1,8.3 14.6,8 15.2,8 "/>
<polygon class="st0" points="18.6,7.4 18.8,8 19.4,8 18.9,8.3 19.1,8.9 18.6,8.5 18.2,8.9 18.3,8.3 17.9,8 18.4,8 "/>
<polygon class="st0" points="4,9 4.2,9.6 4.7,9.6 4.3,9.9 4.4,10.4 4,10.1 3.5,10.4 3.7,9.9 3.2,9.6 3.8,9.6 "/>
<polygon class="st0" points="7.2,9 7.4,9.6 8,9.6 7.5,9.9 7.7,10.4 7.2,10.1 6.8,10.4 7,9.9 6.5,9.6 7.1,9.6 "/>
<polygon class="st0" points="10.5,9 10.7,9.6 11.3,9.6 10.8,9.9 11,10.4 10.5,10.1 10,10.4 10.2,9.9 9.8,9.6 10.3,9.6 "/>
<polygon class="st0" points="13.8,9 14,9.6 14.5,9.6 14.1,9.9 14.2,10.4 13.8,10.1 13.3,10.4 13.5,9.9 13,9.6 13.6,9.6 "/>
<polygon class="st0" points="17,9 17.2,9.6 17.8,9.6 17.3,9.9 17.5,10.4 17,10.1 16.6,10.4 16.8,9.9 16.3,9.6 16.9,9.6 "/>
<polygon class="st0" points="2.3,10.5 2.5,11.1 3.1,11.1 2.6,11.4 2.8,11.9 2.3,11.6 1.8,11.9 2,11.4 1.6,11.1 2.1,11.1 "/>
<polygon class="st0" points="5.6,10.5 5.7,11.1 6.3,11.1 5.9,11.4 6,11.9 5.6,11.6 5.1,11.9 5.3,11.4 4.8,11.1 5.4,11.1 "/>
<polygon class="st0" points="8.8,10.5 9,11.1 9.6,11.1 9.1,11.4 9.3,11.9 8.8,11.6 8.4,11.9 8.5,11.4 8.1,11.1 8.7,11.1 "/>
<polygon class="st0" points="12.1,10.5 12.3,11.1 12.8,11.1 12.4,11.4 12.6,11.9 12.1,11.6 11.6,11.9 11.8,11.4 11.3,11.1 
	11.9,11.1 "/>
<polygon class="st0" points="15.4,10.5 15.5,11.1 16.1,11.1 15.6,11.4 15.8,11.9 15.4,11.6 14.9,11.9 15.1,11.4 14.6,11.1 
	15.2,11.1 "/>
<polygon class="st0" points="18.6,10.5 18.8,11.1 19.4,11.1 18.9,11.4 19.1,11.9 18.6,11.6 18.2,11.9 18.3,11.4 17.9,11.1 
	18.4,11.1 "/>
<polygon class="st0" points="4,12.1 4.2,12.6 4.7,12.6 4.3,13 4.4,13.5 4,13.2 3.5,13.5 3.7,13 3.2,12.6 3.8,12.6 "/>
<polygon class="st0" points="7.2,12.1 7.4,12.6 8,12.6 7.5,13 7.7,13.5 7.2,13.2 6.8,13.5 7,13 6.5,12.6 7.1,12.6 "/>
<polygon class="st0" points="10.5,12.1 10.7,12.6 11.3,12.6 10.8,13 11,13.5 10.5,13.2 10,13.5 10.2,13 9.8,12.6 10.3,12.6 "/>
<polygon class="st0" points="13.8,12.1 14,12.6 14.5,12.6 14.1,13 14.2,13.5 13.8,13.2 13.3,13.5 13.5,13 13,12.6 13.6,12.6 "/>
<polygon class="st0" points="17,12.1 17.2,12.6 17.8,12.6 17.3,13 17.5,13.5 17,13.2 16.6,13.5 16.8,13 16.3,12.6 16.9,12.6 "/>
<polygon class="st0" points="2.3,13.6 2.5,14.1 3.1,14.1 2.6,14.5 2.8,15 2.3,14.7 1.8,15 2,14.5 1.6,14.1 2.1,14.1 "/>
<polygon class="st0" points="5.6,13.6 5.7,14.1 6.3,14.1 5.9,14.5 6,15 5.6,14.7 5.1,15 5.3,14.5 4.8,14.1 5.4,14.1 "/>
<polygon class="st0" points="8.8,13.6 9,14.1 9.6,14.1 9.1,14.5 9.3,15 8.8,14.7 8.4,15 8.5,14.5 8.1,14.1 8.7,14.1 "/>
<polygon class="st0" points="12.1,13.6 12.3,14.1 12.8,14.1 12.4,14.5 12.6,15 12.1,14.7 11.6,15 11.8,14.5 11.3,14.1 11.9,14.1 "/>
<polygon class="st0" points="15.4,13.6 15.5,14.1 16.1,14.1 15.6,14.5 15.8,15 15.4,14.7 14.9,15 15.1,14.5 14.6,14.1 15.2,14.1 "/>
<polygon class="st0" points="18.6,13.6 18.8,14.1 19.4,14.1 18.9,14.5 19.1,15 18.6,14.7 18.2,15 18.3,14.5 17.9,14.1 18.4,14.1 "/>
</svg>
