<?xml version="1.0" encoding="utf-8"?>
<!-- Generator: Adobe Illustrator 19.0.0, SVG Export Plug-In . SVG Version: 6.00 Build 0)  -->
<svg version="1.1" id="Capa_1" xmlns="http://www.w3.org/2000/svg" xmlns:xlink="http://www.w3.org/1999/xlink" x="0px" y="0px"
	 width="207.6px" height="92px" viewBox="-201 351 207.6 92" style="enable-background:new -201 351 207.6 92;"
	 xml:space="preserve">
<style type="text/css">
	.st0{fill:#FFFFFF;}
	.st1{fill:#00AE42;}
</style>
<g>
	<g>
		<path class="st0" d="M6.6,376.9c0,2.8-2.3,5.1-5.1,5.1s-5.1-2.3-5.1-5.1c0-2.8,2.3-5.1,5.1-5.1S6.6,374.1,6.6,376.9"/>
	</g>
	<g>
		<path class="st0" d="M-0.5,400.5c5.7-13.5,2.1-20-9.7-14.9c1.5-4.4,2.5-8.2,3.2-11.9c-0.1-9.6-4.4-9.9-14.5-0.8
			c-0.2-9.1-4.2-9.8-9.9-6.7c-5.8,5.4-10.6,12.2-15.3,20.4l-5.2-4.1L-54,385c-2.5-1.2-5.7,0-9,1.4c4.6-8.9,11.7-17.9,19.9-26.2
			c-4-2.1-7.4-3.7-12.7-5.1c-6.6,7.9-13.7,15.4-19.2,23.4l2.1-12.8c-4.7,0.1-9.1-0.3-13.7-0.2c-6.6,18.1-7,35.7-4.5,53.5l10.4,3.4
			l4.2-8.2c2.2,5.5,5.8,10.6,15.9,5.4c4,3.9,9.2,3.1,13.9-1.2c4.7,3.9,9.4,3.1,15-0.8c2.8,3,5.9,5,11,1.7c4.4,4,9.1,2.6,13.5-0.5
			c4.7-3.9,8.4-8.8,10.8-13.3L-0.5,400.5z"/>
	</g>
	<g>
		<path class="st1" d="M-85.1,368.5l9.6,0.1c-1.9,7.2-3.3,14.5-4.1,22.1c6.8-12.5,15.3-23,24.3-33.1c2.8,1.1,5.4,2.1,7.6,3.2
			c-14.6,17.1-26.2,36.5-33.7,58.4L-89,417C-90.8,400.3-89.7,384.2-85.1,368.5"/>
	</g>
	<g>
		<path class="st1" d="M-38.5,388c1.5-3.5,3.3-7.1,5.6-10.5c1-1.4,1.6-1.5,1.9-1.4c0.7,0.2,0.2,1.6-0.1,2.4
			c-1.6,3.4-3.4,6.8-5.6,10.3c-0.3,0.5-1.3,1.6-1.8,1.6C-39.5,390.4-38.7,388.5-38.5,388 M-23,388.8c1.5-3.5,3.3-7.1,5.6-10.5
			c1-1.4,1.6-1.5,1.9-1.4c0.7,0.2,0.2,1.6-0.1,2.4c-1.6,3.4-3.4,6.8-5.6,10.3c-0.3,0.5-1.3,1.6-1.8,1.6
			C-24,391.2-23.2,389.3-23,388.8 M-56.6,396.1c-1.9,4.5-3.9,9-6.4,13.7c-0.5,1-2.2,1.4-3.2,1.1c-2.8-0.9-0.7-5.5,0-7.2
			c1.3-3,3.2-5.8,5.4-8.1c0-0.1,0.1-0.1,0.1-0.2c0.8-0.8,1.7-1.4,2.8-1.7C-56,393-55.6,393.9-56.6,396.1 M-13.6,402.2
			c0.5-1.3,1.2-2.4,2-3.5c1.4-1.9,2.9-4,4.8-5.6c0.2-0.2,0.5-0.4,0.8-0.4c1.2-0.1,0.2,1.9,0,2.4c-0.5,1.2-1.2,2.3-1.9,3.4
			c-1.2,1.9-2.9,3.7-5,4.4c-0.2,0.1-0.3,0.1-0.5,0.1C-13.9,402.9-13.8,402.5-13.6,402.2L-13.6,402.2z M-3.1,404.4
			c-0.2-0.1-2.7,3.4-3,3.8c-1.6,1.9-3.7,3.8-6.2,4.2c-2,0.3-2.5-1.6-2.5-3.2c0-0.1,3.3-1.4,3.7-1.6c1.2-0.6,2.2-1.4,3.3-2.3
			c2-1.7,3.7-3.9,5.1-6.2c1.6-2.7,3-5.7,2.8-8.9c-0.1-1.7-0.7-3.6-2.5-4c-1.4-0.4-3.2-0.1-4.8,0.9c-8.1,5.2-13.1,13.4-14.6,23.9
			c-1.9,1.5-4.7,0.9-4.8-2.4c0-2.4,0.4-4.6,0.8-6.6c9.2-7.2,14.6-17.2,15.9-28.2c0.9-4.8-0.4-6.1-4.1-3.7c-0.9,0.6-1.7,1.2-2.4,1.9
			c-9.9,9.5-13.9,20.2-15.4,31.9c-1,1.8-2.1,3.7-3.4,5.3c-0.8,1-1.8,2-3,2.3s-2.3-0.2-3-1.1c-0.9-1-0.9-2.1-0.9-3.4
			c0-0.9,0-1.8,0.2-2.8c0.1-0.9,0.3-1.8,0.6-2.6c0.2-0.4,0.3-0.9,0.5-1.3c0.2-0.4,0.4-1,0.7-1.3c8.3-7.1,14.5-17.6,16-28.4
			c0.7-2.8-1.4-5.7-6.1-2.2c-11,10.9-17.4,23.9-17.9,40.3c-2.2,4-6.7,6.6-6.8,0.7c2.3-6.6,5.3-13.4,8.3-20l-4.1-3.1l-1.2,1.4
			c-5.2-4.2-16.2,3.3-21.3,18.1c-0.8,2.3-1.1,4.8-0.6,7.2c1.3,7.2,7.1,6.9,13.6,2.4c2.2,5,7.7,4.4,13.5-1.1c5.1,5.5,10,4.5,15.1-1
			c2.6,5,7.4,6.2,11.6,2.2c-0.3,0.3,2.6,3.3,5.6,3.3c3.5,0,6.3-2.3,8.6-4.6c2.3-2.2,4.3-4.7,6.1-7.4c0-0.1,0.4-0.7,0.4-0.7
			C0.7,406.1-3.1,404.4-3.1,404.4"/>
	</g>
	<g>
		<path class="st1" d="M1.5,376.7c0.5,0,1,0,1-0.7c0-0.5-0.5-0.6-0.9-0.6H0.7v1.3C0.7,376.7,1.5,376.7,1.5,376.7z M0.8,379H0.2v-4.2
			h1.6c1,0,1.5,0.4,1.5,1.2c0,0.7-0.5,1.1-1.1,1.2l1.2,1.8H2.7l-1.1-1.8H0.9L0.8,379L0.8,379z M1.5,379.9c1.6,0,2.9-1.3,2.9-3
			c0-1.7-1.3-3-2.9-3c-1.7,0-3,1.3-3,3C-1.4,378.7-0.1,379.9,1.5,379.9 M-2.2,376.9c0-2.1,1.7-3.6,3.7-3.6s3.7,1.5,3.7,3.6
			s-1.7,3.6-3.7,3.6S-2.2,379-2.2,376.9"/>
	</g>
	<g>
		<path class="st0" d="M-100,400.2c9.4-9.7,2.1-28.6-15.1-11.7L-105,363l-12.9-0.2l-8.1,19c-6.2-0.8-10.9,1.3-13.6,6.3
			c-1.4,1.7-3.4,2.4-2.9-0.6l2.5-6l-13-0.2c-0.4,0.6-0.3,1.2-0.8,1.6c-3.3-4-8.6-4.8-15.4,0c5.8-9.7,12.6-18.5,21-26.5
			c-5.2-2.3-10-4.3-14.9-5.4c-7.5,8.4-14,16.4-20,24.8c0.5-4.5,1.9-8.9,4-13.2l-16.4-0.3c-5.2,18.8-6.9,37.8-4.3,56.8l11.1,3.1
			c2.4-4.2,3.5-7.8,5.4-10.2c3.5,12.2,13,11.2,23.6,2.9c2.5,6.5,7.4,7.9,14,4.4c4.2,1.7,8.6,2.3,12.9,0.2c3.8,3.5,7.8,2.2,11.7,0.2
			c9.2,7,18.1-2.5,26.8-14.4L-100,400.2z"/>
	</g>
	<g>
		<path class="st1" d="M-193.5,365.3l10.2,0.1c-2,7.7-3.5,15.5-4.4,23.5c7.2-13.3,16.3-24.5,26-35.3c3,1.1,5.8,2.2,8.1,3.4
			c-15.6,18.2-28,38.9-35.9,62.3l-8-2.4C-199.7,399.2-198.4,382-193.5,365.3"/>
	</g>
	<g>
		<path class="st1" d="M-172,400.1c0.5-1.3,1.3-2.6,2.1-3.8c1.5-2,3.1-4.3,5.2-5.9c0.2-0.2,0.5-0.4,0.8-0.4c1.2-0.1,0.2,2.1,0,2.5
			c-0.6,1.2-1.3,2.5-2.1,3.6c-1.3,2-3,3.9-5.4,4.7c-0.2,0.1-0.3,0.1-0.5,0.1C-172.3,400.8-172.2,400.4-172,400.1L-172,400.1z
			 M-113,400.9c0.5-1.3,1.3-2.6,2.1-3.8c1.5-2,3.1-4.3,5.2-5.9c0.2-0.2,0.5-0.4,0.8-0.4c1.2-0.1,0.2,2.1,0,2.5
			c-0.6,1.2-1.3,2.5-2.1,3.6c-1.3,2-3,3.9-5.4,4.7c-0.2,0.1-0.3,0.1-0.5,0.1C-113.2,401.7-113.1,401.3-113,400.9L-113,400.9z
			 M-128.4,394.3c-2,5-4.2,10-6.2,15c-0.4,1-1.7,2-2.8,1.9c-1.3-0.1-1.9-1.4-2-2.5c-0.1-1.8,0.5-3.9,1-5.6c0.9-3,2.3-5.8,4.4-8.2
			c0.9-1.1,2.1-2.5,3.4-3.1c1.1-0.5,2.1-0.1,2.3,1.1C-128.2,393.4-128.2,393.9-128.4,394.3 M-101,402.2c0.1,0.1-3.8,4.8-4.2,5.2
			c-0.8,0.9-1.6,1.8-2.5,2.6c-1.4,1.3-3,2.8-5,2.4c-1.7-0.4-2-2.3-1.4-3.7c7-1.9,11.4-7.3,14.2-13.8c0.7-1.7,1.2-3.6,1-5.5
			c-0.4-5.3-4.1-6.9-9.1-3.1c-8.4,6.1-12.2,15-13.5,23.4c-1.9,3.8-6.7,3.6-5.5-1.6l17.6-42.2l-7.1,0.1l-8.5,19.6
			c-7.5-4.7-18.1,5-20.5,22.1c-3,5.3-5.2,5.9-4.8,1.7c2.5-5.8,5.2-11.5,8.6-17.2l-5.7-0.1l3.5-7.9l-6.3-0.1
			c-3.7,9.8-9.4,19-16.1,25.5c-1.1,1.1-2.5,1.8-3.9,2.1c-2.6,0.5-3.7-0.6-3.6-3c7.9-3.6,13.5-9.4,16.8-18.1c0.6-1.6,0.8-3.3,0.4-4.9
			c-0.9-3.4-3.4-4-7.5-2c-1.2,0.6-2.4,1.3-3.4,2.2c-5.4,4.4-10.1,9.2-12.5,16.7c-1.1,3.4-1.2,7.1,0,10.5c2,5.6,6.4,6.3,11.4,4
			c2.1-0.9,3.9-2.3,5.6-3.9c4.3-4.1,7.9-8.5,10.4-13.2c0.2-0.4,1.2-2.1,2-2.1c0.8,0.1-2.2,5.5-2.4,5.7c-1.3,2.7-2.2,5.6-2.7,8.6
			c-0.2,1.3-0.1,2.7,0.6,3.9c1.9,3.1,5.8,2.7,10.1-1.7c3.3,5.7,8.7,4.3,12.7,0.7c2.2,4.6,6.8,5,12.3,0.8c2.4,3.5,6.3,4.1,10.5,2.1
			c1.2-0.6,2.4-1.4,3.3-2.4c3.4-3.2,6.2-6.8,8.9-10.5L-101,402.2z"/>
	</g>
</g>
<polygon class="st1" points="-197.8,431 -197.8,433.4 -194.2,433.4 -194.2,442.8 -191.6,442.8 -191.6,433.4 -188,433.4 -188,431 "/>
<g>
	<g>
		<path class="st1" d="M-184.9,437.8V431h2.6v6.7c0,1.9,1,2.9,2.5,2.9c1.6,0,2.5-1,2.5-2.8V431h2.6v6.7c0,3.6-2,5.3-5.2,5.3
			C-182.9,443-184.9,441.2-184.9,437.8"/>
	</g>
	<g>
		<path class="st1" d="M-166,441.1l1.5-1.8c1.1,0.9,2.2,1.4,3.5,1.4c1.1,0,1.7-0.4,1.7-1.1l0,0c0-0.7-0.4-1-2.4-1.5
			c-2.4-0.6-3.9-1.3-3.9-3.6l0,0c0-2.1,1.7-3.6,4.1-3.6c1.7,0,3.2,0.5,4.4,1.5l-1.3,2c-1-0.7-2.1-1.2-3.1-1.2s-1.5,0.5-1.5,1l0,0
			c0,0.8,0.5,1,2.5,1.5c2.4,0.6,3.7,1.5,3.7,3.5l0,0c0,2.3-1.8,3.7-4.3,3.7C-162.8,443-164.6,442.4-166,441.1"/>
	</g>
</g>
<path class="st1" d="M-148.1,434.1l1.6,3.8h-3.1L-148.1,434.1z M-149.3,431l-5.1,11.9h2.6l1.1-2.6h5l1.1,2.6h2.7l-5-11.9H-149.3z"/>
<polygon class="st1" points="-130.7,431 -130.7,438.3 -136.3,431 -138.7,431 -138.7,442.8 -136.1,442.8 -136.1,435.3 -130.4,442.8 
	-128.2,442.8 -128.2,431 "/>
<path class="st1" d="M-118.8,434.1l1.6,3.8h-3.1L-118.8,434.1z M-120,431l-5,11.8h2.6l1.1-2.6h5l1.1,2.6h2.7l-5.1-11.8H-120z"/>
<g>
	<g>
		<path class="st1" d="M-104.1,437L-104.1,437c0-3.4,2.5-6.1,6.1-6.1c2.2,0,3.6,0.7,4.7,1.8l-1.7,1.9c-0.9-0.8-1.8-1.3-3-1.3
			c-2,0-3.4,1.7-3.4,3.7l0,0c0,2,1.4,3.7,3.4,3.7c1.3,0,2.2-0.5,3.1-1.4l1.7,1.7c-1.2,1.3-2.6,2.1-4.8,2.1
			C-101.6,443-104.1,440.4-104.1,437"/>
	</g>
	<g>
		<path class="st1" d="M-80.9,437L-80.9,437c0-2.1-1.5-3.7-3.6-3.7S-88,435-88,437l0,0c0,2,1.5,3.7,3.6,3.7
			C-82.3,440.6-80.9,439-80.9,437 M-90.7,437L-90.7,437c0-3.4,2.6-6.1,6.3-6.1c3.6,0,6.3,2.7,6.3,6.1l0,0c0,3.4-2.6,6.1-6.3,6.1
			C-88.1,443-90.7,440.3-90.7,437"/>
	</g>
</g>
<polygon class="st1" points="-65.5,431 -68.6,436 -71.7,431 -74.5,431 -74.5,442.8 -72,442.8 -72,435.2 -68.7,440.2 -68.6,440.2 
	-65.3,435.1 -65.3,442.8 -62.7,442.8 -62.7,431 "/>
<g>
	<g>
		<path class="st1" d="M-53.9,437c1.3,0,2.1-0.8,2.1-1.8l0,0c0-1.2-0.8-1.8-2.1-1.8h-2v3.6H-53.9z M-58.5,431h4.8
			c2.8,0,4.5,1.7,4.5,4.1l0,0c0,2.7-2.1,4.1-4.8,4.1h-2v3.5h-2.6V431H-58.5z"/>
	</g>
</g>
<path class="st1" d="M-41.9,434.1l1.6,3.8h-3.1L-41.9,434.1z M-43.1,431l-5.1,11.9h2.6l1.1-2.6h5l1.1,2.6h2.7l-5-11.9H-43.1z"/>
<g>
	<g>
		<path class="st1" d="M-30.7,429.9c0.4-1.4,0.9-2.3,2.1-2.3c1,0,1.9,0.7,2.5,0.7c0.5,0,0.7-0.3,1-0.8l1.4,0.4
			c-0.4,1.4-0.9,2.3-2.1,2.3c-1,0-1.9-0.7-2.5-0.7c-0.5,0-0.7,0.3-1,0.8L-30.7,429.9z M-32.5,431h2.4l5.5,7.3V431h2.6v11.8h-2.2
			l-5.7-7.5v7.5h-2.6V431z"/>
	</g>
</g>
<path class="st1" d="M-17.7,442.8h2.6V431h-2.6V442.8z M-17.5,430.1h2l2.2-2l-2.2-1L-17.5,430.1z"/>
<path class="st1" d="M-5.6,434.1l1.6,3.8h-3.1L-5.6,434.1z M-6.7,431l-5.1,11.9h2.6l1.1-2.6h5l1.1,2.6h2.7L-4.4,431H-6.7z"/>
</svg>
